<?xml version="1.0" encoding="UTF-8"?>
<svg width="26px" height="18px" viewBox="0 0 26 18" version="1.1" xmlns="http://www.w3.org/2000/svg" xmlns:xlink="http://www.w3.org/1999/xlink">
    <!-- Generator: Sketch 42 (36781) - http://www.bohemiancoding.com/sketch -->
    <title>Group 10</title>
    <desc>Created with Sketch.</desc>
    <defs></defs>
    <g id="Posts" stroke="none" stroke-width="1" fill="none" fill-rule="evenodd">
        <g id="segment" transform="translate(-1122.000000, -1650.000000)" fill="#1BADD4">
            <g id="Group-10" transform="translate(1122.000000, 1650.000000)">
                <path d="M25.0869592,1.13419687 L13.2168769,10.9108345 C13.1118117,10.9968289 12.9839063,11.0398261 12.8571429,11.0398261 C12.7303794,11.0398261 12.602474,10.9968289 12.4974088,10.9108345 L0.628468509,1.13419687 C0.421764171,1.48398505 0.295000737,1.88722922 0.295000737,2.32417392 L0.295000737,15.1071305 C0.295000737,16.3889124 1.31938633,17.4313044 2.57902658,17.4313044 L23.1352591,17.4313044 C24.3948994,17.4313044 25.419285,16.3889124 25.419285,15.1071305 L25.419285,2.32417392 C25.419285,1.88722922 25.2925215,1.48398505 25.0869592,1.13419687" id="Fill-100"></path>
                <path d="M24.2635679,0.316087653 C23.9289581,0.119694957 23.5475258,0 23.1352591,0 L2.57902658,0 C2.16675991,0 1.7853276,0.119694957 1.45071781,0.316087653 L12.8571429,9.71156072 L24.2635679,0.316087653" id="Fill-101"></path>
            </g>
        </g>
    </g>
</svg>