<?xml version="1.0" encoding="UTF-8"?>
<svg width="19px" height="19px" viewBox="0 0 19 19" version="1.1" xmlns="http://www.w3.org/2000/svg" xmlns:xlink="http://www.w3.org/1999/xlink">
    <!-- Generator: Sketch 42 (36781) - http://www.bohemiancoding.com/sketch -->
    <title>Fill 15 Copy</title>
    <desc>Created with Sketch.</desc>
    <defs></defs>
    <g id="Posts" stroke="none" stroke-width="1" fill="none" fill-rule="evenodd">
        <g id="segment" transform="translate(-1126.000000, -1698.000000)" fill="#1BADD4">
            <path d="M1143.53812,1698.23713 L1127.52505,1698.23713 C1126.9762,1698.23713 1126.53155,1698.67939 1126.53155,1699.22523 L1126.53155,1715.15254 C1126.53155,1715.69824 1126.9762,1716.14064 1127.52505,1716.14064 L1136.14592,1716.14064 L1136.14592,1709.20749 L1133.80019,1709.20749 L1133.80019,1706.50546 L1136.14592,1706.50546 L1136.14592,1704.51282 C1136.14592,1702.20034 1137.56586,1700.94116 1139.63992,1700.94116 C1140.63336,1700.94116 1141.48718,1701.01475 1141.73611,1701.04762 L1141.73611,1703.46428 L1140.29756,1703.46495 C1139.16965,1703.46495 1138.95127,1703.99804 1138.95127,1704.78034 L1138.95127,1706.50546 L1141.64129,1706.50546 L1141.29099,1709.20749 L1138.95127,1709.20749 L1138.95127,1716.14064 L1143.53812,1716.14064 C1144.08676,1716.14064 1144.53155,1715.69824 1144.53155,1715.15254 L1144.53155,1699.22523 C1144.53155,1698.67939 1144.08676,1698.23713 1143.53812,1698.23713" id="Fill-15-Copy"></path>
        </g>
    </g>
</svg>