<?xml version="1.0" encoding="UTF-8"?>
<svg width="18px" height="19px" viewBox="0 0 18 19" version="1.1" xmlns="http://www.w3.org/2000/svg" xmlns:xlink="http://www.w3.org/1999/xlink">
    <!-- Generator: Sketch 42 (36781) - http://www.bohemiancoding.com/sketch -->
    <title>Group 13</title>
    <desc>Created with Sketch.</desc>
    <defs></defs>
    <g id="Posts" stroke="none" stroke-width="1" fill="none" fill-rule="evenodd">
        <g id="segment" transform="translate(-969.000000, -1655.000000)">
            <g id="Group-13" transform="translate(969.000000, 1655.274868)">
                <path d="M4.64323725,18 L13.3567627,18 L9,9.28647451 L4.64323725,18 Z M9,10.9635255 L12.1432373,17.25 L5.85676275,17.25 L9,10.9635255 Z" id="Shape" fill="#1BADD4" fill-rule="nonzero"></path>
                <path d="M15.5012521,15.2209466 C17.0943052,13.5553354 18,11.3479866 18,9 C18,4.02889322 13.9711068,0 9,0 C4.02889322,0 0,4.02889322 0,9 C0,11.3479866 0.905694836,13.5553354 2.49874791,15.2209466 L3.04075209,14.7025534 C1.57977226,13.175031 0.75,11.1527198 0.75,9 C0.75,4.44310678 4.44310678,0.75 9,0.75 C13.5568932,0.75 17.25,4.44310678 17.25,9 C17.25,11.1527198 16.4202277,13.175031 14.9592479,14.7025534 L15.5012521,15.2209466 Z" id="Shape" fill="#1BADD4" fill-rule="nonzero"></path>
                <path d="M4.73563043,12.05356 C4.09818764,11.1656159 3.75,10.1088043 3.75,9 C3.75,6.09985678 6.09985678,3.75 9,3.75 C11.89966,3.75 14.25,6.10012354 14.25,9 C14.25,10.1088043 13.9018124,11.1656159 13.2643696,12.05356 L13.8736304,12.49094 C14.6015484,11.4769659 15,10.2675942 15,9 C15,5.68589451 12.3138581,3 9,3 C5.68564322,3 3,5.68564322 3,9 C3,10.2675942 3.3984516,11.4769659 4.12636957,12.49094 L4.73563043,12.05356 Z" id="Shape" fill="#1BADD4" fill-rule="nonzero"></path>
                <path d="M6.75571198,9.10005541 C6.75408179,9.06733894 6.75408179,9.06733894 6.75230922,9.04244511 L6.75155753,9.0317001 C6.75016788,9.00970754 6.75016788,9.00970754 6.75,9 C6.75,7.75497523 7.76633426,6.75 9,6.75 C10.2345274,6.75 11.25,7.75511269 11.25,9 C11.2498321,9.00970754 11.2498321,9.00970754 11.2484425,9.0317001 L11.2476908,9.04244511 C11.2459182,9.06733894 11.2459182,9.06733894 11.244288,9.10005541 L11.993712,9.12944459 C11.9943618,9.11626106 11.9943618,9.11626106 11.9958292,9.09525489 L11.9966825,9.0830499 C11.9990429,9.04766746 11.9990429,9.04766746 12,9 C12,7.33916777 10.6470291,6 9,6 C7.3539959,6 6,7.33886301 6,9 C6.00095712,9.04766746 6.00095712,9.04766746 6.00331747,9.0830499 L6.00417078,9.09525489 C6.00563821,9.11626106 6.00563821,9.11626106 6.00628802,9.12944459 L6.75571198,9.10005541 Z" id="Shape" fill="#1BADD4" fill-rule="nonzero"></path>
                <polygon id="Shape" fill="#1BADD4" fill-rule="nonzero" points="9.375 10.125 9.375 8.625 8.625 8.625 8.625 10.125"></polygon>
                <polygon id="Shape" fill="#1BADD4" fill-rule="nonzero" points="5.47416641 17.9367493 11.0834164 14.1867493 10.6665836 13.5632507 5.05733359 17.3132507"></polygon>
                <polygon id="Shape" fill="#1BADD4" fill-rule="nonzero" points="12.9580126 17.3129811 7.33301257 13.5629811 6.91698743 14.1870189 12.5419874 17.9370189"></polygon>
                <polygon id="Shape" fill="#1BADD4" fill-rule="nonzero" points="7.70325 13.125 10.29675 13.125 10.29675 12.375 7.70325 12.375"></polygon>
                <rect id="Rectangle-path" x="0" y="0" width="18" height="18"></rect>
            </g>
        </g>
    </g>
</svg>