<?xml version="1.0" encoding="UTF-8"?>
<svg width="18px" height="15px" viewBox="0 0 18 15" version="1.1" xmlns="http://www.w3.org/2000/svg" xmlns:xlink="http://www.w3.org/1999/xlink">
    <!-- Generator: Sketch 42 (36781) - http://www.bohemiancoding.com/sketch -->
    <title>Fill 1 Copy 3</title>
    <desc>Created with Sketch.</desc>
    <defs></defs>
    <g id="Posts" stroke="none" stroke-width="1" fill="none" fill-rule="evenodd">
        <g id="segment" transform="translate(-969.000000, -1621.000000)" fill="#1BADD4">
            <path d="M987,1622.72237 C986.337715,1623.01451 985.625985,1623.21195 984.878964,1623.30075 C985.641457,1622.84614 986.226972,1622.12631 986.50271,1621.26863 C985.789202,1621.68951 984.998859,1621.9952 984.157687,1622.15997 C983.484012,1621.4461 982.524262,1621 981.462131,1621 C979.422605,1621 977.769099,1622.64457 977.769099,1624.67303 C977.769099,1624.96091 977.801822,1625.24126 977.864765,1625.51008 C974.795567,1625.35691 972.074465,1623.89458 970.253067,1621.67235 C969.935191,1622.21485 969.753078,1622.84581 969.753078,1623.51895 C969.753078,1624.79326 970.405092,1625.91754 971.395984,1626.5762 C970.790585,1626.55715 970.2212,1626.39192 969.723252,1626.11681 C969.722989,1626.13214 969.722989,1626.14753 969.722989,1626.16298 C969.722989,1627.94265 970.99594,1629.42724 972.685329,1629.76463 C972.37542,1629.84858 972.049182,1629.89344 971.712345,1629.89344 C971.474399,1629.89344 971.243037,1629.87045 971.017601,1629.82756 C971.487501,1631.28687 972.851311,1632.3488 974.467288,1632.37847 C973.203424,1633.36359 971.611083,1633.95081 969.880939,1633.95081 C969.582882,1633.95081 969.288906,1633.93346 969,1633.89953 C970.634281,1634.94169 972.575442,1635.54974 974.660924,1635.54974 C981.453506,1635.54974 985.167936,1629.95277 985.167936,1625.09895 C985.167936,1624.93969 985.164381,1624.78128 985.15727,1624.62378 C985.878745,1624.10591 986.504883,1623.45897 987,1622.72237" id="Fill-1-Copy-3"></path>
        </g>
    </g>
</svg>