<?xml version="1.0" encoding="UTF-8" standalone="no"?>
<svg width="16px" height="15px" viewBox="0 0 16 15" version="1.1" xmlns="http://www.w3.org/2000/svg" xmlns:xlink="http://www.w3.org/1999/xlink" xmlns:sketch="http://www.bohemiancoding.com/sketch/ns">
    <!-- Generator: Sketch 3.5.1 (25234) - http://www.bohemiancoding.com/sketch -->
    <title>checkmark</title>
    <desc>Created with Sketch.</desc>
    <defs></defs>
    <g id="Page-1" stroke="none" stroke-width="1" fill="none" fill-rule="evenodd" sketch:type="MSPage">
        <g id="checkmark" sketch:type="MSLayerGroup" fill="#000000">
            <path d="M15.8695444,1.78800959 L13.7630695,0.126618705 C13.6978417,0.0729016787 13.6172662,0.0345323741 13.5251799,0.0345323741 C13.4330935,0.0345323741 13.3486811,0.0729016787 13.2834532,0.130455635 L5.62110312,9.97601918 C5.62110312,9.97601918 2.60911271,7.07913669 2.52470024,6.99472422 C2.44028777,6.91031175 2.32901679,6.76834532 2.16019185,6.76834532 C1.99136691,6.76834532 1.9146283,6.88729017 1.8263789,6.97553957 C1.76115108,7.04460432 0.686810552,8.17266187 0.157314149,8.73285372 C0.126618705,8.76738609 0.107434053,8.78657074 0.0805755396,8.81342926 C0.0345323741,8.87865707 0.00383693046,8.95155875 0.00383693046,9.03213429 C0.00383693046,9.11654676 0.0345323741,9.18561151 0.0805755396,9.25083933 L0.188009592,9.35059952 C0.188009592,9.35059952 5.53285372,14.4844125 5.62110312,14.5726619 C5.70935252,14.6609113 5.81678657,14.7721823 5.97410072,14.7721823 C6.12757794,14.7721823 6.25419664,14.6071942 6.32709832,14.5342926 L15.8848921,2.25611511 C15.9309353,2.19088729 15.9616307,2.11798561 15.9616307,2.03357314 C15.9616307,1.93764988 15.9232614,1.85707434 15.8695444,1.78800959 L15.8695444,1.78800959 Z" id="Shape" sketch:type="MSShapeGroup"></path>
        </g>
    </g>
</svg>