<?xml version="1.0" encoding="UTF-8" standalone="no"?>
<svg width="99px" height="95px" viewBox="0 0 99 95" version="1.1" xmlns="http://www.w3.org/2000/svg" xmlns:xlink="http://www.w3.org/1999/xlink" xmlns:sketch="http://www.bohemiancoding.com/sketch/ns">
    <!-- Generator: Sketch 3.4.4 (17249) - http://www.bohemiancoding.com/sketch -->
    <title>Group</title>
    <desc>Created with Sketch.</desc>
    <defs></defs>
    <g id="Page-1" stroke="none" stroke-width="1" fill="none" fill-rule="evenodd" sketch:type="MSPage">
        <g id="Group" sketch:type="MSLayerGroup" fill="#000000">
            <path d="M90.313,60.013 C90.635,55.404 93.546,54.215 97.584,54.838 C97.69,53.209 97.133,50.205 97.262,48.835 C97.455,46.81 97.547,44.622 97.55,42.452 C97.554,40.386 97.691,39.111 97.691,37.051 C97.691,35.911 97.835,33.887 98.137,32.808 C98.387,31.925 98.909,29.638 98.674,29.113 C97.587,29.314 97.302,28.991 96.209,29.1 C94.407,29.284 92.638,29.772 90.818,29.936 C87.431,30.234 84.336,30.765 80.984,31.411 C73.63,32.82 66.088,34.344 58.681,34.825 C54.786,35.075 50.886,35.63 46.994,35.983 C43.028,36.349 39.108,36.555 35.143,37.02 C31.947,37.386 28.755,38.026 25.546,38.203 C22.734,38.369 19.886,38.502 17.1,38.862 C14.018,39.264 10.893,39.014 7.82,39.36 C6.633,39.495 5.459,39.489 4.284,39.604 C3.556,39.679 2.873,39.789 2.117,39.893 C1.617,39.957 1.293,39.804 1.082,39.538 L1.078,39.546 C2.995,48.298 5.199,57.673 6.257,66.553 C6.928,72.161 8.386,76.368 8.598,81.75 C8.727,85.036 8.962,91.783 10.718,94.679 C11.125,95.355 14.854,94.856 17.63,94.679 C22.714,94.367 27.905,93.588 32.88,92.223 C42.984,89.45 52.918,86.981 63.318,85.604 C74.875,84.08 86.345,82.311 97.804,80.158 C97.689,78.074 97.545,75.356 97.548,73.863 C97.552,72.467 97.641,71.187 97.837,69.834 C97.958,68.964 97.899,67.285 98.2,66.296 C93.389,66.972 90.04,63.908 90.313,60.013 L90.313,60.013 Z M28.167,67.816 C23.087,67.816 18.969,63.695 18.969,58.618 C18.969,53.54 23.087,49.426 28.167,49.426 C33.244,49.426 37.364,53.54 37.364,58.618 C37.363,63.695 33.244,67.816 28.167,67.816 L28.167,67.816 Z M41.544,83.31 C39.912,83.31 38.588,81.989 38.588,80.356 C38.588,78.727 39.912,77.404 41.544,77.404 C43.175,77.404 44.497,78.727 44.497,80.356 C44.497,81.988 43.175,83.31 41.544,83.31 L41.544,83.31 Z M71.25,53.661 C68.604,53.661 66.458,51.511 66.458,48.864 C66.458,46.218 68.604,44.072 71.25,44.072 C73.9,44.072 76.045,46.218 76.045,48.864 C76.045,51.511 73.9,53.661 71.25,53.661 L71.25,53.661 Z" id="Shape" sketch:type="MSShapeGroup"></path>
            <path d="M97.097,26.615 C95.346,25.999 93.668,25.245 91.967,24.512 C88.51,23.013 84.773,21.903 81.187,20.752 C75.729,18.99 70.277,17.227 65.031,14.899 C62.805,13.904 60.521,13.082 58.336,12.01 C55.265,10.504 52.054,9.955 48.811,8.985 C45.946,8.131 42.901,7.463 40.099,6.451 C38.244,5.779 36.522,4.786 34.659,4.121 C30.465,2.622 26.142,2.135 22.004,0.434 L20.869,0.721 C19.489,1.408 18.695,2.366 17.635,3.438 C16.342,4.73 14.683,6.34 13.653,7.857 C11.507,11.028 9.41,14.154 7.57,17.507 C5.664,20.982 4.175,24.517 2.808,28.212 C2.066,30.217 1.134,33.045 0.987,35.081 C0.987,35.081 0.384,37.258 1.087,38.142 C1.298,38.407 1.623,38.559 2.122,38.496 C2.878,38.392 3.562,38.282 4.289,38.209 C5.463,38.092 6.638,38.099 7.825,37.965 C10.898,37.617 14.023,37.867 17.105,37.465 C19.891,37.105 22.738,36.971 25.551,36.807 C28.76,36.63 31.951,35.991 35.148,35.623 C39.113,35.161 43.033,34.953 46.999,34.588 C50.891,34.234 54.791,33.68 58.686,33.429 C66.092,32.948 73.634,31.424 80.989,30.016 C84.341,29.369 87.436,28.84 90.823,28.54 C92.642,28.375 94.412,27.888 96.214,27.705 C97.307,27.597 97.592,27.919 98.679,27.717 C97.971,27.188 97.919,26.902 97.097,26.615 L97.097,26.615 Z M52.022,18.539 C54.269,18.539 56.09,19.557 56.09,20.819 C56.09,22.069 54.269,23.092 52.022,23.092 C49.773,23.092 47.952,22.068 47.952,20.819 C47.953,19.557 49.774,18.539 52.022,18.539 L52.022,18.539 Z M28.11,14.582 C33.898,14.582 38.588,16.357 38.588,18.54 C38.588,20.728 33.898,22.502 28.11,22.502 C22.322,22.502 17.633,20.728 17.633,18.54 C17.633,16.357 22.322,14.582 28.11,14.582 L28.11,14.582 Z" id="Shape" sketch:type="MSShapeGroup"></path>
        </g>
    </g>
</svg>