<?xml version="1.0" encoding="UTF-8" standalone="no"?>
<svg width="23px" height="20px" viewBox="0 0 23 20" version="1.1" xmlns="http://www.w3.org/2000/svg" xmlns:xlink="http://www.w3.org/1999/xlink" xmlns:sketch="http://www.bohemiancoding.com/sketch/ns">
    <!-- Generator: Sketch 3.5.1 (25234) - http://www.bohemiancoding.com/sketch -->
    <title>Donate Icon</title>
    <desc>Created with Sketch.</desc>
    <defs></defs>
    <g id="v03-Nav-Explorations" stroke="none" stroke-width="1" fill="none" fill-rule="evenodd" sketch:type="MSPage">
        <g id="Wide-|-Nav-Default" sketch:type="MSArtboardGroup" transform="translate(-1227.000000, -31.000000)" fill="#000000">
            <g id="Compact-Navbar" sketch:type="MSLayerGroup">
                <g id="Actions-Nav" transform="translate(1202.000000, 28.000000)" sketch:type="MSShapeGroup">
                    <g id="Donate" transform="translate(25.000000, 3.000000)">
                        <g id="Donate-Icon">
                            <path d="M12.2612193,12.674208 C12.2612193,9.49550423 14.8182309,6.9189053 17.9721728,6.9189053 C19.3053704,6.9189053 20.5291844,7.38301653 21.5008007,8.15464861 C22.1450681,5.93489246 21.5722076,3.55423364 19.8905332,1.86893311 C17.3958355,-0.632200584 13.3617425,-0.621419835 10.8798821,1.89292027 C8.39855647,-0.621419835 4.36419601,-0.632470103 1.86949833,1.86893311 C-0.625466783,4.36952776 -0.683501667,8.40018016 2.05991694,11.1659812 C5.12266112,14.2519705 10.022196,19.1919791 10.8798821,20.0568647 C11.2746262,19.659055 12.5235797,18.3995941 14.0554867,16.8555213 C12.9530914,15.8060155 12.2612193,14.323393 12.2612193,12.674208 L12.2612193,12.674208 Z" id="Shape"></path>
                            <path d="M18.6674419,12.182246 L18.6674419,10.2417112 L17.7046512,10.2417112 L17.7046512,12.182246 L15.7790698,12.182246 L15.7790698,13.1525134 L17.7046512,13.1525134 L17.7046512,15.0930481 L18.6674419,15.0930481 L18.6674419,13.1525134 L20.5930233,13.1525134 L20.5930233,12.182246 L18.6674419,12.182246 Z M21.3423953,9.04531765 C20.4959419,8.28338824 19.3828488,7.81604278 18.1585,7.81604278 C15.5151047,7.81604278 13.372093,9.97596578 13.372093,12.6396193 C13.372093,14.0311444 13.9601977,15.2814417 14.8957093,16.1616898 C15.7509884,16.9664727 16.895907,17.4629262 18.1585,17.4629262 C20.8021628,17.4629262 22.944907,15.3035422 22.944907,12.6396193 C22.944907,11.2098225 22.3236395,9.9288 21.3423953,9.04531765 Z" id="Shape"></path>
                        </g>
                    </g>
                </g>
            </g>
        </g>
    </g>
</svg>