<?xml version="1.0" encoding="UTF-8" standalone="no"?>
<svg width="22px" height="25px" viewBox="0 0 22 25" version="1.1" xmlns="http://www.w3.org/2000/svg" xmlns:xlink="http://www.w3.org/1999/xlink" xmlns:sketch="http://www.bohemiancoding.com/sketch/ns">
    <!-- Generator: Sketch 3.4.4 (17249) - http://www.bohemiancoding.com/sketch -->
    <title>Shape + Shape</title>
    <desc>Created with Sketch.</desc>
    <defs></defs>
    <g id="The-Greatest-List:-Morning/Afternoon/Evening" stroke="none" stroke-width="1" fill="none" fill-rule="evenodd" sketch:type="MSPage">
        <g id="MORNING" sketch:type="MSArtboardGroup" transform="translate(-617.000000, -4128.000000)" fill-opacity="0.6" fill="#000000">
            <g id="Shape-+-Shape" sketch:type="MSLayerGroup" transform="translate(617.000000, 4128.000000)">
                <path d="M0,8 L0,22.9765 C0,24.09425 0.8955,25 2,25 L20,25 C21.1045,25 22,24.09425 22,22.9765 L22,8 L0,8 L0,8 Z M5.5,23.5 L1.5,23.5 L1.5,19.5 L5.5,19.5 L5.5,23.5 L5.5,23.5 Z M5.5,18.5 L1.5,18.5 L1.5,14.5 L5.5,14.5 L5.5,18.5 L5.5,18.5 Z M5.5,13.5 L1.5,13.5 L1.5,9.5 L5.5,9.5 L5.5,13.5 L5.5,13.5 Z M10.5,23.5 L6.5,23.5 L6.5,19.5 L10.5,19.5 L10.5,23.5 L10.5,23.5 Z M10.5,18.5 L6.5,18.5 L6.5,14.5 L10.5,14.5 L10.5,18.5 L10.5,18.5 Z M10.5,13.5 L6.5,13.5 L6.5,9.5 L10.5,9.5 L10.5,13.5 L10.5,13.5 Z M15.5,23.5 L11.5,23.5 L11.5,19.5 L15.5,19.5 L15.5,23.5 L15.5,23.5 Z M15.5,18.5 L11.5,18.5 L11.5,14.5 L15.5,14.5 L15.5,18.5 L15.5,18.5 Z M15.5,13.5 L11.5,13.5 L11.5,9.5 L15.5,9.5 L15.5,13.5 L15.5,13.5 Z M20.5,23.5 L16.5,23.5 L16.5,19.5 L20.5,19.5 L20.5,23.5 L20.5,23.5 Z M20.5,18.5 L16.5,18.5 L16.5,14.5 L20.5,14.5 L20.5,18.5 L20.5,18.5 Z M20.5,13.5 L16.5,13.5 L16.5,9.5 L20.5,9.5 L20.5,13.5 L20.5,13.5 Z" id="Shape" sketch:type="MSShapeGroup"></path>
                <path d="M20,3 L16.75,3 L16.75,0.75 C16.75,0.33575 16.414,0 16,0 C15.58575,0 15.25,0.33575 15.25,0.75 L15.25,3 L6.75,3 L6.75,0.75 C6.75,0.33575 6.414,0 6,0 C5.58575,0 5.25,0.33575 5.25,0.75 L5.25,3 L2,3 C0.8955,3 0,3.90575 0,5.02325 L0,6.75 L0,6.75 L0,7 L22,7 L22,6.75 L22,6.75 L22,5.02325 C22,3.90575 21.1045,3 20,3 L20,3 Z M6,6.5 C5.17175,6.5 4.5,5.82825 4.5,5 C4.5,4.44525 4.80225,3.962 5.25,3.7025 L5.25,5 C5.25,5.41425 5.58575,5.75 6,5.75 C6.414,5.75 6.75,5.41425 6.75,5 L6.75,3.70225 C7.198,3.96175 7.5,4.44525 7.5,5 C7.5,5.82825 6.8285,6.5 6,6.5 L6,6.5 Z M16,6.5 C15.17175,6.5 14.5,5.82825 14.5,5 C14.5,4.44525 14.80225,3.962 15.25,3.7025 L15.25,5 C15.25,5.41425 15.58575,5.75 16,5.75 C16.414,5.75 16.75,5.41425 16.75,5 L16.75,3.70225 C17.198,3.96175 17.5,4.44525 17.5,5 C17.5,5.82825 16.8285,6.5 16,6.5 L16,6.5 Z" id="Shape" sketch:type="MSShapeGroup"></path>
            </g>
        </g>
    </g>
</svg>