<svg width="21" height="17" viewBox="0 0 21 17" xmlns="http://www.w3.org/2000/svg"><title>Fill 1 Copy</title><path d="M20.918 2.012a8.581 8.581 0 0 1-2.464.676A4.305 4.305 0 0 0 20.34.314a8.595 8.595 0 0 1-2.726 1.041 4.292 4.292 0 0 0-7.313 3.914A12.184 12.184 0 0 1 1.456.787a4.272 4.272 0 0 0-.58 2.157 4.29 4.29 0 0 0 1.908 3.572A4.275 4.275 0 0 1 .841 5.98v.053c0 2.08 1.479 3.814 3.442 4.209a4.297 4.297 0 0 1-1.938.073 4.296 4.296 0 0 0 4.009 2.98 8.611 8.611 0 0 1-5.33 1.838A8.73 8.73 0 0 1 0 15.072 12.148 12.148 0 0 0 6.579 17c7.894 0 12.21-6.54 12.21-12.21 0-.187-.004-.372-.012-.556a8.723 8.723 0 0 0 2.141-2.222" fill="#FFF" fill-rule="evenodd"/></svg>
