<svg width="120" height="120" viewBox="0 0 120 120" xmlns="http://www.w3.org/2000/svg"><title>Seal</title><g fill="none" fill-rule="evenodd"><circle fill="#F87E21" cx="60" cy="60" r="60"/><g fill="#FFF"><path d="M73.588 55.72c-.06 1.99-.188 5.232-.17 6.238.041 2.205.193 5.988.494 8.262 1.341-1.343 1.79-4.195 1.912-6.383l-.23-.144-.15.15-.15.15-.003-.368c.034-.612.5-3.119.384-3.551l-.117-.441-.105.067-.698-4.06 2.217 2.514-.153.225.851-1.067c.012 2.795.561 5.628 2.217 5.932l.5-1.945.03 4.115 1.817 1.659.143-.111.37-2.449-.027-2.119c.079-4.964-3.51-8.963-7.15-9.31l2.668-.945-.042-.25 2.281.124c.269-1.13 1.26-.391 1.99-.159.535.17 1.874.358 2.588.232l-.943-1.365 2.028.828c-.285-1.49-3.998-2.523-5.79-2.252l-.422.064c-1.309.197-1.894.606-2.887 1.022l-2.297 1.836-.029-.059c.077-4.857-2.974-8.694-6.75-8.124l-1.13.17-3.295.987-.004.154 2.708.126.003.229-1.067 1.243.019.17 2.934-.044-.747.924-.05.215 2.236.297-.11.648 1.34.147.268 1.144 1.019 1.112-1.376-.775c-1.314-.184-2.082-.53-3.83-.266l-.565.086c-2.392.36-7.422 3.413-7.87 5.69l2.759-2.052-1.326 2.372c.952-.119 2.758-.951 3.483-1.422.992-.644 2.353-2.13 2.665-.606l3.068-1.138-.067.38 2.6.18c-2.062.328-4.087.745-5.65 1.593-2.884 1.564-2.34 3.578-2.413 8.208l.128.097 2.437-4.448-.126-.097.225-.033.675 1.288 1.668-2.26-.058-.123 1.22.297.754-1.344.966-.194c.124-.558.55-.976 1.081-1.308-9.073 19.712-8.434 41.733-9.214 43.592h4.09c-.61-4.179-1.719-24.385 6.175-43.556z"/><path d="M49.851 36.337c5.214 28.42-2.445 57.545-4.56 63.064h5.828c-.526-2.76 6.906-33.31.209-62.81.64.606 1.108 1.299 1.113 2.096l1.29.545.643 2.05 1.793-.052-.118.15 1.643 3.565 1.331-1.561.305.112-.206.095 2.055 6.77.209-.096c1.298-6.333 2.665-8.921-.884-11.888-1.925-1.609-4.623-2.764-7.401-3.807l3.681.507.022-.537 3.935 2.439c.896-1.986 2.347.433 3.535 1.598.869.852 3.137 2.51 4.43 2.947l-1.133-3.617 3.23 3.595c.063-3.233-6.032-8.85-9.26-10.036l-.763-.28c-2.358-.866-3.534-.617-5.423-.746l-2.154.658 1.758-1.222.719-1.481 1.913.187.044-.916 3.21.244-.005-.31-.764-1.475 4.081.91.08-.226-1.115-2.004.073-.31 3.817.61.04-.21-4.298-2.299-1.525-.56c-5.096-1.87-10.513 2.477-11.875 9.122l-.057.072-2.65-3.17c-1.26-.853-1.952-1.58-3.718-2.228l-.57-.21c-2.418-.887-7.91-.555-8.759 1.395l3.08-.542-1.728 1.588c.958.378 2.883.51 3.68.433 1.09-.105 2.695-.827 2.73.793l3.219.49-.134.33 3.436 2.061c-5.184-.581-11.4 3.83-12.79 10.622l-.68 2.881-.223 3.446.164.192 3.038-1.734 1.287-5.602.108 2.796c2.402.066 4.026-3.638 4.887-7.445l.863 1.701-.143-.35 3.853-2.785-2.202 5.332-.126-.122-.298.568c-.292.555-.4 4.108-.538 4.951l-.116.503-.164-.249-.165-.248-.362.13c-.49 3.018-.73 7.036.736 9.255 1.108-3.014 2.464-8.126 3.188-11.12.331-1.367 1.134-5.824 1.651-8.555z"/></g></g></svg>