<?xml version="1.0" encoding="UTF-8" standalone="no"?>
<svg width="21px" height="15px" viewBox="0 0 21 15" version="1.1" xmlns="http://www.w3.org/2000/svg" xmlns:xlink="http://www.w3.org/1999/xlink" xmlns:sketch="http://www.bohemiancoding.com/sketch/ns">
    <!-- Generator: Sketch 3.5.1 (25234) - http://www.bohemiancoding.com/sketch -->
    <title>Listen Icon</title>
    <desc>Created with Sketch.</desc>
    <defs></defs>
    <g id="v03-Nav-Explorations" stroke="none" stroke-width="1" fill="none" fill-rule="evenodd" sketch:type="MSPage">
        <g id="Small-|-Nav-Default-Homepage" sketch:type="MSArtboardGroup" transform="translate(-67.000000, -67.000000)" fill="#000000">
            <g id="Broadcast-Bar" sketch:type="MSLayerGroup" transform="translate(0.000000, 55.000000)">
                <g id="LISTEN-LIVE" transform="translate(67.000000, 12.000000)" sketch:type="MSShapeGroup">
                    <g id="Listen-Icon">
                        <ellipse id="Oval" cx="10.5" cy="7.47663551" rx="3" ry="2.99065421"></ellipse>
                        <g id="Group">
                            <path d="M5.25,7.47663551 C5.25,5.75233645 6.11967188,4.24261682 7.42096875,3.40962617 L6.33623438,2.26420561 C6.04279688,2.47953271 5.76529688,2.72369159 5.50729688,2.9961215 C4.37409375,4.19294393 3.75,5.78415888 3.75,7.47663551 C3.75,9.16911215 4.37409375,10.7603271 5.50734375,11.9571495 C5.76534375,12.2295327 6.04284375,12.4737383 6.33628125,12.6890187 L7.42101563,11.5436449 C6.11967188,10.7106542 5.25,9.20093458 5.25,7.47663551 L5.25,7.47663551 Z" id="Shape"></path>
                            <path d="M15.75,7.47663551 C15.75,9.20093458 14.8803281,10.7106542 13.5790312,11.5436449 L14.6637656,12.6890187 C14.9572031,12.4737383 15.2347031,12.2295327 15.4927031,11.9571495 C16.6259062,10.7603271 17.25,9.16911215 17.25,7.47663551 C17.25,5.78415888 16.6259062,4.19294393 15.4926562,2.99616822 C15.2346562,2.72373832 14.9571563,2.47957944 14.6637187,2.26425234 L13.5789844,3.4096729 C14.8803281,4.24261682 15.75,5.75233645 15.75,7.47663551 L15.75,7.47663551 Z" id="Shape"></path>
                            <path d="M1.5,7.47663551 C1.5,4.87953271 2.68364063,2.57443925 4.51232812,1.13004673 L3.44217187,0 C3.16096875,0.23364486 2.89190625,0.485794393 2.6360625,0.755981308 C1.81003125,1.62836449 1.16128125,2.64462617 0.70790625,3.77658879 C0.238171875,4.94939252 0,6.19420561 0,7.47663551 C0,8.75901869 0.238171875,10.0039252 0.70790625,11.1766822 C1.16128125,12.3087383 1.81003125,13.3249533 2.6360625,14.1973364 C2.89190625,14.4674766 3.16096875,14.7196262 3.44217187,14.9533178 L4.51228125,13.823271 C2.68364063,12.3788318 1.5,10.0737383 1.5,7.47663551 L1.5,7.47663551 Z" id="Shape"></path>
                            <path d="M19.5,7.47663551 C19.5,10.0737383 18.3163594,12.3788318 16.4877187,13.8232243 L17.5577812,14.9376168 C17.8390312,14.7039252 18.1080937,14.4674299 18.3639375,14.1972897 C19.1899687,13.3249065 19.8387187,12.3086916 20.2920937,11.1766355 C20.7617812,10.0039252 21,8.75901869 21,7.47663551 C21,6.19420561 20.7617812,4.94939252 20.2920937,3.77658879 C19.8387187,2.64457944 19.1899687,1.62836449 18.3639375,0.755981308 C18.1081406,0.485794393 17.8390312,0.23364486 17.5577812,0 L16.4876719,1.13004673 C18.3163594,2.57443925 19.5,4.87953271 19.5,7.47663551 L19.5,7.47663551 Z" id="Shape"></path>
                        </g>
                    </g>
                </g>
            </g>
        </g>
    </g>
</svg>