<?xml version="1.0" encoding="UTF-8" standalone="no"?>
<svg width="14px" height="17px" viewBox="0 0 14 17" version="1.1" xmlns="http://www.w3.org/2000/svg" xmlns:xlink="http://www.w3.org/1999/xlink" xmlns:sketch="http://www.bohemiancoding.com/sketch/ns">
    <!-- Generator: Sketch 3.5.1 (25234) - http://www.bohemiancoding.com/sketch -->
    <title>android-notifications</title>
    <desc>Created with Sketch.</desc>
    <defs></defs>
    <g id="Page-1" stroke="none" stroke-width="1" fill="none" fill-rule="evenodd" sketch:type="MSPage">
        <g id="android-notifications" sketch:type="MSLayerGroup" fill="#FFFFFF">
            <path d="M7,16.5454545 C7.90598295,16.5454545 8.64702841,15.8009489 8.64702841,14.8909091 L5.35293182,14.8909091 C5.35293182,15.8009489 6.09401705,16.5454545 7,16.5454545 L7,16.5454545 Z M12.3529716,11.5818182 L12.3529716,7.03181818 C12.3529716,4.50863636 10.5824489,2.35780682 8.23530114,1.81996023 L8.23530114,1.24090909 C8.23530114,0.537647727 7.70007955,0 7,0 C6.29992045,0 5.76469886,0.537647727 5.76469886,1.24090909 L5.76469886,1.81996023 C3.41751136,2.35780682 1.64702841,4.50863636 1.64702841,7.03181818 L1.64702841,11.5818182 L0,13.2363636 L0,14.0636364 L14,14.0636364 L14,13.2363636 L12.3529716,11.5818182 L12.3529716,11.5818182 Z" id="Shape" sketch:type="MSShapeGroup"></path>
        </g>
    </g>
</svg>