<?xml version="1.0" encoding="UTF-8" standalone="no"?>
<svg width="24px" height="20px" viewBox="0 0 24 20" version="1.1" xmlns="http://www.w3.org/2000/svg" xmlns:xlink="http://www.w3.org/1999/xlink" xmlns:sketch="http://www.bohemiancoding.com/sketch/ns">
    <!-- Generator: Sketch 3.4.4 (17249) - http://www.bohemiancoding.com/sketch -->
    <title>Shape</title>
    <desc>Created with Sketch.</desc>
    <defs></defs>
    <g id="The-Greatest-List:-Morning/Afternoon/Evening" stroke="none" stroke-width="1" fill="none" fill-rule="evenodd" sketch:type="MSPage">
        <g id="MORNING" sketch:type="MSArtboardGroup" transform="translate(-411.000000, -5988.000000)" fill="#FFFFFF">
            <path d="M429,6005.56386 L413.4,6005.56386 L413.4,5994.3676 L416.99375,5994.3676 C416.99375,5994.3676 417.875,5993.14019 419.6625,5991.98754 L412.2,5991.98754 C411.5375,5991.98754 411,5992.51713 411,5993.17757 L411,6006.75389 C411,6007.4081 411.5375,6007.94393 412.2,6007.94393 L430.2,6007.94393 C430.8625,6007.94393 431.4,6007.41433 431.4,6006.75389 L431.4,5999.96262 L429,6001.919 L429,6005.56386 L429,6005.56386 Z M427,5995.97508 L427,5999.95639 L435,5994.00623 L427,5988 L427,5991.71963 C417.325,5991.71963 417,6001.95639 417,6001.95639 C419.7375,5997.50156 421.75,5995.97508 427,5995.97508 L427,5995.97508 Z" id="Shape" sketch:type="MSShapeGroup"></path>
        </g>
    </g>
</svg>