<?xml version="1.0" encoding="UTF-8" standalone="no"?>
<svg width="25px" height="25px" viewBox="0 0 25 25" version="1.1" xmlns="http://www.w3.org/2000/svg" xmlns:xlink="http://www.w3.org/1999/xlink" xmlns:sketch="http://www.bohemiancoding.com/sketch/ns">
    <!-- Generator: Sketch 3.4.4 (17249) - http://www.bohemiancoding.com/sketch -->
    <title>Shape</title>
    <desc>Created with Sketch.</desc>
    <defs></defs>
    <g id="The-Greatest-List:-Morning/Afternoon/Evening" stroke="none" stroke-width="1" fill="none" fill-rule="evenodd" sketch:type="MSPage">
        <g id="AFTERNOON" sketch:type="MSArtboardGroup" transform="translate(-618.000000, -2641.000000)" fill="#666666">
            <path d="M618.025278,2654.475 C618.0175,2654.305 618,2654.13889 618,2653.96778 C618,2646.80556 623.596111,2641 630.5,2641 C637.403889,2641 643,2646.80556 643,2653.96778 C643,2654.13889 642.981111,2654.30528 642.975556,2654.475 C642.715833,2647.55083 637.238889,2642.01556 630.5,2642.01556 C623.760833,2642.01556 618.283889,2647.55083 618.025278,2654.475 L618.025278,2654.475 Z M630.5,2646.72833 C634.712222,2646.72833 638.146389,2650.1425 638.395833,2654.44722 C638.405278,2654.28056 638.420278,2654.11639 638.420278,2653.94833 C638.420278,2649.41 634.874722,2645.73194 630.5,2645.73194 C626.125278,2645.73194 622.579722,2649.41 622.579722,2653.94833 C622.579722,2654.11611 622.594722,2654.28056 622.603889,2654.44722 C622.853611,2650.1425 626.2875,2646.72833 630.5,2646.72833 L630.5,2646.72833 Z M630.5,2649.13167 C629.067222,2649.13167 627.904722,2650.33778 627.904722,2651.82389 C627.904722,2653.31 629.0675,2654.51583 630.5,2654.51583 C631.932222,2654.51583 633.095,2653.30972 633.095,2651.82389 C633.095,2650.33778 631.932222,2649.13167 630.5,2649.13167 L630.5,2649.13167 Z M630.5,2654.74083 C628.413056,2654.74083 626.720833,2654.85639 626.720833,2658.82 C626.720833,2662.785 628.413056,2666 630.5,2666 C632.586944,2666 634.279167,2662.785 634.279167,2658.81972 C634.279167,2654.85639 632.586944,2654.74083 630.5,2654.74083 L630.5,2654.74083 Z" id="Shape" sketch:type="MSShapeGroup"></path>
        </g>
    </g>
</svg>