<?xml version="1.0" encoding="UTF-8" standalone="no"?>
<svg width="19px" height="20px" viewBox="0 0 19 20" version="1.1" xmlns="http://www.w3.org/2000/svg" xmlns:xlink="http://www.w3.org/1999/xlink" xmlns:sketch="http://www.bohemiancoding.com/sketch/ns">
    <!-- Generator: Sketch 3.5.1 (25234) - http://www.bohemiancoding.com/sketch -->
    <title>Search Icon</title>
    <desc>Created with Sketch.</desc>
    <defs></defs>
    <g id="v03-Nav-Explorations" stroke="none" stroke-width="1" fill="none" fill-rule="evenodd" sketch:type="MSPage">
        <g id="Wide-|-Nav-Default" sketch:type="MSArtboardGroup" transform="translate(-1159.000000, -32.000000)" fill="#000000">
            <g id="Compact-Navbar" sketch:type="MSLayerGroup">
                <g id="Primary-Nav" transform="translate(664.000000, 32.000000)" sketch:type="MSShapeGroup">
                    <path d="M505.680218,13.8888104 C504.679202,14.4000819 503.545387,14.6884424 502.344221,14.6884424 C498.28812,14.6884424 495,11.4003227 495,7.34422119 C495,3.28811963 498.28812,0 502.344221,0 C506.400323,0 509.688442,3.28811963 509.688442,7.34422119 C509.688442,8.86504339 509.226182,10.2778988 508.434502,11.4499461 L513.583304,16.598748 C513.583304,16.598748 514.448829,17.4642728 513.583304,18.3297974 L512.717779,19.1953222 C511.852254,20.060847 510.98673,19.1953222 510.98673,19.1953222 L505.680218,13.8888104 L505.680218,13.8888104 Z M497.448074,7.34422119 C497.448074,4.64015342 499.640153,2.44807373 502.344221,2.44807373 C505.048289,2.44807373 507.240369,4.64015342 507.240369,7.34422119 C507.240369,10.048289 505.048289,12.2403686 502.344221,12.2403686 C499.640153,12.2403686 497.448074,10.048289 497.448074,7.34422119 L497.448074,7.34422119 Z" id="Search-Icon"></path>
                </g>
            </g>
        </g>
    </g>
</svg>