<?xml version="1.0" encoding="UTF-8" standalone="no"?>
<svg width="20px" height="20px" viewBox="0 0 20 20" version="1.1" xmlns="http://www.w3.org/2000/svg" xmlns:xlink="http://www.w3.org/1999/xlink" xmlns:sketch="http://www.bohemiancoding.com/sketch/ns">
    <!-- Generator: Sketch 3.5.1 (25234) - http://www.bohemiancoding.com/sketch -->
    <title>Shape</title>
    <desc>Created with Sketch.</desc>
    <defs></defs>
    <g id="v03-Nav-Explorations" stroke="none" stroke-width="1" fill="none" fill-rule="evenodd" sketch:type="MSPage">
        <g id="Wide-|-Nav-Default" sketch:type="MSArtboardGroup" transform="translate(-1341.000000, -31.000000)" fill="#000000">
            <g id="Compact-Navbar" sketch:type="MSLayerGroup">
                <g id="Actions-Nav" transform="translate(1202.000000, 28.000000)" sketch:type="MSShapeGroup">
                    <g id="Sign-In" transform="translate(139.000000, 3.000000)">
                        <path d="M20,20 C20,20 20,18.625 19.8854167,17.90625 C19.7916667,17.3385417 19.0052083,16.5885417 15.6614583,15.359375 C12.3697917,14.1510417 12.5729167,14.7395833 12.5729167,12.515625 C12.5729167,11.0729167 13.3072917,11.9114583 13.7760417,9.171875 C13.9583333,8.09375 14.1041667,8.8125 14.5,7.08333333 C14.7083333,6.17708333 14.359375,6.109375 14.4010417,5.67708333 C14.4427083,5.24479167 14.484375,4.859375 14.5625,3.97395833 C14.65625,2.88020833 13.640625,0 10,0 C6.359375,0 5.34375,2.88020833 5.44270833,3.97916667 C5.52083333,4.859375 5.5625,5.25 5.60416667,5.68229167 C5.64583333,6.11458333 5.296875,6.18229167 5.50520833,7.08854167 C5.90104167,8.8125 6.046875,8.09375 6.22916667,9.17708333 C6.69791667,11.9166667 7.43229167,11.078125 7.43229167,12.5208333 C7.43229167,14.75 7.63541667,14.1614583 4.34375,15.3645833 C1,16.5885417 0.208333333,17.34375 0.119791667,17.9114583 C0,18.625 0,20 0,20 L10,20 L20,20 L20,20 Z" id="Shape"></path>
                    </g>
                </g>
            </g>
        </g>
    </g>
</svg>