<?xml version="1.0" encoding="UTF-8"?>
<svg width="295px" height="46px" viewBox="0 0 295 46" version="1.1" xmlns="http://www.w3.org/2000/svg" xmlns:xlink="http://www.w3.org/1999/xlink">
    <!-- Generator: Sketch 46.2 (44496) - http://www.bohemiancoding.com/sketch -->
    <title>Group 3</title>
    <desc>Created with Sketch.</desc>
    <defs>
        <path d="M0.236762252,45.3382099 L7.04524289,45.3382099 L7.04524289,0.446924848 L0.236762252,0.446924848 L0.236762252,45.3382099 Z M16.5029553,45.3387106 L23.311436,45.3387106 L23.311436,13.4402946 L23.4347027,13.4402946 L43.7368779,45.3387106 L50.1755584,45.3387106 L50.1755584,0.446924848 L43.3670778,0.446924848 L43.3670778,32.3453409 L43.2438111,32.3453409 L22.9110697,0.446924848 L16.5029553,0.446924848 L16.5029553,45.3387106 Z M81.5990454,6.88189153 L91.4265579,6.88189153 C93.2750572,6.84082953 94.8975677,7.26171506 96.2940891,8.14429774 C97.2183388,8.67810378 97.937144,9.40670395 98.4507552,10.330599 C98.9435715,11.3568987 99.1901049,12.6193049 99.1901049,14.1175673 C99.1901049,15.924045 98.5842942,17.5660244 97.3724222,19.0440061 C96.0989169,20.5630498 94.1993069,21.3429775 91.6730913,21.3840395 L81.5990454,21.3840395 L81.5990454,6.88189153 Z M74.7905647,45.3387106 L81.5990454,45.3387106 L81.5990454,27.8192566 L91.9504413,27.8192566 C96.5714392,27.7371326 100.083538,26.2591508 102.486487,23.3853114 C104.827802,20.6554393 105.998586,17.6276174 105.998586,14.3023463 C105.998586,11.8391269 105.536335,9.70440347 104.612086,7.8981761 C103.728925,6.03010535 102.578937,4.59318563 101.161871,3.58741694 C99.4777272,2.25315222 97.8141278,1.37056954 96.171073,0.939668883 C94.5277676,0.61117286 92.8233299,0.446924848 91.0570083,0.446924848 L74.7905647,0.446924848 L74.7905647,45.3387106 Z M112.190733,45.3387106 L140.872538,45.3387106 L140.872538,38.9034936 L118.999213,38.9034936 L118.999213,25.7253448 L137.668606,25.7253448 L137.668606,19.6907327 L118.999213,19.6907327 L118.999213,6.88189153 L140.872538,6.88189153 L140.872538,0.446924848 L112.190733,0.446924848 L112.190733,45.3387106 Z M154.088882,6.51258388 L164.748194,6.51258388 C166.925154,6.51258388 168.588754,6.97428104 169.738992,7.8981761 C171.197147,8.9450068 171.946769,10.6383137 171.987858,12.9783471 C171.987858,14.9285418 171.361503,16.5705212 170.108793,17.9047859 C168.835287,19.3417056 166.925154,20.0805713 164.378645,20.1216333 L154.088882,20.1216333 L154.088882,6.51258388 Z M147.280402,45.3387106 L154.088882,45.3387106 L154.088882,26.1564958 L162.776679,26.1564958 L172.049491,45.3387106 L180.152022,45.3387106 L169.738992,25.4176302 C175.448596,23.2210634 178.344611,19.0748026 178.426789,12.9783471 C178.303522,8.83208629 176.814551,5.6402667 173.959624,3.40263792 C171.597764,1.43216254 168.547915,0.446924848 164.809828,0.446924848 L147.280402,0.446924848 L147.280402,45.3387106 Z M186.313352,34.4390023 L181.846438,39.5502201 C186.631791,43.6554189 192.351667,45.7080183 199.006064,45.7080183 C209.295826,45.5848323 214.553452,41.2332615 214.779441,32.6530555 C214.779441,29.4715014 213.783285,26.6800364 211.791225,24.27841 C209.77837,21.8357215 206.666889,20.3269433 202.456529,19.7520753 C200.320407,19.4854226 198.636264,19.2493161 197.404098,19.0440061 C195.185798,18.6333861 193.57356,17.8945204 192.567383,16.8271587 C191.560956,15.780328 191.057617,14.6103113 191.057617,13.3171086 C191.098706,11.1618542 191.848328,9.54015546 193.306733,8.45226276 C194.703254,7.40543207 196.449031,6.88189153 198.543814,6.88189153 C202.590068,6.96401554 206.297088,8.11350124 209.665376,10.330599 L213.454825,4.72663714 C209.326393,1.75039306 204.469134,0.200552831 198.882797,0.0773668225 C194.241255,0.118428825 190.657251,1.32950753 188.131035,3.71060294 C185.522641,6.11222936 184.21857,9.27325244 184.21857,13.1939226 C184.21857,16.4576007 185.255564,19.2287851 187.330052,21.5072255 C189.342656,23.7240729 192.279761,25.1507271 196.140865,25.7869378 C198.297531,26.0949028 200.279319,26.3720714 202.086729,26.6184434 C206.030261,27.295716 207.981232,29.3072534 207.940143,32.6530555 C207.857966,36.7379737 204.900567,38.8213696 199.067697,38.9034936 C194.138533,38.8624316 189.887084,37.3741843 186.313352,34.4390023 Z M220.417138,22.8928177 C220.417138,28.0245666 220.571222,31.4933043 220.879138,33.2997821 C221.043493,34.2644888 221.248938,35.0649474 221.495471,35.7014085 C221.762299,36.3170882 222.060193,36.9638147 222.388904,37.6410874 C223.477259,39.7142178 225.223036,41.5412265 227.625985,43.1218632 C229.988096,44.7638426 232.935222,45.6258943 236.467865,45.7080183 C240.041597,45.6258943 243.01954,44.7638426 245.401945,43.1218632 C247.763805,41.5412265 249.468493,39.7142178 250.516009,37.6410874 C251.275903,36.5531947 251.799536,35.1060094 252.087159,33.2997821 C252.353986,31.4933043 252.487775,28.0245666 252.487775,22.8928177 C252.487775,17.6789449 252.353986,14.1894258 252.087159,12.4242604 C251.799536,10.6588447 251.275903,9.23219044 250.516009,8.14429774 C249.468493,6.07116735 247.763805,4.22387798 245.401945,2.60217924 C243.01954,0.959949506 240.041597,0.118428825 236.467865,0.0773668225 C232.935222,0.118428825 229.988096,0.959949506 227.625985,2.60217924 C225.223036,4.22387798 223.477259,6.07116735 222.388904,8.14429774 C221.711188,9.23219044 221.207849,10.6588447 220.879138,12.4242604 C220.571222,14.1894258 220.417138,17.6789449 220.417138,22.8928177 Z M227.256436,22.8928177 C227.256436,18.4794036 227.420791,15.472363 227.749252,13.8711953 C228.036874,12.3524019 228.62214,11.1105267 229.505301,10.14582 C230.224106,9.22192494 231.1689,8.45226276 232.339683,7.8365831 C233.489672,7.24118406 234.865899,6.92295354 236.467865,6.88189153 C238.090376,6.92295354 239.497169,7.24118406 240.688497,7.8365831 C241.81794,8.45226276 242.721646,9.22192494 243.399362,10.14582 C244.282773,11.1105267 244.888584,12.3524019 245.217045,13.8711953 C245.525211,15.472363 245.679295,18.4794036 245.679295,22.8928177 C245.679295,27.3059815 245.525211,30.2924911 245.217045,31.8525968 C244.888584,33.4127026 244.282773,34.6751088 243.399362,35.6398155 C242.721646,36.5634602 241.81794,37.3125913 240.688497,37.8874594 C239.497169,38.5647321 238.090376,38.9034936 236.467865,38.9034936 C234.865899,38.9034936 233.489672,38.5647321 232.339683,37.8874594 C231.1689,37.3125913 230.224106,36.5634602 229.505301,35.6398155 C228.62214,34.6751088 228.036874,33.4127026 227.749252,31.8525968 C227.420791,30.2924911 227.256436,27.3059815 227.256436,22.8928177 Z M260.435972,45.3387106 L267.244452,45.3387106 L267.244452,13.4402946 L267.367719,13.4402946 L287.669644,45.3387106 L294.108324,45.3387106 L294.108324,0.446924848 L287.300094,0.446924848 L287.300094,32.3453409 L287.176828,32.3453409 L266.843836,0.446924848 L260.435972,0.446924848 L260.435972,45.3387106 Z" id="path-1"></path>
    </defs>
    <g id="KPCC-In-Person" stroke="none" stroke-width="1" fill="none" fill-rule="evenodd">
        <g id="in-person-landing" transform="translate(-59.000000, -143.000000)">
            <g id="Group-3" transform="translate(59.000000, 143.000000)">
                <mask id="mask-2" fill="white">
                    <use xlink:href="#path-1"></use>
                </mask>
                <g id="Clip-2"></g>
                <polygon id="Fill-1" fill="#3AABD4" mask="url(#mask-2)" points="0.215466176 45.72905 294.131374 45.72905 294.131374 0.0600907359 0.215466176 0.0600907359"></polygon>
            </g>
        </g>
    </g>
</svg>