<?xml version="1.0" encoding="UTF-8"?>
<svg width="184px" height="29px" viewBox="0 0 184 29" version="1.1" xmlns="http://www.w3.org/2000/svg" xmlns:xlink="http://www.w3.org/1999/xlink">
    <!-- Generator: Sketch 46.2 (44496) - http://www.bohemiancoding.com/sketch -->
    <title>Group 3</title>
    <desc>Created with Sketch.</desc>
    <defs>
        <path d="M0.147675439,28.2787479 L4.39432099,28.2787479 L4.39432099,0.278759905 L0.147675439,0.278759905 L0.147675439,28.2787479 Z M10.2933687,28.2790602 L14.5400143,28.2790602 L14.5400143,8.38309901 L14.6168993,8.38309901 L27.2799509,28.2790602 L31.2959415,28.2790602 L31.2959415,0.278759905 L27.049296,0.278759905 L27.049296,20.1747211 L26.972411,20.1747211 L14.2902943,0.278759905 L10.2933687,0.278759905 L10.2933687,28.2790602 Z M50.8956757,4.29243404 L57.0253785,4.29243404 C58.1783408,4.26682249 59.1903473,4.52934092 60.061398,5.07983317 C60.6378791,5.41278338 61.0862186,5.8672323 61.4065728,6.44349227 C61.7139564,7.08362496 61.8677264,7.87102409 61.8677264,8.80553349 C61.8677264,9.93228571 61.4898648,10.9564355 60.7339854,11.8782953 C59.9396634,12.8257667 58.7548219,13.31223 57.1791485,13.3378416 L50.8956757,13.3378416 L50.8956757,4.29243404 Z M46.6490302,28.2790602 L50.8956757,28.2790602 L50.8956757,17.3516719 L57.3521397,17.3516719 C60.2343892,17.3004488 62.4249863,16.378589 63.9237748,14.5860925 C65.3841208,12.8833927 66.114372,10.9948529 66.114372,8.92078548 C66.114372,7.38440456 65.8260533,6.05291607 65.2495721,4.92632001 C64.6987193,3.76115046 63.9814386,2.86490222 63.0975737,2.23757531 C62.0471247,1.40535596 61.0094899,0.85486371 59.9846692,0.586098558 C58.9596923,0.381206123 57.8965854,0.278759905 56.7948798,0.278759905 L46.6490302,0.278759905 L46.6490302,28.2790602 Z M69.9765926,28.2790602 L87.8662609,28.2790602 L87.8662609,24.2652299 L74.2232381,24.2652299 L74.2232381,16.0456388 L85.8678762,16.0456388 L85.8678762,12.2816773 L74.2232381,12.2816773 L74.2232381,4.29243404 L87.8662609,4.29243404 L87.8662609,0.278759905 L69.9765926,0.278759905 L69.9765926,28.2790602 Z M96.1096757,4.06208622 L102.758196,4.06208622 C104.116029,4.06208622 105.153663,4.35006004 105.8711,4.92632001 C106.780594,5.57925848 107.248154,6.63542276 107.273783,8.09496902 C107.273783,9.31136168 106.883107,10.3355115 106.101755,11.1677309 C105.307433,12.0639791 104.116029,12.5248309 102.527697,12.5504425 L96.1096757,12.5504425 L96.1096757,4.06208622 Z M91.8630302,28.2790602 L96.1096757,28.2790602 L96.1096757,16.3145601 L101.528505,16.3145601 L107.312225,28.2790602 L112.366007,28.2790602 L105.8711,15.8537083 C109.432344,14.4836463 111.238673,11.897504 111.289929,8.09496902 C111.213044,5.5088267 110.28433,3.51799686 108.50363,2.12232331 C107.03047,0.893281042 105.128191,0.278759905 102.796638,0.278759905 L91.8630302,0.278759905 L91.8630302,28.2790602 Z M116.209006,21.480598 L113.422863,24.6686119 C116.407626,27.2291426 119.975277,28.509408 124.125816,28.509408 C130.543838,28.4325734 133.82317,25.7183733 133.964126,20.3666516 C133.964126,18.3822246 133.342795,16.6411074 132.10029,15.1431438 C130.844814,13.6195687 128.904093,12.6785002 126.277971,12.3199385 C124.94561,12.1536195 123.895161,12.0063531 123.126624,11.8782953 C121.743006,11.6221798 120.737407,11.161328 120.109826,10.4955837 C119.482088,9.84264527 119.168141,9.11287214 119.168141,8.30626434 C119.193769,6.96197008 119.66133,5.95046985 120.570979,5.27191983 C121.44203,4.61898136 122.530921,4.29243404 123.837497,4.29243404 C126.361263,4.34365715 128.673438,5.0606245 130.774336,6.44349227 L133.137925,2.94813977 C130.562902,1.09177059 127.53329,0.125090579 124.048931,0.0482559164 C121.153867,0.0738674708 118.918421,0.829252156 117.342747,2.31440997 C115.715817,3.81237356 114.90243,5.78399475 114.90243,8.22942968 C114.90243,10.2650797 115.549233,11.9935473 116.843151,13.4146763 C118.09847,14.7973879 119.930427,15.6872332 122.338709,16.0840561 C123.683884,16.2761428 124.919982,16.4490208 126.047316,16.6026901 C128.50701,17.0251246 129.723887,18.2797784 129.698259,20.3666516 C129.647002,22.9145327 127.802388,24.2140068 124.164259,24.2652299 C121.089797,24.2396183 118.438046,23.3113557 116.209006,21.480598 Z M137.48052,14.27891 C137.48052,17.4797297 137.576626,19.6432813 137.768683,20.7700336 C137.871196,21.3717489 137.999338,21.8710181 138.153107,22.2679972 C138.319535,22.6520143 138.505341,23.0553963 138.710367,23.4778308 C139.389206,24.7709019 140.478097,25.9104599 141.976886,26.8963486 C143.450202,27.9204984 145.28841,28.4581849 147.491821,28.509408 C149.720861,28.4581849 151.578289,27.9204984 153.064264,26.8963486 C154.537424,25.9104599 155.600687,24.7709019 156.254053,23.4778308 C156.728021,22.7992807 157.054626,21.8966296 157.234024,20.7700336 C157.400452,19.6432813 157.483901,17.4797297 157.483901,14.27891 C157.483901,11.0268673 157.400452,8.85035371 157.234024,7.7493692 C157.054626,6.64822854 156.728021,5.75838319 156.254053,5.07983317 C155.600687,3.78676201 154.537424,2.6345544 153.064264,1.62305417 C151.578289,0.598748167 149.720861,0.0738674708 147.491821,0.0482559164 C145.28841,0.0738674708 143.450202,0.598748167 141.976886,1.62305417 C140.478097,2.6345544 139.389206,3.78676201 138.710367,5.07983317 C138.287656,5.75838319 137.973709,6.64822854 137.768683,7.7493692 C137.576626,8.85035371 137.48052,11.0268673 137.48052,14.27891 Z M141.746387,14.27891 C141.746387,11.5261365 141.8489,9.65055861 142.053771,8.65186416 C142.233169,7.70454898 142.598216,6.92995563 143.149069,6.32824027 C143.597409,5.7519803 144.186704,5.27191983 144.916955,4.88790268 C145.634236,4.51653514 146.492629,4.31804559 147.491821,4.29243404 C148.503827,4.31804559 149.381285,4.51653514 150.124351,4.88790268 C150.828817,5.27191983 151.392484,5.7519803 151.815195,6.32824027 C152.366204,6.92995563 152.744066,7.70454898 152.948936,8.65186416 C153.141149,9.65055861 153.237255,11.5261365 153.237255,14.27891 C153.237255,17.0315275 153.141149,18.8942995 152.948936,19.8673824 C152.744066,20.8404653 152.366204,21.6278645 151.815195,22.2295798 C151.392484,22.8056836 150.828817,23.2729383 150.124351,23.6315001 C149.381285,24.0539346 148.503827,24.2652299 147.491821,24.2652299 C146.492629,24.2652299 145.634236,24.0539346 144.916955,23.6315001 C144.186704,23.2729383 143.597409,22.8056836 143.149069,22.2295798 C142.598216,21.6278645 142.233169,20.8404653 142.053771,19.8673824 C141.8489,18.8942995 141.746387,17.0315275 141.746387,14.27891 Z M162.44142,28.2790602 L166.688065,28.2790602 L166.688065,8.38309901 L166.76495,8.38309901 L179.427846,28.2790602 L183.443836,28.2790602 L183.443836,0.278759905 L179.197347,0.278759905 L179.197347,20.1747211 L179.120462,20.1747211 L166.438189,0.278759905 L162.44142,0.278759905 L162.44142,28.2790602 Z" id="path-1"></path>
    </defs>
    <g id="KPCC-In-Person" stroke="none" stroke-width="1" fill="none" fill-rule="evenodd">
        <g id="in-person-event" transform="translate(-59.000000, -106.000000)">
            <g id="Group-3" transform="translate(59.000000, 106.154237)">
                <mask id="mask-2" fill="white">
                    <use xlink:href="#path-1"></use>
                </mask>
                <g id="Clip-2"></g>
                <polygon id="Fill-1" fill="#3AABD4" mask="url(#mask-2)" points="0.134392463 28.5225261 183.458213 28.5225261 183.458213 0.0374803234 0.134392463 0.0374803234"></polygon>
            </g>
        </g>
    </g>
</svg>