<?xml version="1.0" encoding="UTF-8"?>
<svg width="2344px" height="220px" viewBox="0 0 2344 220" version="1.1" xmlns="http://www.w3.org/2000/svg" xmlns:xlink="http://www.w3.org/1999/xlink">
    <!-- Generator: Sketch 51.2 (57519) - http://www.bohemiancoding.com/sketch -->
    <title>KPCCInPerson_Horizontal_FullColor</title>
    <desc>Created with Sketch.</desc>
    <defs>
        <path d="M0.94,181.078 L0.94,1.784 L28.12,1.784 L28.12,181.078 L0.94,181.078 Z M65.87,181.079 L65.87,1.784 L91.44,1.784 L172.6,129.184 L173.09,129.184 L173.09,1.784 L200.27,1.784 L200.27,181.079 L174.57,181.079 L93.53,53.679 L93.04,53.679 L93.04,181.079 L65.87,181.079 Z M325.69,27.485 L325.69,85.406 L365.9,85.406 C375.98,85.242 383.56,82.126 388.65,76.06 C393.48,70.157 395.9,63.598 395.9,56.384 C395.9,50.399 394.92,45.357 392.95,41.258 C390.9,37.569 388.03,34.659 384.34,32.527 C378.77,29.002 372.29,27.321 364.91,27.485 L325.69,27.485 Z M298.51,181.079 L298.51,1.784 L363.44,1.784 C370.49,1.784 377.29,2.439 383.85,3.751 C390.41,5.473 397.05,8.998 403.77,14.327 C409.43,18.344 414.02,24.083 417.54,31.543 C421.23,38.758 423.08,47.284 423.08,57.122 C423.08,70.403 418.4,82.495 409.06,93.399 C399.47,104.877 385.45,110.779 367,111.107 L325.69,111.107 L325.69,181.079 L298.51,181.079 Z M447.79,181.079 L447.79,1.784 L562.27,1.784 L562.27,27.485 L474.97,27.485 L474.97,78.642 L549.48,78.642 L549.48,102.745 L474.97,102.745 L474.97,155.378 L562.27,155.378 L562.27,181.079 L447.79,181.079 Z M615.02,26.009 L615.02,80.364 L656.09,80.364 C666.26,80.2 673.88,77.249 678.96,71.51 C683.96,66.181 686.46,59.622 686.46,51.834 C686.3,42.488 683.31,35.724 677.49,31.543 C672.89,27.854 666.26,26.009 657.57,26.009 L615.02,26.009 Z M587.85,181.079 L587.85,1.784 L657.81,1.784 C672.73,1.784 684.9,5.719 694.33,13.589 C705.73,22.525 711.67,35.273 712.16,51.834 C711.83,76.183 700.27,92.743 677.49,101.515 L719.05,181.079 L686.71,181.079 L649.7,104.467 L615.02,104.467 L615.02,181.079 L587.85,181.079 Z M743.64,137.547 C757.9,149.27 774.87,155.214 794.55,155.378 C817.83,155.05 829.63,146.729 829.96,130.414 C830.12,117.051 822.34,109.017 806.6,106.311 C799.38,105.327 791.47,104.221 782.86,102.991 C767.45,100.45 755.73,94.752 747.7,85.898 C739.42,76.798 735.28,65.73 735.28,52.695 C735.28,37.036 740.48,24.411 750.89,14.819 C760.98,5.309 775.28,0.472 793.81,0.308 C816.11,0.8 835.49,6.989 851.97,18.877 L836.85,41.258 C823.4,32.404 808.61,27.813 792.46,27.485 C784.09,27.485 777.13,29.576 771.55,33.757 C765.73,38.102 762.74,44.578 762.58,53.187 C762.58,58.352 764.58,63.024 768.6,67.206 C772.62,71.469 779.05,74.42 787.91,76.06 C792.82,76.88 799.55,77.822 808.07,78.888 C824.88,81.184 837.3,87.209 845.33,96.965 C853.28,106.557 857.26,117.707 857.26,130.414 C856.36,164.683 835.37,182.063 794.3,182.555 C767.74,182.555 744.91,174.357 725.81,157.96 L743.64,137.547 Z M879.76,91.431 C879.76,70.608 880.37,56.671 881.6,49.62 C882.92,42.57 884.92,36.872 887.63,32.527 C891.97,24.247 898.94,16.868 908.53,10.392 C917.96,3.833 929.72,0.472 943.82,0.308 C958.09,0.472 969.97,3.833 979.48,10.392 C988.91,16.868 995.71,24.247 999.89,32.527 C1002.93,36.872 1005.02,42.57 1006.17,49.62 C1007.23,56.671 1007.76,70.608 1007.76,91.431 C1007.76,111.927 1007.23,125.782 1006.17,132.997 C1005.02,140.211 1002.93,145.991 999.89,150.336 C995.71,158.616 988.91,165.912 979.48,172.225 C969.97,178.784 958.09,182.227 943.82,182.555 C929.72,182.227 917.96,178.784 908.53,172.225 C898.94,165.912 891.97,158.616 887.63,150.336 C886.32,147.63 885.13,145.048 884.06,142.588 C883.08,140.047 882.26,136.85 881.6,132.997 C880.37,125.782 879.76,111.927 879.76,91.431 Z M907.06,91.431 C907.06,109.058 907.71,120.986 909.02,127.217 C910.17,133.447 912.51,138.489 916.03,142.343 C918.9,146.032 922.67,149.024 927.35,151.32 C931.94,154.025 937.43,155.378 943.82,155.378 C950.3,155.378 955.91,154.025 960.67,151.32 C965.18,149.024 968.78,146.032 971.49,142.343 C975.01,138.489 977.43,133.447 978.74,127.217 C979.97,120.986 980.59,109.058 980.59,91.431 C980.59,73.805 979.97,61.795 978.74,55.4 C977.43,49.333 975.01,44.374 971.49,40.52 C968.78,36.831 965.18,33.757 960.67,31.297 C955.91,28.92 950.3,27.649 943.82,27.485 C937.43,27.649 931.94,28.92 927.35,31.297 C922.67,33.757 918.9,36.831 916.03,40.52 C912.51,44.374 910.17,49.333 909.02,55.4 C907.71,61.795 907.06,73.805 907.06,91.431 Z M1039.49,181.079 L1039.49,1.784 L1065.06,1.784 L1146.22,129.184 L1146.71,129.184 L1146.71,1.784 L1173.89,1.784 L1173.89,181.079 L1148.19,181.079 L1067.16,53.679 L1066.66,53.679 L1066.66,181.079 L1039.49,181.079 Z" id="path-1"></path>
        <polygon id="path-3" points="0 0.156 181.365 0.156 181.365 182.184 0 182.184"></polygon>
        <path d="M-8.61431059e-09,90.7340913 C0.23204744,40.7465219 40.8191978,0.156 90.681,0.156 C140.697,0.156 181.365,40.98 181.365,91.165 C181.365,141.361 140.697,182.184 90.681,182.184 C40.8191978,182.184 0.23204744,141.594472 -8.61431062e-09,91.5960029 L-1.65436123e-24,90.7340897 L-8.61431059e-09,90.7340913 Z M91.919,48.78 C67.956,48.78 48.446,68.362 48.446,92.412 C48.446,116.491 67.956,136.054 91.919,136.054 C115.91,136.054 135.402,116.491 135.402,92.412 C135.402,68.362 115.91,48.78 91.919,48.78 Z" id="path-5"></path>
        <path d="M0.769,178.195 L0.769,3.647 L48.968,3.647 L48.968,74.463 L108.844,3.647 L165.986,3.647 L100.148,78.702 L168.222,178.195 L110.334,178.195 L66.608,113.363 L48.968,133.062 L48.968,178.195 L0.769,178.195 Z M177.166,178.195 L177.166,3.647 L251.7,3.647 C295.675,3.647 323.998,26.338 323.998,65.487 C323.998,106.63 292.446,128.324 249.216,128.324 L225.365,128.324 L225.365,178.195 L177.166,178.195 Z M225.613,90.422 L249.484,90.422 C267.387,90.422 278.284,81.445 278.284,67.731 L278.284,67.232 C278.284,52.271 267.387,44.292 249.224,44.292 L225.613,44.292 L225.613,90.422 Z M423.128,181.686 C373.439,181.686 333.439,143.534 333.439,91.419 L333.439,90.921 C333.439,40.053 372.445,0.156 425.116,0.156 C460.643,0.156 483.501,15.117 498.905,36.562 L462.631,64.739 C452.693,52.271 441.265,44.292 424.619,44.292 C400.271,44.292 383.128,64.988 383.128,90.422 L383.128,90.921 C383.128,117.103 400.271,137.55 424.619,137.55 C442.756,137.55 453.439,129.072 463.873,116.355 L500.147,142.288 C483.749,164.979 461.638,181.686 423.128,181.686 Z M589.587,181.686 C539.898,181.686 499.898,143.534 499.898,91.419 L499.898,90.921 C499.898,40.053 538.904,0.156 591.575,0.156 C627.103,0.156 649.96,15.117 665.364,36.562 L629.09,64.739 C619.152,52.271 607.724,44.292 591.078,44.292 C566.73,44.292 549.587,64.988 549.587,90.422 L549.587,90.921 C549.587,117.103 566.73,137.55 591.078,137.55 C609.215,137.55 619.898,129.072 630.332,116.355 L666.606,142.288 C650.208,164.979 628.096,181.686 589.587,181.686 Z" id="path-7"></path>
    </defs>
    <g id="Page-1" stroke="none" stroke-width="1" fill="none" fill-rule="evenodd">
        <g id="KPCCInPerson_Horizontal_FullColor" transform="translate(0.000000, -1.000000)">
            <g id="Group-3" transform="translate(1060.000000, 20.000000)">
                <mask id="mask-2" fill="white">
                    <use xlink:href="#path-1"></use>
                </mask>
                <g id="Clip-2"></g>
                <polygon id="Fill-1" fill="#469FC2" mask="url(#mask-2)" points="0.92 182.58 1173.92 182.58 1173.92 0.3 0.92 0.3"></polygon>
            </g>
            <g id="Group-6" transform="translate(0.000000, 20.000000)">
                <mask id="mask-4" fill="white">
                    <use xlink:href="#path-3"></use>
                </mask>
                <g id="Clip-5"></g>
                <path d="M-0.001,91.165 C-0.001,40.98 40.676,0.156 90.681,0.156 C140.697,0.156 181.365,40.98 181.365,91.165 C181.365,141.361 140.697,182.184 90.681,182.184 C40.676,182.184 -0.001,141.361 -0.001,91.165 Z M91.919,48.78 C67.956,48.78 48.446,68.362 48.446,92.412 C48.446,116.491 67.956,136.054 91.919,136.054 C115.91,136.054 135.402,116.491 135.402,92.412 C135.402,68.362 115.91,48.78 91.919,48.78 Z" id="Fill-4" fill="#E6762C" mask="url(#mask-4)"></path>
            </g>
            <g id="Group-9" transform="translate(0.000000, 20.000000)">
                <mask id="mask-6" fill="white">
                    <use xlink:href="#path-5"></use>
                </mask>
                <g id="Clip-8"></g>
                <polygon id="Fill-7" fill="#E6762C" mask="url(#mask-6)" points="0 182.22 181.44 182.22 181.44 0.06 0 0.06"></polygon>
            </g>
            <g id="Group-12" transform="translate(213.000000, 20.000000)">
                <mask id="mask-8" fill="white">
                    <use xlink:href="#path-7"></use>
                </mask>
                <g id="Clip-11"></g>
                <polygon id="Fill-10" fill="#0B0B09" mask="url(#mask-8)" points="0.72 181.74 666.72 181.74 666.72 0.06 0.72 0.06"></polygon>
            </g>
            <polygon id="Fill-13" fill="#0B0B09" points="968.999 220.94 972.999 220.94 972.999 0.999 968.999 0.999"></polygon>
            <path d="M2271.83,56.163 C2271.83,51.087 2272.79,46.364 2274.71,41.995 C2276.62,37.625 2279.22,33.834 2282.51,30.621 C2285.8,27.408 2289.63,24.886 2294,23.055 C2298.37,21.223 2303.01,20.308 2307.93,20.308 C2312.84,20.308 2317.47,21.223 2321.81,23.055 C2326.15,24.886 2329.95,27.408 2333.21,30.621 C2336.46,33.834 2339.05,37.625 2340.96,41.995 C2342.88,46.364 2343.83,51.087 2343.83,56.163 C2343.83,61.368 2342.88,66.171 2340.96,70.573 C2339.05,74.975 2336.46,78.798 2333.21,82.043 C2329.95,85.288 2326.15,87.81 2321.81,89.609 C2317.47,91.408 2312.84,92.308 2307.93,92.308 C2303.01,92.308 2298.37,91.408 2294,89.609 C2289.63,87.81 2285.8,85.288 2282.51,82.043 C2279.22,78.798 2276.62,74.975 2274.71,70.573 C2272.79,66.171 2271.83,61.368 2271.83,56.163 Z M2278.34,56.163 C2278.34,60.597 2279.09,64.693 2280.59,68.452 C2282.09,72.212 2284.17,75.473 2286.82,78.236 C2289.47,80.999 2292.59,83.167 2296.2,84.742 C2299.81,86.316 2303.72,87.103 2307.93,87.103 C2312.08,87.103 2315.94,86.316 2319.51,84.742 C2323.09,83.167 2326.2,80.999 2328.85,78.236 C2331.5,75.473 2333.57,72.212 2335.07,68.452 C2336.57,64.693 2337.32,60.597 2337.32,56.163 C2337.32,51.858 2336.57,47.842 2335.07,44.115 C2333.57,40.388 2331.5,37.159 2328.85,34.428 C2326.2,31.698 2323.09,29.545 2319.51,27.971 C2315.94,26.396 2312.08,25.609 2307.93,25.609 C2303.72,25.609 2299.81,26.396 2296.2,27.971 C2292.59,29.545 2289.47,31.698 2286.82,34.428 C2284.17,37.159 2282.09,40.388 2280.59,44.115 C2279.09,47.842 2278.34,51.858 2278.34,56.163 Z M2293.95,35.248 L2310.13,35.248 C2315.11,35.248 2318.8,36.244 2321.19,38.236 C2323.58,40.228 2324.78,43.248 2324.78,47.296 C2324.78,51.087 2323.73,53.866 2321.62,55.633 C2320.43,56.629 2319.08,57.395 2317.57,57.932 C2315.78,58.57 2315.01,60.697 2316.05,62.307 L2322.81,72.823 C2324.07,74.782 2322.68,77.368 2320.36,77.368 C2319.36,77.368 2318.42,76.851 2317.89,75.999 L2308.22,60.617 C2307.68,59.765 2306.75,59.248 2305.74,59.248 L2303.39,59.248 C2301.77,59.248 2300.46,60.566 2300.46,62.192 L2300.46,74.424 C2300.46,76.05 2299.15,77.368 2297.54,77.368 L2296.88,77.368 C2295.26,77.368 2293.95,76.05 2293.95,74.424 L2293.95,35.248 Z M2300.46,53.947 L2307.26,53.947 C2308.73,53.947 2310.12,53.898 2311.42,53.802 C2312.73,53.706 2313.9,53.432 2314.92,52.982 C2315.94,52.533 2316.75,51.842 2317.36,50.911 C2317.97,49.979 2318.27,48.677 2318.27,47.007 C2318.27,45.593 2318,44.469 2317.46,43.633 C2316.91,42.798 2316.21,42.155 2315.35,41.706 C2314.49,41.256 2313.5,40.951 2312.38,40.79 C2311.26,40.629 2310.16,40.549 2309.08,40.549 L2303.39,40.549 C2301.77,40.549 2300.46,41.867 2300.46,43.493 L2300.46,53.947 Z" id="Fill-15" fill="#0B0B09"></path>
        </g>
    </g>
</svg>