<?xml version="1.0" encoding="UTF-8" standalone="no"?>
<svg
   xmlns:dc="http://purl.org/dc/elements/1.1/"
   xmlns:cc="http://creativecommons.org/ns#"
   xmlns:rdf="http://www.w3.org/1999/02/22-rdf-syntax-ns#"
   xmlns:svg="http://www.w3.org/2000/svg"
   xmlns="http://www.w3.org/2000/svg"
   viewBox="0 0 2978.6667 293.33334"
   height="293.33334"
   width="2978.6667"
   xml:space="preserve"
   id="svg2"
   version="1.1"><metadata
     id="metadata8"><rdf:RDF><cc:Work
         rdf:about=""><dc:format>image/svg+xml</dc:format><dc:type
           rdf:resource="http://purl.org/dc/dcmitype/StillImage" /></cc:Work></rdf:RDF></metadata><defs
     id="defs6"><clipPath
       id="clipPath20"
       clipPathUnits="userSpaceOnUse"><path
         style="clip-rule:evenodd"
         id="path18"
         d="m 10609.4,199.207 h 271.8 V 1992.15 h -271.8 z m 649.3,-0.012 h 271.7 V 1473.2 h 5 l 810.3,-1274.005 h 257 V 1992.15 h -271.8 V 718.145 h -4.9 l -811.5,1274.005 h -255.8 z m 2598.2,1535.945 h 392.3 c 73.7,1.63 138.5,-15.17 194.2,-50.43 36.9,-21.31 65.6,-50.41 86.1,-87.3 19.7,-41 29.5,-91.41 29.5,-151.26 0,-72.15 -24.2,-137.73 -72.5,-196.76 -50.9,-60.67 -126.7,-91.82 -227.5,-93.46 h -402.1 z M 13585.2,199.195 h 271.7 v 699.719 h 413.2 c 184.4,3.281 324.6,62.305 420.5,177.086 93.4,109.04 140.2,229.96 140.2,362.77 0,98.38 -18.5,183.64 -55.4,255.78 -35.2,74.61 -81.1,132 -137.7,172.17 -67.2,53.29 -133.6,88.54 -199.2,105.76 -65.6,13.11 -133.6,19.67 -204.1,19.67 h -649.2 z m 1492.7,0 h 1144.8 v 257.012 h -873 v 526.328 h 745.1 v 241.035 h -745.1 v 511.57 h 873 v 257.01 h -1144.8 z m 1672.3,1550.695 h 425.5 c 86.9,0 153.3,-18.44 199.2,-55.34 58.2,-41.81 88.1,-109.44 89.7,-202.9 0,-77.88 -25,-143.47 -75,-196.76 -50.8,-57.39 -127,-86.9 -228.7,-88.54 h -410.7 z M 16478.5,199.195 h 271.7 V 965.32 h 346.8 l 370.1,-766.125 h 323.4 l -415.6,795.637 c 227.9,87.718 343.4,253.328 346.7,496.818 -4.9,165.6 -64.3,293.08 -178.3,382.45 -94.2,78.7 -216,118.05 -365.2,118.05 h -699.6 z m 1557.9,435.325 -178.3,-204.137 c 191,-163.965 419.3,-245.945 684.9,-245.945 410.7,4.917 620.6,178.718 629.6,521.406 0,127.074 -39.8,238.57 -119.3,334.486 -80.3,97.56 -204.5,157.82 -372.6,180.78 -85.2,10.65 -152.4,20.08 -201.6,28.28 -88.6,16.4 -152.9,45.91 -193.1,88.54 -40.1,41.81 -60.2,88.54 -60.2,140.19 1.6,86.08 31.5,150.85 89.7,194.3 55.8,41.81 125.5,62.72 209.1,62.72 161.5,-3.28 309.4,-49.19 443.9,-137.73 l 151.2,223.81 c -164.8,118.87 -358.6,180.77 -581.6,185.69 -185.3,-1.64 -328.3,-50.01 -429.1,-145.11 -104.1,-95.92 -156.2,-222.17 -156.2,-378.76 0,-130.35 41.4,-241.03 124.2,-332.03 80.3,-88.54 197.6,-145.52 351.7,-170.932 86,-12.297 165.1,-23.367 237.3,-33.203 157.4,-27.055 235.3,-107.398 233.6,-241.031 -3.3,-163.145 -121.3,-246.356 -354.1,-249.637 -196.8,1.641 -366.4,61.078 -509.1,178.313 z m 1361.2,461.15 c 0,-204.955 6.2,-343.506 18.5,-415.65 6.5,-38.532 14.7,-70.504 24.5,-95.918 10.7,-24.594 22.6,-50.418 35.7,-77.473 43.5,-82.805 113.1,-155.766 209,-218.895 94.3,-65.586 212,-100.019 353,-103.296 142.6,3.277 261.5,37.71 356.5,103.296 94.3,63.129 162.4,136.09 204.2,218.895 30.3,43.449 51.2,101.246 62.7,173.391 10.6,72.144 16,210.695 16,415.65 0,208.24 -5.4,347.61 -16,418.11 -11.5,70.51 -32.4,127.49 -62.7,170.93 -41.8,82.81 -109.9,156.59 -204.2,221.36 -95,65.59 -213.9,99.2 -356.5,100.84 -141,-1.64 -258.7,-35.25 -353,-100.84 -95.9,-64.77 -165.5,-138.55 -209,-221.36 -27,-43.44 -47.1,-100.42 -60.2,-170.93 -12.3,-70.5 -18.5,-209.87 -18.5,-418.11 z m 273,0 c 0,176.26 6.5,296.37 19.7,360.31 11.4,60.67 34.8,110.27 70.1,148.81 28.6,36.89 66.4,67.63 113.1,92.22 45.9,23.78 100.8,36.49 164.8,38.13 64.7,-1.64 120.9,-14.35 168.4,-38.13 45.1,-24.59 81.2,-55.33 108.2,-92.22 35.3,-38.54 59.4,-88.14 72.6,-148.81 12.3,-63.94 18.4,-184.05 18.4,-360.31 0,-176.26 -6.1,-295.545 -18.4,-357.85 -13.2,-62.308 -37.3,-112.726 -72.6,-151.257 -27,-36.895 -63.1,-66.817 -108.2,-89.774 -47.5,-27.055 -103.7,-40.582 -168.4,-40.582 -64,0 -118.9,13.527 -164.8,40.582 -46.7,22.957 -84.5,52.879 -113.1,89.774 -35.3,38.531 -58.7,88.949 -70.1,151.257 -13.2,62.305 -19.7,181.59 -19.7,357.85 z m 1324.3,-896.475 h 271.7 V 1473.2 h 5 l 810.3,-1274.005 h 257 V 1992.15 h -271.8 V 718.145 h -4.9 l -811.5,1274.005 h -255.8 z" /></clipPath><clipPath
       id="clipPath26"
       clipPathUnits="userSpaceOnUse"><path
         id="path24"
         d="M 0,0 H 22340 V 2200 H 0 Z" /></clipPath><clipPath
       id="clipPath38"
       clipPathUnits="userSpaceOnUse"><path
         style="clip-rule:evenodd"
         id="path36"
         d="m 0,1098.34 c 0,501.85 406.773,910.09 906.828,910.09 500.152,0 906.832,-408.24 906.832,-910.09 0,-501.961 -406.68,-910.195 -906.832,-910.195 C 406.773,188.145 0,596.379 0,1098.34 Z m 919.203,423.85 c -239.625,0 -434.734,-195.82 -434.734,-436.33 0,-240.782 195.109,-436.411 434.734,-436.411 239.907,0 434.827,195.629 434.827,436.411 0,240.51 -194.92,436.33 -434.827,436.33 z" /></clipPath><clipPath
       id="clipPath44"
       clipPathUnits="userSpaceOnUse"><path
         id="path42"
         d="M 0,0 H 22340 V 2200 H 0 Z" /></clipPath><clipPath
       id="clipPath54"
       clipPathUnits="userSpaceOnUse"><path
         style="clip-rule:evenodd"
         id="path52"
         d="m 2137.71,228.039 h 481.98 v 451.332 l 176.4,196.988 437.27,-648.32 h 578.87 l -680.74,994.921 658.39,750.56 h -571.43 l -598.76,-708.17 v 708.17 h -481.98 z m 1763.97,0 h 481.98 v 498.707 h 238.51 c 432.3,0 747.83,216.938 747.83,628.374 0,391.49 -283.23,618.4 -722.98,618.4 h -745.34 z m 484.47,877.731 v 461.3 h 236.11 c 181.62,0 290.59,-79.79 290.59,-229.41 v -4.98 c 0,-137.15 -108.97,-226.91 -288,-226.91 z M 6361.3,193.129 c 385.09,0 606.2,167.066 770.18,393.98 L 6768.75,846.438 C 6664.4,719.266 6557.57,634.484 6376.2,634.484 c -243.47,0 -414.9,204.473 -414.9,466.296 v 4.99 c 0,254.34 171.43,461.3 414.9,461.3 166.46,0 280.75,-79.79 380.12,-204.47 l 362.74,281.77 c -154.04,214.44 -382.61,364.06 -737.89,364.06 -526.71,0 -916.77,-398.97 -916.77,-907.65 v -4.99 c 0,-521.149 400,-902.661 896.9,-902.661 z m 1664.59,0 c 385.09,0 606.21,167.066 770.18,393.98 L 8433.34,846.438 C 8328.99,719.266 8222.16,634.484 8040.79,634.484 c -243.47,0 -414.9,204.473 -414.9,466.296 v 4.99 c 0,254.34 171.43,461.3 414.9,461.3 166.46,0 280.75,-79.79 380.13,-204.47 l 362.73,281.77 c -154.04,214.44 -382.61,364.06 -737.89,364.06 -526.71,0 -916.76,-398.97 -916.76,-907.65 v -4.99 c 0,-521.149 399.99,-902.661 896.89,-902.661 z" /></clipPath><clipPath
       id="clipPath60"
       clipPathUnits="userSpaceOnUse"><path
         id="path58"
         d="M 0,0 H 22340 V 2200 H 0 Z" /></clipPath><clipPath
       id="clipPath70"
       clipPathUnits="userSpaceOnUse"><path
         id="path68"
         d="m 9690,0 v 2200 h 40 V 0 Z" /></clipPath></defs><g
     transform="matrix(1.3333333,0,0,-1.3333333,0,293.33333)"
     id="g10"><g
       transform="scale(0.1)"
       id="g12"><g
         id="g14"><g
           clip-path="url(#clipPath20)"
           id="g16"><g
             clip-path="url(#clipPath26)"
             id="g22"><g
               transform="scale(1.37049)"
               id="g28"><path
                 id="path30"
                 style="fill:#3ea9d5;fill-opacity:1;fill-rule:nonzero;stroke:none"
                 d="M 7704.87,1500.85 H 16336.4 V 98.0944 H 7704.87" /></g></g></g></g><g
         id="g32"><g
           clip-path="url(#clipPath38)"
           id="g34"><g
             clip-path="url(#clipPath44)"
             id="g40"><path
               id="path46"
               style="fill:#f87e18;fill-opacity:1;fill-rule:nonzero;stroke:none"
               d="m 0,138.145 h 1863.66 v 1920.28 H 0 Z" /></g></g></g><g
         id="g48"><g
           clip-path="url(#clipPath54)"
           id="g50"><g
             clip-path="url(#clipPath60)"
             id="g56"><path
               id="path62"
               style="fill:#000000;fill-opacity:1;fill-rule:nonzero;stroke:none"
               d="m 2087.71,143.129 h 6758.36 v 1915.3 H 2087.71 Z" /></g></g></g><g
         id="g64"><g
           clip-path="url(#clipPath70)"
           id="g66"><path
             id="path72"
             style="fill:#000000;fill-opacity:1;fill-rule:nonzero;stroke:none"
             d="m 9640,0 h 140 v 2250 h -140 z" /></g></g></g></g></svg>