<?xml version="1.0" encoding="UTF-8" standalone="no"?>
<!-- Created with Inkscape (http://www.inkscape.org/) -->

<svg
   xmlns:dc="http://purl.org/dc/elements/1.1/"
   xmlns:cc="http://creativecommons.org/ns#"
   xmlns:rdf="http://www.w3.org/1999/02/22-rdf-syntax-ns#"
   xmlns:svg="http://www.w3.org/2000/svg"
   xmlns="http://www.w3.org/2000/svg"
   xmlns:sodipodi="http://sodipodi.sourceforge.net/DTD/sodipodi-0.dtd"
   xmlns:inkscape="http://www.inkscape.org/namespaces/inkscape"
   width="3.5483944mm"
   height="6.5631881mm"
   viewBox="0 0 12.573051 23.255391"
   id="svg6751"
   version="1.1"
   inkscape:version="0.91 r13725"
   sodipodi:docname="facebook.svg">
  <defs
     id="defs6753" />
  <sodipodi:namedview
     id="base"
     pagecolor="#ffffff"
     bordercolor="#666666"
     borderopacity="1.0"
     inkscape:pageopacity="0.0"
     inkscape:pageshadow="2"
     inkscape:zoom="22.4"
     inkscape:cx="7.0347687"
     inkscape:cy="6.8118549"
     inkscape:document-units="px"
     inkscape:current-layer="layer1"
     showgrid="false"
     fit-margin-top="0"
     fit-margin-left="0"
     fit-margin-right="0"
     fit-margin-bottom="0"
     inkscape:window-width="1920"
     inkscape:window-height="1035"
     inkscape:window-x="0"
     inkscape:window-y="0"
     inkscape:window-maximized="0" />
  <metadata
     id="metadata6756">
    <rdf:RDF>
      <cc:Work
         rdf:about="">
        <dc:format>image/svg+xml</dc:format>
        <dc:type
           rdf:resource="http://purl.org/dc/dcmitype/StillImage" />
        <dc:title></dc:title>
      </cc:Work>
    </rdf:RDF>
  </metadata>
  <g
     inkscape:label="Layer 1"
     inkscape:groupmode="layer"
     id="layer1"
     transform="translate(-462.50771,-575.86283)">
    <g
       id="g6890"
       transform="matrix(0.24193367,0,0,0.24193367,457.16654,575.86283)"
       style="fill:#1aadd2;fill-opacity:1">
      <g
         id="g6850"
         style="fill:#1aadd2;fill-opacity:1">
        <path
           id="path6852"
           d="M 72.089,0.02 59.624,0 C 45.62,0 36.57,9.285 36.57,23.656 l 0,10.907 -12.533,0 c -1.083,0 -1.96,0.878 -1.96,1.961 l 0,15.803 c 0,1.083 0.878,1.96 1.96,1.96 l 12.533,0 0,39.876 c 0,1.083 0.877,1.96 1.96,1.96 l 16.352,0 c 1.083,0 1.96,-0.878 1.96,-1.96 l 0,-39.876 14.654,0 c 1.083,0 1.96,-0.877 1.96,-1.96 l 0.006,-15.803 c 0,-0.52 -0.207,-1.018 -0.574,-1.386 -0.367,-0.368 -0.867,-0.575 -1.387,-0.575 l -14.659,0 0,-9.246 c 0,-4.444 1.059,-6.7 6.848,-6.7 l 8.397,-0.003 c 1.082,0 1.959,-0.878 1.959,-1.96 l 0,-14.674 c 0,-1.081 -0.876,-1.958 -1.957,-1.96 z"
           inkscape:connector-curvature="0"
           style="fill:#1aadd2;fill-opacity:1" />
      </g>
      <g
         id="g6854"
         style="fill:#1aadd2;fill-opacity:1" />
      <g
         id="g6856"
         style="fill:#1aadd2;fill-opacity:1" />
      <g
         id="g6858"
         style="fill:#1aadd2;fill-opacity:1" />
      <g
         id="g6860"
         style="fill:#1aadd2;fill-opacity:1" />
      <g
         id="g6862"
         style="fill:#1aadd2;fill-opacity:1" />
      <g
         id="g6864"
         style="fill:#1aadd2;fill-opacity:1" />
      <g
         id="g6866"
         style="fill:#1aadd2;fill-opacity:1" />
      <g
         id="g6868"
         style="fill:#1aadd2;fill-opacity:1" />
      <g
         id="g6870"
         style="fill:#1aadd2;fill-opacity:1" />
      <g
         id="g6872"
         style="fill:#1aadd2;fill-opacity:1" />
      <g
         id="g6874"
         style="fill:#1aadd2;fill-opacity:1" />
      <g
         id="g6876"
         style="fill:#1aadd2;fill-opacity:1" />
      <g
         id="g6878"
         style="fill:#1aadd2;fill-opacity:1" />
      <g
         id="g6880"
         style="fill:#1aadd2;fill-opacity:1" />
      <g
         id="g6882"
         style="fill:#1aadd2;fill-opacity:1" />
    </g>
  </g>
</svg>
