<?xml version="1.0" encoding="UTF-8" standalone="no"?>
<svg
   xmlns:dc="http://purl.org/dc/elements/1.1/"
   xmlns:cc="http://creativecommons.org/ns#"
   xmlns:rdf="http://www.w3.org/1999/02/22-rdf-syntax-ns#"
   xmlns:svg="http://www.w3.org/2000/svg"
   xmlns="http://www.w3.org/2000/svg"
   xmlns:sodipodi="http://sodipodi.sourceforge.net/DTD/sodipodi-0.dtd"
   xmlns:inkscape="http://www.inkscape.org/namespaces/inkscape"
   width="82px"
   height="82px"
   viewBox="0 0 82 82"
   version="1.1"
   id="listen-live-play"
   inkscape:version="0.91 r13725"
   sodipodi:docname="listen-live-play.svg">
  <metadata
     id="metadata32">
    <rdf:RDF>
      <cc:Work
         rdf:about="">
        <dc:format>image/svg+xml</dc:format>
        <dc:type
           rdf:resource="http://purl.org/dc/dcmitype/StillImage" />
        <dc:title>Group 33</dc:title>
      </cc:Work>
    </rdf:RDF>
  </metadata>
  <sodipodi:namedview
     pagecolor="#ffffff"
     bordercolor="#666666"
     borderopacity="1"
     objecttolerance="10"
     gridtolerance="10"
     guidetolerance="10"
     inkscape:pageopacity="0"
     inkscape:pageshadow="2"
     inkscape:window-width="1440"
     inkscape:window-height="855"
     id="namedview30"
     showgrid="false"
     inkscape:zoom="5.5813043"
     inkscape:cx="12.47526"
     inkscape:cy="49.255509"
     inkscape:window-x="0"
     inkscape:window-y="0"
     inkscape:window-maximized="0"
     inkscape:current-layer="Group-32" />
  <!-- Generator: Sketch 40.1 (33804) - http://www.bohemiancoding.com/sketch -->
  <title
     id="title4">Group 33</title>
  <desc
     id="desc6">Created with Sketch.</desc>
  <defs
     id="defs8" />
  <g
     id="Homepage"
     stroke="none"
     stroke-width="1"
     fill="none"
     fill-rule="evenodd">
    <g
       id="Homepage---Top-Races"
       transform="translate(-109.000000, -292.000000)">
      <g
         id="Group-33"
         transform="translate(109.000000, 292.000000)">
        <g
           id="Group-32"
           fill="#31ABD4">
          <g
             id="outer-ring">
            <path
               id="Shape"
               d="m 4.361168,33.303 c 0.18744,-0.918 -0.40896,-1.819 -1.32912,-2.0026 -0.926976,-0.187 -1.82328,0.408 -2.007312,1.326 -1.717632,8.4116 -0.814512,17.5712 3.25464,25.9454 0.405552,0.8432 1.421136,1.2002 2.276544,0.7888 0.845184,-0.4114 1.199616,-1.428 0.787248,-2.2712 -3.6636,-7.5344 -4.58376,-15.912 -2.982,-23.7864 l 0,0 z"
               inkscape:connector-curvature="0" />
            <path
               id="path16"
               d="M 4.998464,25.449 C 5.836832,25.8536 6.86264,25.5068 7.2716,24.6534 10.809104,17.2958 16.766288,11.1996 24.049184,7.4868 24.887552,7.0584 25.218128,6.035 24.792128,5.1986 24.36272,4.3622 23.336912,4.0324 22.498544,4.4574 14.554496,8.5068 8.05544,15.1572 4.200992,23.1812 c -0.40896,0.8432 -0.05112,1.8632 0.797472,2.2678 l 0,0 z"
               inkscape:connector-curvature="0" />
            <path
               id="path18"
               d="m 77.44232,31.5928 c 0.231744,0.9078 1.151904,1.4586 2.068656,1.2308 0.913344,-0.2312 1.46544,-1.156 1.233696,-2.0672 C 78.560144,22.1544 73.495856,14.3582 66.482192,8.8128 65.746064,8.2246 64.672544,8.3504 64.089776,9.0882 63.5036,9.826 63.629696,10.8902 64.365824,11.475 70.79672,16.5614 75.438416,23.7048 77.44232,31.5928 l 0,0 z"
               inkscape:connector-curvature="0" />
            <path
               id="path20"
               d="m 32.640752,4.3554 c 7.971312,-1.836 16.470864,-1.0064 23.913936,2.3596 0.228336,0.102 0.466896,0.1496 0.702048,0.1496 0.64752,0 1.267776,-0.3672 1.554048,-0.9962 C 59.199296,5.015 58.821008,4.0052 57.962192,3.6176 49.844336,-0.051 40.577984,-0.9554 31.87736,1.0404 c -0.916752,0.2108 -1.489296,1.1254 -1.278,2.04 0.211296,0.9146 1.117824,1.4858 2.041392,1.275 l 0,0 z"
               inkscape:connector-curvature="0" />
            <path
               id="path22"
               d="m 64.488512,70.0298 c -6.478608,5.1646 -14.286336,7.9866 -22.584816,8.16 -0.940608,0.017 -1.690368,0.7956 -1.66992,1.734 0.02045,0.9316 0.777024,1.666 1.704,1.666 l 0.03408,0 c 9.055056,-0.1904 17.578464,-3.2708 24.643248,-8.9046 0.736128,-0.5848 0.855408,-1.6558 0.269232,-2.3902 -0.586176,-0.731 -1.663104,-0.8534 -2.395824,-0.2652 l 0,0 z"
               inkscape:connector-curvature="0" />
            <path
               id="path24"
               d="M 32.794112,77.2786 C 24.843248,75.4834 17.56376,71.0362 12.305216,64.753 11.702,64.0322 10.62848,63.9336 9.905984,64.5388 c -0.722496,0.6018 -0.81792,1.6728 -0.214704,2.3936 5.735664,6.851 13.672896,11.7028 22.353072,13.6646 0.875856,0.2074 1.82328,-0.34 2.037984,-1.2852 0.20448,-0.9146 -0.371472,-1.8224 -1.288224,-2.0332 l 0,0 z"
               inkscape:connector-curvature="0" />
            <path
               id="path26"
               d="m 81.992,40.6402 c 0,-0.9384 -0.763392,-1.6218 -1.704,-1.6218 -0.940608,0 -1.704,0.8398 -1.704,1.7782 0,8.2892 -2.661648,16.1398 -7.695264,22.7086 -0.572544,0.7446 -0.429408,1.8088 0.316944,2.38 0.763392,0.5848 1.826688,0.4216 2.389008,-0.3162 5.715216,-7.4528 8.530224,-16.4662 8.397312,-24.9288 l 0,0 z"
               inkscape:connector-curvature="0" />
          </g>
          <g
             id="play-button">
            <polygon
               points="29.539374,57.062548 59.608491,42.669346 58.013323,36.516373 29.77846,24.918827 "
               id="Path-3"
               style="fill:#ffffff" />
            <path
               id="path28"
               d="M 41.096,13.6 C 26.063312,13.6 13.832,25.8026 13.832,40.8 13.832,55.7974 26.063312,68 41.096,68 56.128688,68 68.36,55.7974 68.36,40.8 68.36,25.8026 56.128688,13.6 41.096,13.6 l 0,0 z m 14.334048,28.696 -22.046352,11.9 C 32.245424,54.8046 30.872,53.9852 30.872,52.7 l 0,-23.8 c 0,-1.2784 1.376832,-2.108 2.515104,-1.496 l 22.046352,11.9 c 1.185984,0.6392 1.189392,2.346 -0.0034,2.992 l 0,0 z"
               inkscape:connector-curvature="0" />
          </g>
        </g>
      </g>
    </g>
  </g>
</svg>
