<?xml version="1.0" encoding="UTF-8"?>
<svg xmlns="http://www.w3.org/2000/svg" xmlns:xlink="http://www.w3.org/1999/xlink">
  <symbol width="22px" height="22px" viewBox="0 0 22 22" id="icon_line-close">
      <!-- Generator: Sketch 47.1 (45422) - http://www.bohemiancoding.com/sketch -->
      <title>Group 9</title>
      <desc>Created with Sketch.</desc>
      <defs></defs>
      <g id="Posts" stroke="none" stroke-width="1" fill="none" fill-rule="evenodd">
          <g id="player-no-timeshifting" transform="translate(-1361.000000, -1033.000000)" fill-rule="nonzero" fill="#898989">
              <g id="Group-9" transform="translate(1362.000000, 1034.000000)">
                  <g id="Group-16" transform="translate(-1.111111, -1.111111)">
                      <path d="M19.9087702,0.742103576 L0.742103576,19.9087702 C0.308187697,20.3426861 0.308187697,21.0462028 0.742103576,21.4801186 C1.17601946,21.9140345 1.8795361,21.9140345 2.31345198,21.4801186 L21.4801186,2.31345198 C21.9140345,1.8795361 21.9140345,1.17601946 21.4801186,0.742103576 C21.0462028,0.308187697 20.3426861,0.308187697 19.9087702,0.742103576 Z" id="Shape"></path>
                      <path d="M21.4801186,19.9087702 L2.31345198,0.742103576 C1.8795361,0.308187697 1.17601946,0.308187697 0.742103576,0.742103576 C0.308187697,1.17601946 0.308187697,1.8795361 0.742103576,2.31345198 L19.9087702,21.4801186 C20.3426861,21.9140345 21.0462028,21.9140345 21.4801186,21.4801186 C21.9140345,21.0462028 21.9140345,20.3426861 21.4801186,19.9087702 Z" id="Shape"></path>
                  </g>
              </g>
          </g>
      </g>
  </symbol>
  <symbol width="20px" height="20px" viewBox="0 0 20 20" version="1.1" id="icon_line-download">
      <!-- Generator: Sketch 47.1 (45422) - http://www.bohemiancoding.com/sketch -->
      <title>Group 13</title>
      <desc>Created with Sketch.</desc>
      <defs></defs>
      <g id="Posts" stroke="none" stroke-width="1" fill="none" fill-rule="evenodd">
          <g id="player-no-timeshifting" transform="translate(-1263.000000, -1034.000000)" fill-rule="nonzero" fill="#898989">
              <g id="Group-13" transform="translate(1263.000000, 1034.000000)">
                  <path d="M18,14.9744 L18,16.5048 C18,17.3301722 17.3301722,18 16.5048,18 L3.4952,18 C2.66934719,18 2,17.3304916 2,16.5048 L2,14.9744 C2,14.5325722 1.6418278,14.1744 1.2,14.1744 C0.7581722,14.1744 0.4,14.5325722 0.4,14.9744 L0.4,16.5048 C0.4,18.214061 1.78560534,19.6 3.4952,19.6 L16.5048,19.6 C18.2138278,19.6 19.6,18.2138278 19.6,16.5048 L19.6,14.9744 C19.6,14.5325722 19.2418278,14.1744 18.8,14.1744 C18.3581722,14.1744 18,14.5325722 18,14.9744 Z" id="Shape"></path>
                  <path d="M10.8,14.8864 L10.8,1.2 C10.8,0.7581722 10.4418278,0.4 10,0.4 C9.5581722,0.4 9.2,0.7581722 9.2,1.2 L9.2,14.8864 C9.2,15.3282278 9.5581722,15.6864 10,15.6864 C10.4418278,15.6864 10.8,15.3282278 10.8,14.8864 Z" id="Shape"></path>
                  <path d="M4.96568542,8.72071458 C4.65326599,8.40829514 4.14673401,8.40829514 3.83431458,8.72071458 C3.52189514,9.03313401 3.52189514,9.53966599 3.83431458,9.85208542 L9.43431458,15.4520854 C9.74673401,15.7645049 10.253266,15.7645049 10.5656854,15.4520854 L16.1656854,9.85208542 C16.4781049,9.53966599 16.4781049,9.03313401 16.1656854,8.72071458 C15.853266,8.40829514 15.346734,8.40829514 15.0343146,8.72071458 L10,13.7550292 L4.96568542,8.72071458 Z" id="Shape"></path>
              </g>
          </g>
      </g>
  </symbol>
  <symbol width="54px" height="55px" viewBox="0 0 54 55" version="1.1" id="icon_line-audio-bar--play">
      <!-- Generator: Sketch 47.1 (45422) - http://www.bohemiancoding.com/sketch -->
      <title>Pause</title>
      <desc>Created with Sketch.</desc>
      <defs></defs>
      <g id="Posts" stroke="none" stroke-width="1" fill="none" fill-rule="evenodd">
          <g id="player-no-timeshifting" transform="translate(-57.000000, -1015.000000)" fill="#31ABD4">
              <path d="M84,1015 C98.887125,1015 111,1027.12632 111,1042.02997 C111,1056.93362 98.887125,1069.05995 84,1069.05995 C69.112875,1069.05995 57,1056.93362 57,1042.02997 C57,1027.12632 69.112875,1015 84,1015 Z M98.19525,1043.51662 C99.3765,1042.87466 99.373125,1041.17853 98.198625,1040.54332 L76.36575,1028.71771 C75.2385,1028.10954 73.875,1028.93395 73.875,1030.20436 L73.875,1053.85559 C73.875,1055.13275 75.235125,1055.94703 76.362375,1055.34223 L98.19525,1043.51662 Z" id="Pause"></path>
          </g>
      </g>
  </symbol>
  <symbol width="54px" height="55px" viewBox="0 0 54 55" id="icon_line-audio-bar--pause">
      <!-- Generator: Sketch 47.1 (45422) - http://www.bohemiancoding.com/sketch -->
      <title>Combined Shape</title>
      <desc>Created with Sketch.</desc>
      <defs></defs>
      <g id="Posts" stroke="none" stroke-width="1" fill="none" fill-rule="evenodd">
          <g id="player" transform="translate(-107.000000, -1015.000000)" fill="#31ABD4">
              <path d="M134.000028,1015 C148.887168,1015 161.000056,1027.12633 161.000056,1042.03 C161.000056,1056.93367 148.887168,1069.06 134.000028,1069.06 C119.112887,1069.06 107,1056.93367 107,1042.03 C107,1027.12633 119.112887,1015 134.000028,1015 Z M120.472274,1029.79896 L120.472274,1054.58059 C120.472274,1055.34056 121.08842,1055.95735 121.847599,1055.95735 L130.099549,1055.95735 C130.858729,1055.95735 131.474874,1055.34056 131.474874,1054.58059 L131.474874,1029.79896 C131.474874,1029.03899 130.858729,1028.4222 130.099549,1028.4222 L121.847599,1028.4222 C121.08842,1028.4222 120.472274,1029.03899 120.472274,1029.79896 Z M136.976174,1054.58059 C136.976174,1055.34056 137.59232,1055.95735 138.351499,1055.95735 L146.603449,1055.95735 C147.362628,1055.95735 147.978774,1055.34056 147.978774,1054.58059 L147.978774,1029.79896 C147.978774,1029.03899 147.362628,1028.4222 146.603449,1028.4222 L138.351499,1028.4222 C137.59232,1028.4222 136.976174,1029.03899 136.976174,1029.79896 L136.976174,1054.58059 Z" id="Combined-Shape"></path>
          </g>
      </g>
  </symbol>
   <symbol width="12px" height="13px" viewBox="0 0 12 13" id="icon_line-volume--unmute">
      <!-- Generator: Sketch 46.2 (44496) - http://www.bohemiancoding.com/sketch -->
      <title>Group 12</title>
      <desc>Created with Sketch.</desc>
      <defs></defs>
      <g id="Listen-Live" stroke="none" stroke-width="1" fill="none" fill-rule="evenodd">
          <g id="Listen-Live-with-ad" transform="translate(-27.000000, -182.000000)" fill="#898989">
              <g id="Group-13" transform="translate(27.000000, 72.000000)">
                  <g id="Group-12" transform="translate(0.000000, 110.000000)">
                      <g id="Group-11">
                          <path d="M6.94057143,0.677181818 L3.02457143,4.72727273 L1.14285714,4.72727273 C0.513142857,4.72727273 0,5.25790909 0,5.90909091 L0,7.68181818 C0,8.33418182 0.512571429,8.86363636 1.14285714,8.86363636 L3.02457143,8.86363636 L6.94057143,12.9137273 C7.12,13.0980909 7.42857143,12.9669091 7.42857143,12.7045455 L7.42857143,0.886363636 C7.42857143,0.625181818 7.12057143,0.490454545 6.94057143,0.677181818 Z" id="Shape"></path>
                          <path d="M10.1817143,3.02190909 C10.06,2.9185 9.88,2.93622727 9.77942857,3.0615 C9.67885714,3.18736364 9.696,3.3735 9.81771429,3.4775 C11.9417143,5.28981818 11.9491429,8.2875 9.81771429,10.1128182 C9.696,10.2168182 9.67942857,10.4029545 9.78,10.5288182 C9.88,10.6540909 10.0611429,10.6712273 10.1822857,10.5678182 C12.5937143,8.50495455 12.576,5.06527273 10.1817143,3.02190909 Z" id="Shape"></path>
                          <path d="M9.02514286,4.48854545 C8.89771429,4.39281818 8.71885714,4.42236364 8.62571429,4.55354545 C8.53314286,4.68590909 8.56114286,4.87027273 8.68914286,4.966 C10.0765714,6.01072727 10.0451429,7.60559091 8.68914286,8.62431818 C8.56114286,8.72004545 8.53314286,8.905 8.62571429,9.03677273 C8.72,9.17031818 8.9,9.1975 9.02514286,9.10177273 C10.7051429,7.84077273 10.7102857,5.75545455 9.02514286,4.48854545 Z" id="Shape"></path>
                      </g>
                  </g>
              </g>
          </g>
      </g>
   </symbol>
   <symbol width="12px" height="13px" viewBox="0 0 12 13" id="icon_line-volume--mute">
      <!-- Generator: Sketch 46.2 (44496) - http://www.bohemiancoding.com/sketch -->
      <title>Group 12</title>
      <desc>Created with Sketch.</desc>
      <defs></defs>
      <g id="Listen-Live" stroke="none" stroke-width="1" fill="none" fill-rule="evenodd">
          <g id="Listen-Live-with-ad" transform="translate(-27.000000, -182.000000)" fill="#898989">
              <g id="Group-13" transform="translate(27.000000, 72.000000)">
                  <g id="Group-12" transform="translate(0.000000, 110.000000)">
                      <g id="Group-11">
                          <path d="M6.94057143,0.677181818 L3.02457143,4.72727273 L1.14285714,4.72727273 C0.513142857,4.72727273 0,5.25790909 0,5.90909091 L0,7.68181818 C0,8.33418182 0.512571429,8.86363636 1.14285714,8.86363636 L3.02457143,8.86363636 L6.94057143,12.9137273 C7.12,13.0980909 7.42857143,12.9669091 7.42857143,12.7045455 L7.42857143,0.886363636 C7.42857143,0.625181818 7.12057143,0.490454545 6.94057143,0.677181818 Z" id="Shape"></path>
                      </g>
                  </g>
              </g>
          </g>
      </g>
   </symbol>
   <symbol viewBox="0 0 24 24" id="icon_filled-checkmark">
      <path d="M23.576.183a1 1 0 0 0-1.393.242L7.367 21.452l-5.66-5.659a.999.999 0 1 0-1.414 1.413l6.5 6.5a1 1 0 0 0 1.524-.13l15.5-22a1 1 0 0 0-.241-1.393z" />
   </symbol>
   <symbol viewBox="0 0 24 24" id="icon_line-article">
      <g fill="none" stroke="currentColor" stroke-linecap="round" stroke-linejoin="round" stroke-miterlimit="10">
         <path d="M.5 2.5h23v18H.5z" />
         <path d="M2.5 5.5h19v3h-19zm2 6h6m-7 2h7m-7 2h7m-7 2h7m3-6h7m-7 2h7m-7 2h7m-7 2h6" />
      </g>
   </symbol>
   <symbol viewBox="0 0 24 24" id="icon_line-audio">
      <g stroke="currentColor" stroke-linecap="round" stroke-linejoin="round" stroke-miterlimit="10" fill="none">
         <path class="cpath" d="M4.5 11c0-4.142 3.356-7.5 7.5-7.5a7.5 7.5 0 0 1 7.5 7.5M4.5 11a4 4 0 0 0 0 8v-8zm15 0a4 4 0 0 1 0 8v-8zm-2 4.5H16l-1.5 3-1.5-7-2 5-1.5-3-1.5 2H6.5" />
      </g>
   </symbol>
   <symbol viewBox="0 0 24 24" id="icon_line-close--with-circle">
      <g fill="none" stroke="currentColor" stroke-linecap="round" stroke-linejoin="round" stroke-miterlimit="10">
         <circle cx="11.5" cy="11.5" r="11" />
         <path d="M15.742 7.258l-8.485 8.485m8.485 0L7.257 7.258" />
      </g>
   </symbol>
   <symbol viewBox="0 0 17 17" id="icon_line-back">
     <g id="Group">
         <circle id="Oval" cx="7.5" cy="7.5025" r="7.1875"></circle>
         <polyline id="Shape" points="9.6875 3.4375 4.375 7.5025 9.6875 11.5625"></polyline>
     </g>
   </symbol>
   <symbol width="9px" height="17px" viewBox="0 0 9 17" id="icon_line-right-arrow">
       <!-- Generator: Sketch 46.2 (44496) - http://www.bohemiancoding.com/sketch -->
       <title>Shape</title>
       <desc>Created with Sketch.</desc>
       <defs></defs>
       <g id="Navs" stroke="none" stroke-width="1" fill="none" fill-rule="evenodd">
           <g id="Small-|-Nav-Expanded-1st-Tier-Copy" transform="translate(-338.000000, -205.000000)" stroke="#6C7579">
               <g id="Group-7" transform="translate(25.000000, 206.000000)">
                   <g id="arrow_right-lines-copy" transform="translate(310.000000, 0.000000)">
                       <g id="Group">
                           <g id="Outline_Icons" transform="translate(3.125000, 0.000000)">
                               <polyline id="Shape" points="0.3125 14.6875 8.4375 7.5 0.3125 0.3125"></polyline>
                           </g>
                       </g>
                   </g>
               </g>
           </g>
       </g>
   </symbol>
   <symbol width="30px" height="21px" viewBox="0 0 30 21" id="icon_line-email">
       <!-- Generator: Sketch 46.2 (44496) - http://www.bohemiancoding.com/sketch -->
       <desc>Created with Sketch.</desc>
       <defs></defs>
       <g id="Posts" stroke="none" stroke-width="1" fill-rule="evenodd">
           <g id="story" transform="translate(-76.000000, -362.000000)">
               <g id="Group-10" transform="translate(76.000000, 362.000000)">
                   <path d="M29.2681191,1.32322968 L15.4196897,12.7293069 C15.2971137,12.8296337 15.1478907,12.8797971 15,12.8797971 C14.8521093,12.8797971 14.7028863,12.8296337 14.5803103,12.7293069 L0.733213261,1.32322968 C0.492058199,1.73131589 0.344167526,2.20176742 0.344167526,2.71153624 L0.344167526,17.6249855 C0.344167526,19.1203978 1.53928405,20.3365218 3.00886434,20.3365218 L26.9911357,20.3365218 C28.460716,20.3365218 29.6558325,19.1203978 29.6558325,17.6249855 L29.6558325,2.71153624 C29.6558325,2.20176742 29.5079418,1.73131589 29.2681191,1.32322968" id="Fill-100"></path>
                   <path d="M28.3074959,0.368768928 C27.9171178,0.139644116 27.4721134,0 26.9911357,0 L3.00886434,0 C2.52788656,0 2.0828822,0.139644116 1.69250411,0.368768928 L15,11.3301542 L28.3074959,0.368768928" id="Fill-101"></path>
               </g>
           </g>
       </g>
   </symbol>
   <symbol width="12px" height="21px" viewBox="0 0 12 21" id="icon_line-facebook">
       <!-- Generator: Sketch 46.2 (44496) - http://www.bohemiancoding.com/sketch -->
       <title>Shape</title>
       <desc>Created with Sketch.</desc>
       <defs></defs>
       <g id="Navs" stroke="none" stroke-width="1" fill-rule="evenodd">
           <g id="Small-|-Nav-Expanded-1st-Tier-Copy" transform="translate(-252.000000, -563.000000)">
               <g id="Group-5" transform="translate(247.000000, 563.000000)">
                   <g id="Group-Copy">
                       <g id="Filled_Icons" transform="translate(5.250000, 0.000000)">
                           <path d="M11.172,6.531875 L7.4375,6.531875 L7.4375,4.865 C7.4375,4.081 7.95725,3.898125 8.323,3.898125 L10.9375,3.898125 L10.9375,0.448875 L7.149625,0.4375 C3.7135,0.4375 3.0625,3.00825 3.0625,4.655 L3.0625,6.531 L0.4375,6.531 L0.4375,10.031 L3.0625,10.031 L3.0625,20.531 L7.4375,20.531 L7.4375,10.031 L10.807125,10.031 L11.172,6.531875 L11.172,6.531875 Z" id="Shape"></path>
                       </g>
                   </g>
               </g>
           </g>
       </g>
   </symbol>
   <symbol width="18px" height="18px" viewBox="0 0 18 18" id="icon_line-facebook-inverted">
       <!-- Generator: Sketch 46.2 (44496) - http://www.bohemiancoding.com/sketch -->
       <desc>Created with Sketch.</desc>
       <defs></defs>
       <g id="Landing-Pages" stroke="none" stroke-width="1" fill-rule="evenodd">
           <g id="show-landing-" transform="translate(-1124.000000, -195.000000)">
               <g id="Group-20" transform="translate(1124.000000, 195.000000)">
                   <path d="M17.0065682,0 L0.993499267,0 C0.444650103,0 0,0.442265007 0,0.988103072 L0,16.9154123 C0,17.4611162 0.444650103,17.9035154 0.993499267,17.9035154 L9.6143698,17.9035154 L9.6143698,10.970359 L7.26864324,10.970359 L7.26864324,8.26833649 L9.6143698,8.26833649 L9.6143698,6.2756955 C9.6143698,3.96321233 11.0343096,2.70403495 13.1083768,2.70403495 C14.1018086,2.70403495 14.9556339,2.7776228 15.2045651,2.81049249 L15.2045651,5.22715245 L13.7660111,5.22782326 C12.6380984,5.22782326 12.4197188,5.76091594 12.4197188,6.54321452 L12.4197188,8.26833649 L15.1097406,8.26833649 L14.7594429,10.970359 L12.4197188,10.970359 L12.4197188,17.9035154 L17.0065682,17.9035154 C17.555215,17.9035154 18,17.4611162 18,16.9154123 L18,0.988103072 C18,0.442265007 17.555215,0 17.0065682,0" id="Fill-15-Copy"></path>
               </g>
           </g>
       </g>
   </symbol>
   <symbol width="20px" height="16px" viewBox="0 0 20 16" id="icon_line-twitter">
       <!-- Generator: Sketch 46.2 (44496) - http://www.bohemiancoding.com/sketch -->
       <desc>Created with Sketch.</desc>
       <defs></defs>
       <g id="Navs" stroke="none" stroke-width="1" fill-rule="evenodd">
           <g id="Small-|-Nav-Expanded-1st-Tier-Copy" transform="translate(-54.000000, -565.000000)">
               <g id="Group-9" transform="translate(53.000000, 563.000000)">
                   <g id="Group-Copy-2">
                       <g id="Filled_Icons" transform="translate(0.875000, 1.750000)">
                           <path d="M19.6385,2.47975 C18.92625,2.797375 18.326,2.807875 17.689875,2.49375 C18.510625,2.002 18.54825,1.656375 18.844875,0.727125 C18.076625,1.183 17.22525,1.514625 16.319625,1.693125 C15.595125,0.921375 14.56175,0.4375 13.418125,0.4375 C11.221875,0.4375 9.442125,2.219 9.442125,4.4135 C9.442125,4.725 9.477125,5.028625 9.5445,5.32 C6.2405,5.154625 3.310125,3.57175 1.34925,1.1655 C1.007125,1.752625 0.811125,2.436 0.811125,3.164875 C0.811125,4.54475 1.51375,5.761 2.5795,6.474125 C1.927625,6.453125 1.315125,6.274625 0.779625,5.977125 C0.77875,5.99375 0.77875,6.0095 0.77875,6.027 C0.77875,7.95375 2.149,9.56025 3.969,9.926 C3.38625,10.084375 2.772,10.108875 2.172625,9.995125 C2.67925,11.573625 4.1475,12.723375 5.887,12.75575 C4.185125,14.08925 2.0755,14.644875 0,14.401625 C1.7605,15.5295 3.849125,16.1875 6.09525,16.1875 C13.4085,16.1875 17.40725,10.129 17.40725,4.874625 C17.40725,4.701375 17.404625,4.53075 17.39675,4.360125 C18.172875,3.800125 19.105625,3.27775 19.6385,2.47975 L19.6385,2.47975 Z" id="Shape"></path>
                       </g>
                   </g>
               </g>
           </g>
       </g>
   </symbol>
   <symbol width="18px" height="18px" viewBox="0 0 18 18" id="icon_line-podcast">
       <!-- Generator: Sketch 46.2 (44496) - http://www.bohemiancoding.com/sketch -->
       <title>Group 13</title>
       <desc>Created with Sketch.</desc>
       <defs></defs>
       <g id="Landing-Pages" stroke="none" stroke-width="1" fill="none" fill-rule="evenodd">
           <g id="show-landing-" transform="translate(-1212.000000, -195.000000)">
               <g id="Group-20" transform="translate(1124.000000, 195.000000)">
                   <g id="Group-13" transform="translate(88.000000, 0.000000)">
                       <path d="M4.64323725,18 L13.3567627,18 L9,9.28647451 L4.64323725,18 Z M9,10.9635255 L12.1432373,17.25 L5.85676275,17.25 L9,10.9635255 Z" id="Shape" fill="#1BADD4" fill-rule="nonzero"></path>
                       <path d="M15.5012521,15.2209466 C17.0943052,13.5553354 18,11.3479866 18,9 C18,4.02889322 13.9711068,0 9,0 C4.02889322,0 0,4.02889322 0,9 C0,11.3479866 0.905694836,13.5553354 2.49874791,15.2209466 L3.04075209,14.7025534 C1.57977226,13.175031 0.75,11.1527198 0.75,9 C0.75,4.44310678 4.44310678,0.75 9,0.75 C13.5568932,0.75 17.25,4.44310678 17.25,9 C17.25,11.1527198 16.4202277,13.175031 14.9592479,14.7025534 L15.5012521,15.2209466 Z" id="Shape" fill="#1BADD4" fill-rule="nonzero"></path>
                       <path d="M4.73563043,12.05356 C4.09818764,11.1656159 3.75,10.1088043 3.75,9 C3.75,6.09985678 6.09985678,3.75 9,3.75 C11.89966,3.75 14.25,6.10012354 14.25,9 C14.25,10.1088043 13.9018124,11.1656159 13.2643696,12.05356 L13.8736304,12.49094 C14.6015484,11.4769659 15,10.2675942 15,9 C15,5.68589451 12.3138581,3 9,3 C5.68564322,3 3,5.68564322 3,9 C3,10.2675942 3.3984516,11.4769659 4.12636957,12.49094 L4.73563043,12.05356 Z" id="Shape" fill="#1BADD4" fill-rule="nonzero"></path>
                       <path d="M6.75571198,9.10005541 C6.75408179,9.06733894 6.75408179,9.06733894 6.75230922,9.04244511 L6.75155753,9.0317001 C6.75016788,9.00970754 6.75016788,9.00970754 6.75,9 C6.75,7.75497523 7.76633426,6.75 9,6.75 C10.2345274,6.75 11.25,7.75511269 11.25,9 C11.2498321,9.00970754 11.2498321,9.00970754 11.2484425,9.0317001 L11.2476908,9.04244511 C11.2459182,9.06733894 11.2459182,9.06733894 11.244288,9.10005541 L11.993712,9.12944459 C11.9943618,9.11626106 11.9943618,9.11626106 11.9958292,9.09525489 L11.9966825,9.0830499 C11.9990429,9.04766746 11.9990429,9.04766746 12,9 C12,7.33916777 10.6470291,6 9,6 C7.3539959,6 6,7.33886301 6,9 C6.00095712,9.04766746 6.00095712,9.04766746 6.00331747,9.0830499 L6.00417078,9.09525489 C6.00563821,9.11626106 6.00563821,9.11626106 6.00628802,9.12944459 L6.75571198,9.10005541 Z" id="Shape" fill="#1BADD4" fill-rule="nonzero"></path>
                       <polygon id="Shape" fill="#1BADD4" fill-rule="nonzero" points="9.375 10.125 9.375 8.625 8.625 8.625 8.625 10.125"></polygon>
                       <polygon id="Shape" fill="#1BADD4" fill-rule="nonzero" points="5.47416641 17.9367493 11.0834164 14.1867493 10.6665836 13.5632507 5.05733359 17.3132507"></polygon>
                       <polygon id="Shape" fill="#1BADD4" fill-rule="nonzero" points="12.9580126 17.3129811 7.33301257 13.5629811 6.91698743 14.1870189 12.5419874 17.9370189"></polygon>
                       <polygon id="Shape" fill="#1BADD4" fill-rule="nonzero" points="7.70325 13.125 10.29675 13.125 10.29675 12.375 7.70325 12.375"></polygon>
                       <rect id="Rectangle-path" x="0" y="0" width="18" height="18"></rect>
                   </g>
               </g>
           </g>
       </g>
   </symbol>
   <symbol width="18px" height="18px" viewBox="0 0 18 18" id="icon_line-rss">
       <!-- Generator: Sketch 46.2 (44496) - http://www.bohemiancoding.com/sketch -->
       <title>Group 16</title>
       <desc>Created with Sketch.</desc>
       <defs></defs>
       <g id="Landing-Pages" stroke="none" stroke-width="1" fill="none" fill-rule="evenodd">
           <g id="show-landing-" transform="translate(-1251.000000, -195.000000)" fill="#1BADD4">
               <g id="Group-20" transform="translate(1124.000000, 195.000000)">
                   <g id="Group-16" transform="translate(127.000000, 0.000000)">
                       <path d="M0.00864,6.12 L0.00864,7.56 C5.25672,7.56 9.36864,11.83032 9.36864,17.28 L10.80864,17.28 C10.80864,11.02248 6.06384,6.12 0.00864,6.12 Z" id="Shape"></path>
                       <path d="M0.00864,0 L0.00864,1.44 C8.89056,1.44 15.84864,8.39808 15.84864,17.28 L17.28864,17.28 C17.28864,7.59024 9.69768,0 0.00864,0 Z" id="Shape"></path>
                       <circle id="Oval" cx="2.16864" cy="15.12" r="2.16"></circle>
                   </g>
               </g>
           </g>
       </g>
   </symbol>
   <symbol width="24px" height="22px" viewBox="0 0 24 22" id="icon_line-calendar">
       <!-- Generator: Sketch 46.2 (44496) - http://www.bohemiancoding.com/sketch -->
       <title>Group 3</title>
       <desc>Created with Sketch.</desc>
       <defs></defs>
       <g id="KPCC-In-Person" stroke="none" stroke-width="1" fill="none" fill-rule="evenodd">
           <g id="in-person-landing" transform="translate(-399.000000, -1100.000000)" fill-rule="nonzero" fill="#27A9D5">
               <g id="Group-6-Copy" transform="translate(399.000000, 1096.000000)">
                   <g id="Group-3" transform="translate(0.000000, 4.000000)">
                       <path d="M4.5,1.83333333 L0.5,1.83333333 C0.223857625,1.83333333 0,2.03853616 0,2.29166667 L0,21.5416667 C0,21.7947972 0.223857625,22 0.5,22 L23.5,22 C23.7761424,22 24,21.7947972 24,21.5416667 L24,2.29166667 C24,2.03853616 23.7761424,1.83333333 23.5,1.83333333 L19.5,1.83333333 C19.2238576,1.83333333 19,2.03853616 19,2.29166667 C19,2.54479718 19.2238576,2.75 19.5,2.75 L23.5,2.75 L23,2.29166667 L23,21.5416667 L23.5,21.0833333 L0.5,21.0833333 L1,21.5416667 L1,2.29166667 L0.5,2.75 L4.5,2.75 C4.77614237,2.75 5,2.54479718 5,2.29166667 C5,2.03853616 4.77614237,1.83333333 4.5,1.83333333 L4.5,1.83333333 Z" id="Stroke-1351"></path>
                       <path d="M7.5,3.66666667 L4.5,3.66666667 L5,4.125 L5,0.458333333 L4.5,0.916666667 L7.5,0.916666667 L7,0.458333333 L7,4.125 L7.5,3.66666667 L7.5,3.66666667 Z M7.5,4.58333333 C7.77614237,4.58333333 8,4.37813051 8,4.125 L8,0.458333333 C8,0.205202823 7.77614237,0 7.5,0 L4.5,0 C4.22385763,0 4,0.205202823 4,0.458333333 L4,4.125 C4,4.37813051 4.22385763,4.58333333 4.5,4.58333333 L7.5,4.58333333 L7.5,4.58333333 Z" id="Stroke-1352"></path>
                       <path d="M19.5,3.66666667 L16.5,3.66666667 L17,4.125 L17,0.458333333 L16.5,0.916666667 L19.5,0.916666667 L19,0.458333333 L19,4.125 L19.5,3.66666667 L19.5,3.66666667 Z M19.5,4.58333333 C19.7761424,4.58333333 20,4.37813051 20,4.125 L20,0.458333333 C20,0.205202823 19.7761424,0 19.5,0 L16.5,0 C16.2238576,0 16,0.205202823 16,0.458333333 L16,4.125 C16,4.37813051 16.2238576,4.58333333 16.5,4.58333333 L19.5,4.58333333 L19.5,4.58333333 Z" id="Stroke-1353"></path>
                       <path d="M7.5,2.75 L16.5,2.75 C16.7761424,2.75 17,2.54479718 17,2.29166667 C17,2.03853616 16.7761424,1.83333333 16.5,1.83333333 L7.5,1.83333333 C7.22385763,1.83333333 7,2.03853616 7,2.29166667 C7,2.54479718 7.22385763,2.75 7.5,2.75 L7.5,2.75 Z" id="Stroke-1354"></path>
                       <path d="M0.5,7.33333333 L23.5,7.33333333 C23.7761424,7.33333333 24,7.12813051 24,6.875 C24,6.62186949 23.7761424,6.41666667 23.5,6.41666667 L0.5,6.41666667 C0.223857625,6.41666667 0,6.62186949 0,6.875 C0,7.12813051 0.223857625,7.33333333 0.5,7.33333333 L0.5,7.33333333 Z" id="Stroke-1355"></path>
                       <path d="M6,8.70833333 L6,19.7083333 C6,19.9614638 6.22385763,20.1666667 6.5,20.1666667 C6.77614237,20.1666667 7,19.9614638 7,19.7083333 L7,8.70833333 C7,8.45520282 6.77614237,8.25 6.5,8.25 C6.22385763,8.25 6,8.45520282 6,8.70833333 L6,8.70833333 Z" id="Stroke-1356"></path>
                       <path d="M11,8.70833333 L11,19.7083333 C11,19.9614638 11.2238576,20.1666667 11.5,20.1666667 C11.7761424,20.1666667 12,19.9614638 12,19.7083333 L12,8.70833333 C12,8.45520282 11.7761424,8.25 11.5,8.25 C11.2238576,8.25 11,8.45520282 11,8.70833333 L11,8.70833333 Z" id="Stroke-1357"></path>
                       <path d="M16,8.70833333 L16,19.7083333 C16,19.9614638 16.2238576,20.1666667 16.5,20.1666667 C16.7761424,20.1666667 17,19.9614638 17,19.7083333 L17,8.70833333 C17,8.45520282 16.7761424,8.25 16.5,8.25 C16.2238576,8.25 16,8.45520282 16,8.70833333 L16,8.70833333 Z" id="Stroke-1358"></path>
                       <path d="M2.5,11 L21.5,11 C21.7761424,11 22,10.7947972 22,10.5416667 C22,10.2885362 21.7761424,10.0833333 21.5,10.0833333 L2.5,10.0833333 C2.22385763,10.0833333 2,10.2885362 2,10.5416667 C2,10.7947972 2.22385763,11 2.5,11 L2.5,11 Z" id="Stroke-1359"></path>
                       <path d="M2.5,14.6666667 L21.5,14.6666667 C21.7761424,14.6666667 22,14.4614638 22,14.2083333 C22,13.9552028 21.7761424,13.75 21.5,13.75 L2.5,13.75 C2.22385763,13.75 2,13.9552028 2,14.2083333 C2,14.4614638 2.22385763,14.6666667 2.5,14.6666667 L2.5,14.6666667 Z" id="Stroke-1360"></path>
                       <path d="M2.5,18.3333333 L21.5,18.3333333 C21.7761424,18.3333333 22,18.1281305 22,17.875 C22,17.6218695 21.7761424,17.4166667 21.5,17.4166667 L2.5,17.4166667 C2.22385763,17.4166667 2,17.6218695 2,17.875 C2,18.1281305 2.22385763,18.3333333 2.5,18.3333333 L2.5,18.3333333 Z" id="Stroke-1361"></path>
                   </g>
               </g>
           </g>
       </g>
   </symbol>
   <symbol width="56px" height="49px" viewBox="0 0 56 49" id="icon_line-staff-directory">
       <!-- Generator: Sketch 46.2 (44496) - http://www.bohemiancoding.com/sketch -->
       <title>Group 13</title>
       <desc>Created with Sketch.</desc>
       <defs></defs>
       <g id="General-About-Pages" stroke="none" stroke-width="1" fill="none" fill-rule="evenodd">
           <g id="special" transform="translate(-201.000000, -1898.000000)" fill-rule="nonzero" fill="#FA7E00">
               <g id="Group-13" transform="translate(201.000000, 1898.000000)">
                   <path d="M2.33333333,39.5047619 L11.6666667,39.5047619 L11.6666667,28.8960983 C13.3386652,28.4114439 13.9970888,26.789726 13.9999991,24.4014101 L14,17.4285714 L14,16.2666667 L0,16.2666667 L0,24.4 C0,26.7895608 0.658776093,28.412019 2.33333333,28.8964005 L2.33333333,39.5047619 Z M11.6666667,18.5904762 L11.6666667,24.4 C11.6645125,26.1670885 11.3626613,26.7238095 10.5,26.7238095 L9.33333333,26.7238095 L9.33333333,37.1809524 L4.66666667,37.1809524 L4.66666667,26.7238095 L3.5,26.7238095 C2.63454378,26.7238095 2.33333333,26.1685255 2.33333333,24.4 L2.33333333,18.5904762 L11.6666667,18.5904762 Z" id="Shape"></path>
                   <path d="M44.3333333,39.5047619 L53.6666667,39.5047619 L53.6666667,28.8960983 C55.3386652,28.4114439 55.9970888,26.789726 55.9999991,24.4014101 L56,17.4285714 L56,16.2666667 L42,16.2666667 L42,24.4 C42,26.7895608 42.6587761,28.412019 44.3333333,28.8964005 L44.3333333,39.5047619 Z M53.6666667,18.5904762 L53.6666667,24.4 C53.6645125,26.1670885 53.3626613,26.7238095 52.5,26.7238095 L51.3333333,26.7238095 L51.3333333,37.1809524 L46.6666667,37.1809524 L46.6666667,26.7238095 L45.5,26.7238095 C44.6345438,26.7238095 44.3333333,26.1685255 44.3333333,24.4 L44.3333333,18.5904762 L53.6666667,18.5904762 Z" id="Shape"></path>
                   <path d="M35,18.5904762 L35,29.047619 C35,30.9621072 33.4223345,32.5333333 31.5,32.5333333 L30.3333333,32.5333333 L30.3333333,46.4761905 L25.6666667,46.4761905 L25.6666667,32.5333333 L24.5,32.5333333 C22.5762269,32.5333333 21,30.9629985 21,29.047619 L21,18.5904762 L35,18.5904762 Z M23.3333333,48.8 L32.6666667,48.8 L32.6666667,34.7398826 C35.3226353,34.1985523 37.3333333,31.8478463 37.3333333,29.047619 L37.3333333,16.2666667 L18.6666667,16.2666667 L18.6666667,29.047619 C18.6666667,31.8486324 20.676357,34.1989804 23.3333333,34.7400058 L23.3333333,48.8 Z" id="Shape"></path>
                   <path d="M9.33333333,9.2952381 C9.33333333,10.5776501 8.28766779,11.6190476 7,11.6190476 C5.71233221,11.6190476 4.66666667,10.5776501 4.66666667,9.2952381 C4.66666667,8.01282609 5.71233221,6.97142857 7,6.97142857 C8.28766779,6.97142857 9.33333333,8.01282609 9.33333333,9.2952381 Z M11.6666667,9.2952381 C11.6666667,6.72942153 9.57633221,4.64761905 7,4.64761905 C4.42366779,4.64761905 2.33333333,6.72942153 2.33333333,9.2952381 C2.33333333,11.8610547 4.42366779,13.9428571 7,13.9428571 C9.57633221,13.9428571 11.6666667,11.8610547 11.6666667,9.2952381 Z" id="Shape"></path>
                   <path d="M51.3333333,9.2952381 C51.3333333,10.5776501 50.2876678,11.6190476 49,11.6190476 C47.7123322,11.6190476 46.6666667,10.5776501 46.6666667,9.2952381 C46.6666667,8.01282609 47.7123322,6.97142857 49,6.97142857 C50.2876678,6.97142857 51.3333333,8.01282609 51.3333333,9.2952381 Z M53.6666667,9.2952381 C53.6666667,6.72942153 51.5763322,4.64761905 49,4.64761905 C46.4236678,4.64761905 44.3333333,6.72942153 44.3333333,9.2952381 C44.3333333,11.8610547 46.4236678,13.9428571 49,13.9428571 C51.5763322,13.9428571 53.6666667,11.8610547 53.6666667,9.2952381 Z" id="Shape"></path>
                   <path d="M32.6666667,6.97142857 C32.6666667,9.53890724 30.5780011,11.6190476 28,11.6190476 C25.4219989,11.6190476 23.3333333,9.53890724 23.3333333,6.97142857 C23.3333333,4.4039499 25.4219989,2.32380952 28,2.32380952 C30.5780011,2.32380952 32.6666667,4.4039499 32.6666667,6.97142857 Z M35,6.97142857 C35,3.12054534 31.8666655,0 28,0 C24.1333345,0 21,3.12054534 21,6.97142857 C21,10.8223118 24.1333345,13.9428571 28,13.9428571 C31.8666655,13.9428571 35,10.8223118 35,6.97142857 Z" id="Shape"></path>
               </g>
           </g>
       </g>
   </symbol>
   <symbol width="56px" height="57px" viewBox="0 0 56 57" id="icon_line-tips">
       <!-- Generator: Sketch 46.2 (44496) - http://www.bohemiancoding.com/sketch -->
       <title>Group 16</title>
       <desc>Created with Sketch.</desc>
       <defs></defs>
       <g id="General-About-Pages" stroke="none" stroke-width="1" fill="none" fill-rule="evenodd">
           <g id="special" transform="translate(-582.000000, -1895.000000)" fill-rule="nonzero" fill="#FA7E00">
               <g id="Group-16" transform="translate(582.000000, 1895.000000)">
                   <path d="M10.5,50.458 C13.0773288,50.458 15.1666667,48.3686622 15.1666667,45.7913333 C15.1666667,43.2140045 13.0773288,41.1246667 10.5,41.1246667 C7.92267117,41.1246667 5.83333333,43.2140045 5.83333333,45.7913333 C5.83333333,48.3686622 7.92267117,50.458 10.5,50.458 Z M10.5,48.1246667 C9.21133558,48.1246667 8.16666667,47.0799977 8.16666667,45.7913333 C8.16666667,44.5026689 9.21133558,43.458 10.5,43.458 C11.7886644,43.458 12.8333333,44.5026689 12.8333333,45.7913333 C12.8333333,47.0799977 11.7886644,48.1246667 10.5,48.1246667 Z" id="Oval"></path>
                   <path d="M14.4946667,7.29133333 C6.48376219,7.29133333 0,13.913098 0,22.0683333 C0,30.1875022 6.42654008,36.7867338 14.3884719,36.8449452 C17.1030618,40.4829524 21.3274588,42.6786667 25.9186667,42.6786667 C29.1419723,42.6786667 32.2057853,41.6008478 34.7087863,39.6532107 C35.8291273,39.8551633 36.9634888,39.958 38.1056667,39.958 C48.5906902,39.958 56,31.3859666 56,20.1246667 C56,9.0301103 47.9470759,0.291333333 37.3333333,0.291333333 C30.7888256,0.291333333 25.3575084,3.60881841 21.8052434,9.31742202 C19.6044085,8.00190838 17.0995574,7.29133333 14.4946667,7.29133333 Z M37.3333333,2.62466667 C46.6138921,2.62466667 53.6666667,10.2781132 53.6666667,20.1246667 C53.6666667,30.166729 47.2203349,37.6246667 38.1056667,37.6246667 C36.938545,37.6246667 35.7801452,37.5022697 34.6378978,37.2622644 L34.0814419,37.1453437 L33.6465083,37.5116036 C31.4826414,39.3338073 28.7771406,40.3453333 25.9186667,40.3453333 C21.8920236,40.3453333 18.2000911,38.3258935 15.9377121,34.9992528 L15.5782097,34.4706344 L14.9391978,34.4891565 C14.7993085,34.494998 14.7993085,34.494998 14.6896054,34.5024354 C14.5565224,34.5108703 14.5318507,34.512 14.4946667,34.512 C7.78355382,34.512 2.33333333,28.9457753 2.33333333,22.0683333 C2.33333333,15.1908914 7.78355382,9.62466667 14.4946667,9.62466667 C17.0333941,9.62466667 19.4574772,10.431601 21.5068167,11.9120456 L22.5740217,12.6829954 L23.2110168,11.5308116 C26.341307,5.86880621 31.2804087,2.62466667 37.3333333,2.62466667 Z" id="Shape"></path>
                   <path d="M16.3333333,25.958 C17.6219977,25.958 18.6666667,24.9133311 18.6666667,23.6246667 C18.6666667,22.3360023 17.6219977,21.2913333 16.3333333,21.2913333 C15.0446689,21.2913333 14,22.3360023 14,23.6246667 C14,24.9133311 15.0446689,25.958 16.3333333,25.958 Z" id="Oval"></path>
                   <path d="M28,25.958 C29.2886644,25.958 30.3333333,24.9133311 30.3333333,23.6246667 C30.3333333,22.3360023 29.2886644,21.2913333 28,21.2913333 C26.7113356,21.2913333 25.6666667,22.3360023 25.6666667,23.6246667 C25.6666667,24.9133311 26.7113356,25.958 28,25.958 Z" id="Oval"></path>
                   <path d="M39.6666667,25.958 C40.9553311,25.958 42,24.9133311 42,23.6246667 C42,22.3360023 40.9553311,21.2913333 39.6666667,21.2913333 C38.3780023,21.2913333 37.3333333,22.3360023 37.3333333,23.6246667 C37.3333333,24.9133311 38.3780023,25.958 39.6666667,25.958 Z" id="Oval"></path>
                   <path d="M2.33333333,56.2913333 C3.62199775,56.2913333 4.66666667,55.2466644 4.66666667,53.958 C4.66666667,52.6693356 3.62199775,51.6246667 2.33333333,51.6246667 C1.04466892,51.6246667 0,52.6693356 0,53.958 C0,55.2466644 1.04466892,56.2913333 2.33333333,56.2913333 Z" id="Oval"></path>
               </g>
           </g>
       </g>
   </symbol>
   <symbol width="56px" height="39px" viewBox="0 0 56 39" id="icon_line-contact">
       <!-- Generator: Sketch 46.2 (44496) - http://www.bohemiancoding.com/sketch -->
       <title>Group 18</title>
       <desc>Created with Sketch.</desc>
       <defs></defs>
       <g id="General-About-Pages" stroke="none" stroke-width="1" fill="none" fill-rule="evenodd">
           <g id="special" transform="translate(-963.000000, -1903.000000)" fill-rule="nonzero" fill="#FA7E00">
               <g id="Group-18" transform="translate(963.000000, 1903.000000)">
                   <path d="M53.4545455,33.0909091 C53.4545455,34.4956376 52.3138194,35.6363636 50.9090909,35.6363636 L5.09090909,35.6363636 C3.68618059,35.6363636 2.54545455,34.4956376 2.54545455,33.0909091 L2.54545455,5.09090909 C2.54545455,3.68464533 3.68517006,2.54545455 5.09090909,2.54545455 L50.9090909,2.54545455 C52.3148299,2.54545455 53.4545455,3.68464533 53.4545455,5.09090909 L53.4545455,33.0909091 Z M56,33.0909091 L56,5.09090909 C56,2.27856713 53.7203833,0 50.9090909,0 L5.09090909,0 C2.27961667,0 0,2.27856713 0,5.09090909 L0,33.0909091 C0,35.9014533 2.28036486,38.1818182 5.09090909,38.1818182 L50.9090909,38.1818182 C53.7196351,38.1818182 56,35.9014533 56,33.0909091 Z" id="Shape"></path>
                   <polygon id="Shape" points="3.34052097 1.55162152 1.75038812 3.53928758 28 24.5389771 54.2496119 3.53928758 52.659479 1.55162152 28 21.2792047"></polygon>
               </g>
           </g>
       </g>
   </symbol>
   <symbol width="56px" height="47px" viewBox="0 0 56 47" id="icon_line-phone">
       <!-- Generator: Sketch 46.2 (44496) - http://www.bohemiancoding.com/sketch -->
       <title>Group 19</title>
       <desc>Created with Sketch.</desc>
       <defs></defs>
       <g id="General-About-Pages" stroke="none" stroke-width="1" fill="none" fill-rule="evenodd">
           <g id="special" transform="translate(-200.000000, -2017.000000)" fill="#FA7E00">
               <g id="Group-19" transform="translate(200.000000, 2016.000000)">
                   <path d="M53.6666667,11.0776667 L53.6666667,16.1666667 C53.6666667,18.1805757 51.969576,20.089 50.1666667,20.089 L43.1666667,20.089 C41.3637574,20.089 39.6666667,18.1805757 39.6666667,16.1666667 L39.6666667,11.1876283 L38.6151184,11.0833601 C31.62024,10.3897701 24.3844783,10.3897701 17.3849584,11.0833525 L16.3333333,11.187558 L16.3333333,16.1666667 C16.3333333,18.1805757 14.6362426,20.089 12.8333333,20.089 L5.83333333,20.089 C4.03042402,20.089 2.33333333,18.1805757 2.33333333,16.1666667 L2.33333333,11.0776667 C2.33333333,8.42947837 4.46644749,5.99575957 7.23341641,5.43074492 C20.8563822,2.65688092 34.9125734,2.60904892 48.7671611,5.4308627 C51.5335525,5.99575957 53.6666667,8.42947837 53.6666667,11.0776667 Z M37.3333333,13.306542 L37.3333333,16.1666667 C37.3333333,19.412217 40.0101177,22.4223333 43.1666667,22.4223333 L50.1666667,22.4223333 C53.3232156,22.4223333 56,19.412217 56,16.1666667 L56,11.0776667 C56,7.285138 53.0548241,3.9249193 49.2334164,3.14458842 C35.0682843,0.259524778 20.6954663,0.308434231 6.76722354,3.14445792 C2.94517594,3.9249193 0,7.285138 0,11.0776667 L0,16.1666667 C0,19.412217 2.6767844,22.4223333 5.83333333,22.4223333 L12.8333333,22.4223333 C15.9898823,22.4223333 18.6666667,19.412217 18.6666667,16.1666667 L18.6666667,13.3066022 C24.8335096,12.7598184 31.1702605,12.7598002 37.3333333,13.306542 Z" id="Shape" fill-rule="nonzero"></path>
                   <path d="M42,24.3333333 L42,41.8333333 C42,43.7571064 40.4232294,45.3333333 38.5,45.3333333 L15.1666667,45.3333333 C13.2434373,45.3333333 11.6666667,43.7571064 11.6666667,41.8333333 L11.6666667,24.3333333 L9.33333333,24.3333333 L9.33333333,41.8333333 C9.33333333,45.045951 11.954953,47.6666667 15.1666667,47.6666667 L38.5,47.6666667 C41.7117137,47.6666667 44.3333333,45.045951 44.3333333,41.8333333 L44.3333333,24.3333333 L42,24.3333333 Z" id="Shape" fill-rule="nonzero"></path>
                   <polygon id="Shape" points="21 26.6666667 18.6666667 26.6666667 18.6666667 29 21 29"></polygon>
                   <polygon id="Shape" points="28 26.6666667 25.6666667 26.6666667 25.6666667 29 28 29"></polygon>
                   <polygon id="Shape" points="35 26.6666667 32.6666667 26.6666667 32.6666667 29 35 29"></polygon>
                   <polygon id="Shape" points="21 31.3333333 18.6666667 31.3333333 18.6666667 33.6666667 21 33.6666667"></polygon>
                   <polygon id="Shape" points="28 31.3333333 25.6666667 31.3333333 25.6666667 33.6666667 28 33.6666667"></polygon>
                   <polygon id="Shape" points="35 31.3333333 32.6666667 31.3333333 32.6666667 33.6666667 35 33.6666667"></polygon>
                   <polygon id="Shape" points="21 36 18.6666667 36 18.6666667 38.3333333 21 38.3333333"></polygon>
                   <polygon id="Shape" points="28 36 25.6666667 36 25.6666667 38.3333333 28 38.3333333"></polygon>
                   <polygon id="Shape" points="35 36 32.6666667 36 32.6666667 38.3333333 35 38.3333333"></polygon>
               </g>
           </g>
       </g>
   </symbol>
   <symbol width="56px" height="56px" viewBox="0 0 56 56" id="icon_line-navigation">
       <!-- Generator: Sketch 46.2 (44496) - http://www.bohemiancoding.com/sketch -->
       <title>Group 21</title>
       <desc>Created with Sketch.</desc>
       <defs></defs>
       <g id="General-About-Pages" stroke="none" stroke-width="1" fill="none" fill-rule="evenodd">
           <g id="special" transform="translate(-582.000000, -2012.000000)" fill-rule="nonzero" fill="#FA7E00">
               <g id="Group-21" transform="translate(582.000000, 2012.000000)">
                   <path d="M28,25.6666667 C33.1546577,25.6666667 37.3333333,21.487991 37.3333333,16.3333333 C37.3333333,11.1786757 33.1546577,7 28,7 C22.8453423,7 18.6666667,11.1786757 18.6666667,16.3333333 C18.6666667,21.487991 22.8453423,25.6666667 28,25.6666667 Z M28,23.3333333 C24.1340068,23.3333333 21,20.1993266 21,16.3333333 C21,12.4673401 24.1340068,9.33333333 28,9.33333333 C31.8659932,9.33333333 35,12.4673401 35,16.3333333 C35,20.1993266 31.8659932,23.3333333 28,23.3333333 Z" id="Oval"></path>
                   <path d="M26.4912268,45.6833136 C24.6259336,42.6868263 22.7607113,39.5530625 21.0210853,36.438104 C20.0856551,34.7631315 19.2111102,33.1365209 18.4086577,31.5723583 C15.0731276,25.0706507 13.1716667,20.0121788 13.1716667,17.164 C13.1716667,8.97300207 19.8093287,2.33333333 28,2.33333333 C36.187669,2.33333333 42.8283333,8.97466677 42.8283333,17.164 C42.8283333,20.0121788 40.9268724,25.0706507 37.5913423,31.5723583 C36.7888898,33.1365209 35.9143449,34.7631315 34.9789147,36.438104 C33.2392887,39.5530625 31.3740664,42.6868263 29.5087732,45.6833136 C28.9712198,46.5468625 28.4653827,47.3478198 28,48.0753514 C27.5346173,47.3478198 27.0287802,46.5468625 26.4912268,45.6833136 Z M45.1616667,17.164 C45.1616667,7.68605498 37.476386,0 28,0 C18.5205063,0 10.8383333,7.68449552 10.8383333,17.164 C10.8383333,20.5141478 12.8264763,25.8032205 16.3325883,32.6374312 C17.148211,34.2272656 18.0356506,35.8778596 18.9839147,37.5758126 C20.7431949,40.7259635 22.6268008,43.8906138 24.5103357,46.9164051 C25.16958,47.9754436 25.7818836,48.9417275 26.3316588,49.7959844 C26.6622332,50.3096406 26.8990272,50.6725947 27.0264417,50.8655471 L28,52.3398738 L28.9735583,50.8655471 C29.1009728,50.6725947 29.3377668,50.3096406 29.6683412,49.7959844 C30.2181164,48.9417275 30.83042,47.9754436 31.4896643,46.9164051 C33.3731992,43.8906138 35.2568051,40.7259635 37.0160853,37.5758126 C37.9643494,35.8778596 38.851789,34.2272656 39.6674117,32.6374312 C43.1735237,25.8032205 45.1616667,20.5141478 45.1616667,17.164 Z" id="Shape"></path>
                   <path d="M39.5687802,47.1268863 C47.8511974,47.8242624 53.6666667,49.4039451 53.6666667,50.1666667 C53.6666667,51.5969893 41.764771,53.6666667 28,53.6666667 C14.2368156,53.6666667 2.33333333,51.5968378 2.33333333,50.1666667 C2.33333333,49.4080813 8.10455156,47.8334203 16.3341573,47.133807 L16.1365094,44.8088597 C6.07883873,45.6638801 0,47.3224745 0,50.1666667 C0,53.8923914 12.1207515,56 28,56 C43.8807166,56 56,53.8925201 56,50.1666667 C56,47.3159299 49.8798441,45.6534837 39.7645531,44.8017804 L39.5687802,47.1268863 Z" id="Shape"></path>
               </g>
           </g>
       </g>
   </symbol>
   <symbol width="54px" height="31px" viewBox="0 0 54 31" id="icon_line-source">
       <!-- Generator: Sketch 46.2 (44496) - http://www.bohemiancoding.com/sketch -->
       <title>Group 22</title>
       <desc>Created with Sketch.</desc>
       <defs></defs>
       <g id="General-About-Pages" stroke="none" stroke-width="1" fill="none" fill-rule="evenodd">
           <g id="special" transform="translate(-964.000000, -2025.000000)" fill-rule="nonzero" fill="#FA7E00">
               <g id="Group-22" transform="translate(964.000000, 2025.000000)">
                   <path d="M49.0440902,16.5207008 C47.5116964,18.1255171 45.7692456,19.7312122 43.8522735,21.2281269 C38.4217758,25.4686645 32.7064097,28 27,28 C21.2935903,28 15.5782242,25.4686645 10.1477265,21.2281269 C8.23075445,19.7312122 6.48830359,18.1255171 4.95590978,16.5207008 C4.4592244,16.0005416 4.01861419,15.5156273 3.63751337,15.0769231 C4.01861419,14.6382188 4.4592244,14.1533046 4.95590978,13.6331453 C6.48830359,12.028329 8.23075445,10.422634 10.1477265,8.92571928 C15.5782242,4.68518167 21.2935903,2.15384615 27,2.15384615 C32.7064097,2.15384615 38.4217758,4.68518167 43.8522735,8.92571928 C45.7692456,10.422634 47.5116964,12.028329 49.0440902,13.6331453 C49.5407756,14.1533046 49.9813858,14.6382188 50.3624866,15.0769231 C49.9813858,15.5156273 49.5407756,16.0005416 49.0440902,16.5207008 Z M53.1429997,15.0769231 L52.6134508,14.4083008 C52.5178019,14.2875319 52.3392528,14.070997 52.081852,13.7723197 C51.6578151,13.2802846 51.1631431,12.7335392 50.6018329,12.1457008 C49.0010536,10.4692671 47.1827929,8.79371216 45.1778803,7.22812687 C39.4029934,2.71866448 33.2646672,0 27,0 C20.7353328,0 14.5970066,2.71866448 8.8221197,7.22812687 C6.81720709,8.79371216 4.99894641,10.4692671 3.39816715,12.1457008 C2.83685686,12.7335392 2.34218495,13.2802846 1.918148,13.7723197 C1.66074721,14.070997 1.4821981,14.2875319 1.38654916,14.4083008 L0.857000295,15.0769231 L1.38654916,15.7455454 C1.4821981,15.8663142 1.66074721,16.0828491 1.918148,16.3815265 C2.34218495,16.8735616 2.83685686,17.420307 3.39816715,18.0081453 C4.99894641,19.684579 6.81720709,21.360134 8.8221197,22.9257193 C14.5970066,27.4351817 20.7353328,30.1538462 27,30.1538462 C33.2646672,30.1538462 39.4029934,27.4351817 45.1778803,22.9257193 C47.1827929,21.360134 49.0010536,19.684579 50.6018329,18.0081453 C51.1631431,17.420307 51.6578151,16.8735616 52.081852,16.3815265 C52.3392528,16.0828491 52.5178019,15.8663142 52.6134508,15.7455454 L53.1429997,15.0769231 Z" id="Shape"></path>
                   <path d="M27,24.7692308 C32.3529137,24.7692308 36.6923077,20.4298368 36.6923077,15.0769231 C36.6923077,9.72400935 32.3529137,5.38461538 27,5.38461538 C21.6470863,5.38461538 17.3076923,9.72400935 17.3076923,15.0769231 C17.3076923,20.4298368 21.6470863,24.7692308 27,24.7692308 Z M27,22.6153846 C22.8366227,22.6153846 19.4615385,19.2403004 19.4615385,15.0769231 C19.4615385,10.9135457 22.8366227,7.53846154 27,7.53846154 C31.1633773,7.53846154 34.5384615,10.9135457 34.5384615,15.0769231 C34.5384615,19.2403004 31.1633773,22.6153846 27,22.6153846 Z" id="Oval"></path>
                   <path d="M27,11.8461538 C28.783078,11.8461538 30.2307692,13.2938451 30.2307692,15.0769231 C30.2307692,16.860001 28.783078,18.3076923 27,18.3076923 C25.216922,18.3076923 23.7692308,16.860001 23.7692308,15.0769231 L21.6153846,15.0769231 C21.6153846,18.0495374 24.0273857,20.4615385 27,20.4615385 C29.9726143,20.4615385 32.3846154,18.0495374 32.3846154,15.0769231 C32.3846154,12.1043087 29.9726143,9.69230769 27,9.69230769 L27,11.8461538 Z" id="Shape"></path>
               </g>
           </g>
       </g>
   </symbol>
   <symbol viewBox="0 0 24 24" id="icon_line-comment">
      <path fill="none" stroke="currentColor" stroke-linejoin="round" stroke-miterlimit="10" d="M23.5 10.883c0 5.181-5.148 9.383-11.5 9.383-1.418 0-2.775-.21-4.029-.593l-6.608 3.076 2.588-5.166c-2.129-1.703-3.45-4.076-3.45-6.7C.5 5.701 5.648 1.5 12 1.5s11.5 4.201 11.5 9.383z" />
   </symbol>
   <symbol viewBox="0 0 24 24" id="icon_line-document">
      <g fill="none" stroke="currentColor" stroke-linecap="round" stroke-linejoin="round" stroke-miterlimit="10">
         <path d="M20.5 23.5h-17V.5h11l6 6z" />
         <path d="M14.5.5v6h6m-13 1H12m-4.5 3h9m-9 3h9m-9 3h9m-9 3h9" />
      </g>
   </symbol>
   <symbol viewBox="0 0 24 24" id="icon_line-donate">
      <g fill="none" stroke="currentColor" stroke-linejoin="round" stroke-miterlimit="10">
         <circle cx="17.5" cy="17.5" r="6" />
         <path stroke-linecap="round" d="M15 17.5h5M17.5 20v-5" />
      </g>
      <path fill="none" stroke="currentColor" stroke-linecap="round" stroke-linejoin="round" stroke-miterlimit="10" d="M20.991 9.437c.311-.917.489-1.841.489-2.756 0-7.017-9.411-8.386-10.49-1.369C9.91-1.705.5-.876.5 6.681c0 6.096 6.825 11.854 9.465 13.853" />
   </symbol>
   <symbol viewBox="0 0 24 24" id="icon_line-infographic">
      <g fill="none" stroke="currentColor" stroke-linecap="round" stroke-linejoin="round" stroke-miterlimit="10">
         <path d="M23.5 23.5H.5V.5" />
         <circle cx="7.5" cy="16.5" r="1.5" />
         <path d="M16.916 8.314l4.076-5.206M9.933 7.462l4.618 1.648M.5 11.781l6.719-4.005m9.08 7.976l4.405-2.496M9 16.5h4.5M.5 21l5.712-3.734" />
         <circle cx="8.5" cy="7" r="1.5" />
         <circle cx="16" cy="9.5" r="1.5" />
         <circle cx="22" cy="2" r="1.5" />
         <circle cx="22" cy="12.5" r="1.5" />
         <circle cx="15" cy="16.5" r="1.5" />
      </g>
   </symbol>
   <symbol viewBox="0 0 24 24" id="icon_line-listen-live">
      <g fill="none" stroke="currentColor" stroke-linejoin="round" stroke-miterlimit="10">
         <path stroke-linecap="round" d="M3.868 3.868C1.787 5.949.5 8.824.5 12s1.287 6.051 3.368 8.133M6.696 6.697A7.484 7.484 0 0 0 4.5 12c0 2.071.84 3.945 2.196 5.304m2.829-7.779C8.892 10.158 8.5 11.033 8.5 12s.392 1.842 1.025 2.475M20.132 3.868C22.213 5.949 23.5 8.824 23.5 12s-1.287 6.051-3.368 8.133M17.304 6.697A7.484 7.484 0 0 1 19.5 12c0 2.071-.84 3.945-2.196 5.304m-2.829-7.779c.633.633 1.025 1.508 1.025 2.475s-.392 1.842-1.025 2.475" />
         <circle cx="12" cy="12" r=".5" />
      </g>
   </symbol>
   <symbol viewBox="0 0 24 24" id="icon_line-map">
      <g fill="none" stroke="currentColor" stroke-linecap="round" stroke-linejoin="round" stroke-miterlimit="10">
         <path d="M7.5 5.5v16m7-11V.5m-1 16.714l-6 4.286-7-5V.5l7 5 7-5 7 5v5" />
         <path d="M23.5 16.5c0 2.209-4 7-4 7s-4-4.791-4-7a4 4 0 1 1 8 0z" />
         <circle cx="19.5" cy="16.5" r="1.5" />
      </g>
   </symbol>
   <symbol viewBox="0 0 24 24" id="icon_line-menu">
      <path fill="none" stroke="currentColor" stroke-linecap="round" stroke-linejoin="round" stroke-miterlimit="10" d="M19 5.5H4.043M19 9.5H4.043M19 13.5H4.043M19 17.5H4.043" />
   </symbol>
   <symbol viewBox="0 0 24 24" id="icon_line-microphone">
      <g fill="none" stroke="currentColor" stroke-linejoin="round" stroke-miterlimit="10">
         <path d="M18.5 12.5a6 6 0 0 1-12 0v-6a6 6 0 0 1 12 0v6z" />
         <path stroke-linecap="round" d="M4.5 10.5v2c0 4.474 3.525 8 8 8 4.473 0 8-3.526 8-8v-2m-8 10v3m0-23v3M14.501.842L14.5 3.5m-4-2.658V3.5" />
         <path d="M4.5 12.5h16" />
         <path stroke-linecap="round" d="M6.5 6.5h4m-4 2h4m8-2h-4m4 2h-4m-8 2h4m8 0h-4" />
      </g>
      <path fill="none" d="M0 0h24v24H0z" />
   </symbol>
   <symbol viewBox="0 0 24 24" id="icon_line-outbound-link">
      <g fill="none" stroke="currentColor" stroke-linecap="round" stroke-linejoin="round" stroke-miterlimit="10">
         <path d="M23.113 9.5H12.5a4 4 0 0 0-4 4v2" />
         <path d="M19.113 13.5l4-4-4-4M14.5 13v6.5H.5v-14h14V7" />
      </g>
   </symbol>
   <symbol viewBox="0 0 24 24" id="icon_line-poll">
      <path d="M.5 23.5h23m-19 0v-5h-3v5m9 0v-10h-3v10m9 0v-8h-3v8m9 0v-15h-3v15" fill="none" stroke="currentColor" stroke-linecap="round" stroke-linejoin="round" stroke-miterlimit="10" />
      <path fill="none" d="M0 0h24v24H0z" />
   </symbol>
   <symbol viewBox="0 0 24 24" id="icon_line-search">
      <g fill="none" stroke="currentColor" stroke-linejoin="round" stroke-miterlimit="10">
         <circle cx="8.5" cy="8.5" r="8" />
         <path stroke-linecap="round" d="M14.156 14.156L23.5 23.5" />
      </g>
   </symbol>
   <symbol viewBox="0 0 24 24" id="icon_line-slideshow">
      <g fill="none" stroke="currentColor" stroke-linejoin="round" stroke-miterlimit="10">
         <path d="M15.5 15.5l-3-7.5-2.5 5.5-2.5-3-3 5" />
         <path d="M1.5 1.5h17v17h-17z" />
         <path stroke-linecap="round" d="M20.508 7.381l1.992.181L21.137 22.5 6.199 21.137" />
         <path d="M1.5 15.5h17" />
         <circle cx="6" cy="6" r="1.5" />
      </g>
   </symbol>
   <symbol viewBox="0 0 24 24" id="icon_line-video">
      <path d="M15.5 17.5c0 .55-.45 1-1 1h-13c-.55 0-1-.45-1-1v-11c0-.55.45-1 1-1h13c.55 0 1 .45 1 1v11zm8 0l-6-3v-5l6-3z" fill="none" stroke="currentColor" stroke-linejoin="round" stroke-miterlimit="10" />
      <path fill="none" d="M0 0h24v24H0z" />
   </symbol>
   <symbol viewBox="0 0 139 20" id="logo_kpcc-black">
      <path d="M0 10C0 4.484 4.49 0 10.007 0c5.52 0 10.007 4.485 10.007 10s-4.488 10-10.007 10C4.49 20 0 15.515 0 10zm10.143-4.66a4.803 4.803 0 0 0-4.797 4.794 4.802 4.802 0 0 0 4.797 4.796c2.648 0 4.8-2.15 4.8-4.796a4.803 4.803 0 0 0-4.8-4.794z" fill="#F87E21" />
      <path d="M65.442 19.59h5.32v-4.96l1.946-2.164 4.825 7.123h6.388L76.41 8.657 83.673.41h-6.306L70.76 8.193V.412h-5.318v19.177zm19.466 0h5.32v-5.48h2.63c4.77 0 8.253-2.384 8.253-6.905 0-4.3-3.125-6.794-7.977-6.794h-8.225v19.18zm5.346-9.645V4.877h2.606c2.004 0 3.206.876 3.206 2.52v.055c0 1.507-1.202 2.493-3.178 2.493h-2.634zm21.796 10.028c4.25 0 6.69-1.836 8.5-4.33l-4.004-2.848c-1.15 1.397-2.33 2.328-4.332 2.328-2.686 0-4.578-2.246-4.578-5.123v-.055c0-2.794 1.892-5.068 4.578-5.068 1.837 0 3.098.876 4.195 2.246l4.002-3.096c-1.7-2.356-4.222-4-8.143-4-5.813 0-10.117 4.384-10.117 9.973v.055c0 5.726 4.414 9.918 9.897 9.918zm18.37 0c4.248 0 6.688-1.836 8.498-4.33l-4.003-2.848c-1.15 1.397-2.33 2.328-4.332 2.328-2.687 0-4.578-2.246-4.578-5.123v-.055c0-2.794 1.89-5.068 4.578-5.068 1.837 0 3.098.876 4.195 2.246l4.003-3.096c-1.7-2.356-4.22-4-8.142-4-5.812 0-10.117 4.384-10.117 9.973v.055c0 5.726 4.416 9.918 9.9 9.918z" />
      <path d="M35.043 14.128c0-1.962-.89-3.767-3.456-4.605 2.2-.81 2.906-2.59 2.906-4.08 0-2.853-2.33-4.71-5.158-4.71-2.854 0-5.158 1.857-5.158 4.71 0 1.516.785 3.348 2.854 4.08-2.513.838-3.403 2.67-3.403 4.605 0 3.22 2.46 5.233 5.708 5.233 3.194 0 5.708-2.013 5.708-5.232zm-1.702-8.66c0 2.38-1.78 3.637-4.005 3.637-2.226 0-4.032-1.256-4.032-3.637 0-2.224 1.937-3.69 4.032-3.69 2.094 0 4.006 1.466 4.006 3.69zm.524 8.66c0 2.512-2.12 4.134-4.53 4.134-2.434 0-4.53-1.622-4.53-4.134 0-2.695 1.99-4.08 4.53-4.08 2.514 0 4.53 1.412 4.53 4.08zm13.624-7.09c0-3.428-2.042-6.306-5.682-6.306-3.168 0-5.577 2.512-5.577 5.6 0 3.113 2.33 5.52 5.524 5.52 1.414 0 3.194-.42 4.45-2.643-.863 4.76-3.665 7.744-6.57 9.968h1.465c4.11-2.956 6.388-7.718 6.388-12.14zm-1.23-.76c0 2.487-1.86 4.5-4.478 4.5-2.513 0-4.45-2.092-4.45-4.473 0-2.38 1.91-4.5 4.45-4.5 2.487 0 4.477 2.067 4.477 4.474zm.836 10.912c-.576 0-1.073.47-1.073 1.072 0 .602.498 1.073 1.074 1.073.63 0 1.1-.47 1.1-1.073 0-.6-.47-1.072-1.1-1.072zm14-3.035c0-2.277-1.282-3.847-3.403-4.527 1.887-.654 2.934-2.093 2.934-4.134 0-2.904-2.383-4.788-5.21-4.788-2.174 0-4.06 1.073-4.975 3.06l1.02.42c.68-1.518 2.225-2.433 3.9-2.433 2.096 0 4.138 1.57 4.138 3.74 0 2.565-1.833 3.638-4.163 3.716v.863c2.566.078 4.608 1.282 4.608 4.082 0 2.51-2.016 4.107-4.425 4.107-1.833 0-3.482-.863-4.19-2.59l-1.046.393c.89 2.302 2.854 3.296 5.236 3.296 3.116 0 5.577-1.96 5.577-5.205z" stroke="#000" stroke-width=".548" />
   </symbol>
   <symbol viewBox="0 0 139 20" id="logo_kpcc-white">
      <path d="M0 10C0 4.484 4.49 0 10.007 0c5.52 0 10.007 4.485 10.007 10s-4.488 10-10.007 10C4.49 20 0 15.515 0 10zm10.143-4.66a4.803 4.803 0 0 0-4.797 4.794 4.802 4.802 0 0 0 4.797 4.796c2.648 0 4.8-2.15 4.8-4.796a4.803 4.803 0 0 0-4.8-4.794z" fill="#F87E21" />
      <g fill="#FFF">
         <path d="M65.442 19.59h5.32v-4.96l1.946-2.164 4.825 7.123h6.388L76.41 8.657 83.673.41h-6.306L70.76 8.193V.412h-5.318v19.177zm19.466 0h5.32v-5.48h2.63c4.77 0 8.253-2.384 8.253-6.905 0-4.3-3.125-6.794-7.977-6.794h-8.225v19.18zm5.346-9.645V4.877h2.606c2.004 0 3.206.876 3.206 2.52v.055c0 1.507-1.202 2.493-3.178 2.493h-2.634zm21.796 10.028c4.25 0 6.69-1.836 8.5-4.33l-4.004-2.848c-1.15 1.397-2.33 2.328-4.332 2.328-2.686 0-4.578-2.246-4.578-5.123v-.055c0-2.794 1.892-5.068 4.578-5.068 1.837 0 3.098.876 4.195 2.246l4.002-3.096c-1.7-2.356-4.222-4-8.143-4-5.813 0-10.117 4.384-10.117 9.973v.055c0 5.726 4.414 9.918 9.897 9.918zm18.37 0c4.248 0 6.688-1.836 8.498-4.33l-4.003-2.848c-1.15 1.397-2.33 2.328-4.332 2.328-2.687 0-4.578-2.246-4.578-5.123v-.055c0-2.794 1.89-5.068 4.578-5.068 1.837 0 3.098.876 4.195 2.246l4.003-3.096c-1.7-2.356-4.22-4-8.142-4-5.812 0-10.117 4.384-10.117 9.973v.055c0 5.726 4.416 9.918 9.9 9.918z" />
         <path d="M35.043 14.128c0-1.962-.89-3.767-3.456-4.605 2.2-.81 2.906-2.59 2.906-4.08 0-2.853-2.33-4.71-5.158-4.71-2.854 0-5.158 1.857-5.158 4.71 0 1.516.785 3.348 2.854 4.08-2.513.838-3.403 2.67-3.403 4.605 0 3.22 2.46 5.233 5.708 5.233 3.194 0 5.708-2.013 5.708-5.232zm-1.702-8.66c0 2.38-1.78 3.637-4.005 3.637-2.226 0-4.032-1.256-4.032-3.637 0-2.224 1.937-3.69 4.032-3.69 2.094 0 4.006 1.466 4.006 3.69zm.524 8.66c0 2.512-2.12 4.134-4.53 4.134-2.434 0-4.53-1.622-4.53-4.134 0-2.695 1.99-4.08 4.53-4.08 2.514 0 4.53 1.412 4.53 4.08zm13.624-7.09c0-3.428-2.042-6.306-5.682-6.306-3.168 0-5.577 2.512-5.577 5.6 0 3.113 2.33 5.52 5.524 5.52 1.414 0 3.194-.42 4.45-2.643-.863 4.76-3.665 7.744-6.57 9.968h1.465c4.11-2.956 6.388-7.718 6.388-12.14zm-1.23-.76c0 2.487-1.86 4.5-4.478 4.5-2.513 0-4.45-2.092-4.45-4.473 0-2.38 1.91-4.5 4.45-4.5 2.487 0 4.477 2.067 4.477 4.474zm.836 10.912c-.576 0-1.073.47-1.073 1.072 0 .602.498 1.073 1.074 1.073.63 0 1.1-.47 1.1-1.073 0-.6-.47-1.072-1.1-1.072zm14-3.035c0-2.277-1.282-3.847-3.403-4.527 1.887-.654 2.934-2.093 2.934-4.134 0-2.904-2.383-4.788-5.21-4.788-2.174 0-4.06 1.073-4.975 3.06l1.02.42c.68-1.518 2.225-2.433 3.9-2.433 2.096 0 4.138 1.57 4.138 3.74 0 2.565-1.833 3.638-4.163 3.716v.863c2.566.078 4.608 1.282 4.608 4.082 0 2.51-2.016 4.107-4.425 4.107-1.833 0-3.482-.863-4.19-2.59l-1.046.393c.89 2.302 2.854 3.296 5.236 3.296 3.116 0 5.577-1.96 5.577-5.205z" stroke="#FFF" stroke-width=".5" />
      </g>
   </symbol>
   <symbol viewBox="0 0 106 20" id="logo_partner-apm">
      <path d="M5.215 9.995c0-2.655 2.168-4.817 4.823-4.817a4.82 4.82 0 0 1 4.814 4.817c0 2.663-2.158 4.828-4.814 4.828a4.833 4.833 0 0 1-4.823-4.828zm-4.997 0c0 5.416 4.406 9.82 9.82 9.82 5.408 0 9.812-4.404 9.812-9.82 0-5.414-4.404-9.817-9.812-9.817-5.414 0-9.82 4.403-9.82 9.817zm29.139-4.679l-.65-2.233h-.02l-.702 2.233h1.372zM27.601.66h2.182l2.64 7.243h-2.315l-.305-1.035h-2.304l-.325 1.035H24.93L27.6.659zm5.255 0h3.177l1.036 4.26h.02L38.122.66h3.176v7.242H39.19V3.256h-.023L37.91 7.902h-1.663l-1.259-4.646h-.02v4.646h-2.112V.659m9.539.001h5.998v1.855H44.63v.906h3.418v1.72H44.63v.906h3.875v1.855h-6.11V.659m9.327 3.166h1.166c.416 0 .986-.072.986-.722 0-.457-.255-.718-1.108-.718h-1.044v1.44zM49.488.66h4.254c1.266 0 2.363.7 2.363 2.07 0 .751-.345 1.542-1.086 1.816.61.233.985.902 1.066 1.804.03.356.042 1.22.243 1.553h-2.232c-.111-.364-.151-.74-.182-1.116-.061-.691-.123-1.41-1.004-1.41h-1.188v2.526h-2.234V.659zm7.469 7.243h2.234V.659h-2.234zm7.896-4.546c-.04-.265-.243-1.065-1.167-1.065-1.046 0-1.381 1.014-1.381 1.988 0 .977.335 1.99 1.381 1.99.75 0 1.045-.528 1.177-1.207h2.192c0 1.459-1.188 3.014-3.309 3.014-2.343 0-3.673-1.657-3.673-3.797 0-2.282 1.44-3.795 3.673-3.795 1.991.01 3.086 1.055 3.278 2.872h-2.171m6.85 1.959l-.65-2.233h-.02l-.7 2.233h1.37zM69.947.66h2.181l2.64 7.243h-2.314l-.306-1.035h-2.302l-.325 1.035h-2.243L69.948.66zm5.278 0h2.282l2.111 3.875h.02V.659h2.11v7.243h-2.172l-2.223-3.957h-.018v3.957h-2.11V.659M27.31 15.42h.862c.579 0 1.189-.04 1.189-.768 0-.662-.507-.701-1.057-.701h-.994v1.469zm-2.233-3.328h3.734c1.968 0 2.659 1.439 2.659 2.475 0 1.755-1.175 2.58-2.842 2.58H27.31v2.188h-2.233v-7.243zm13.668 4.443c0 2.01-1.086 2.973-3.295 2.973-2.215 0-3.31-.963-3.31-2.973v-4.443h2.233v3.948c0 .74 0 1.666 1.085 1.666 1.056 0 1.056-.927 1.056-1.666v-3.948h2.231v4.443m3.31 1.075h1.308c.468 0 .873-.133.873-.685 0-.428-.254-.664-.781-.664h-1.4v1.35zm0-2.698h1.177c.466 0 .76-.132.76-.6 0-.361-.304-.494-.76-.494h-1.177v1.094zm-2.232-2.82h3.967c1.906 0 2.312 1.075 2.312 1.817 0 .73-.353 1.124-.893 1.418.651.226 1.26.744 1.26 1.808 0 1.454-1.26 2.2-2.537 2.2h-4.11v-7.243zm7.467 0h2.234v5.385h3.206v1.858h-5.44v-7.243m6.344 7.244h2.231v-7.244h-2.231zm7.894-4.549c-.042-.26-.243-1.06-1.168-1.06-1.045 0-1.38 1.014-1.38 1.987 0 .977.335 1.992 1.38 1.992.752 0 1.046-.53 1.177-1.209h2.193c0 1.462-1.186 3.011-3.31 3.011-2.343 0-3.673-1.65-3.673-3.794 0-2.281 1.442-3.795 3.673-3.795 1.99.01 3.087 1.055 3.28 2.868h-2.172m6.412-2.695h3.177l1.036 4.26h.02l1.034-4.26h3.177v7.243h-2.111v-4.644h-.02l-1.258 4.644H71.33l-1.26-4.644h-.018v4.644H67.94v-7.243m9.538 0h6v1.859h-3.766v.902h3.42v1.72h-3.42v.904h3.876v1.858h-6.11v-7.243m9.327 5.385h.874c1.39 0 1.593-1.124 1.593-1.804 0-.456-.142-1.722-1.757-1.722h-.71v3.526zm-2.232-5.385h3.663c2.415 0 3.268 1.786 3.268 3.612 0 2.224-1.176 3.631-3.705 3.631h-3.226v-7.243zm7.844 7.244h2.231v-7.244h-2.23zm7.093-2.586l-.65-2.233h-.02l-.7 2.234h1.37zm-1.755-4.658h2.183l2.637 7.243h-2.312l-.306-1.03h-2.303l-.325 1.03h-2.244l2.67-7.243zm6.641 1.113l.415-1.086h.427v1.531h-.277v-1.197h-.007l-.459 1.197h-.209l-.457-1.197h-.006v1.197h-.28v-1.53h.432l.421 1.085zm-1.165-.844h-.47v1.289h-.296v-1.29h-.468v-.24h1.234v.24z" fill="#B9B9B9" fill-rule="evenodd" />
   </symbol>
   <symbol viewBox="0 0 71 20" id="logo_partner-bbc">
      <path d="M12.258 6.76s.081-1.593-2.059-1.707H8.138v3.718h1.754s2.366-.03 2.366-2.01zm-1.416 4.281H8.138v3.93h2.704s2.704.127 2.704-2.047c0 0 .082-1.898-2.704-1.883zm5.345 2.094c0 4.041-4.756 4.056-4.83 4.056H5.58V2.816h5.041c4.543.42 4.263 3.848 4.263 3.848.016 2.092-1.835 2.88-1.835 2.88 3.251.821 3.139 3.591 3.139 3.591zM0 20h21.225V0H0v20zM36.726 6.76s.081-1.593-2.061-1.707h-2.06v3.718h1.755s2.366-.03 2.366-2.01zm-1.416 4.281h-2.704v3.93h2.704s2.704.127 2.704-2.047c0 0 .08-1.898-2.704-1.883zm5.343 2.094c0 4.041-4.756 4.056-4.83 4.056h-5.777V2.816h5.042c4.543.42 4.261 3.848 4.261 3.848.017 2.092-1.835 2.88-1.835 2.88 3.253.821 3.139 3.591 3.139 3.591zM24.476 20H45.7V0H24.476v20zm12.25-13.24s.081-1.593-2.061-1.707h-2.06v3.718h1.755s2.366-.03 2.366-2.01zm-1.416 4.281h-2.704v3.93h2.704s2.704.127 2.704-2.047c0 0 .08-1.898-2.704-1.883zm0 0h-2.704v3.93h2.704s2.704.127 2.704-2.047c0 0 .08-1.898-2.704-1.883zm-.645-5.988h-2.06v3.718h1.755s2.366-.03 2.366-2.01c0 0 .081-1.594-2.061-1.708zm31.31 10.995s-4.364 2.592-9.417.595c0 0-4.25-1.553-4.412-6.643 0 0-.176-5.237 5.49-6.975 0 0 1.512-.58 4.234-.32 0 0 1.624.16 3.975 1.14v2.657s-2.592-1.594-5.457-1.625c0 0-5.345-.104-5.586 5.123 0 0-.193 4.808 5.523 5.082 0 0 2.397.29 5.65-1.787v2.753zM48.95 20h21.225V0H48.95v20z" fill="#B9B9B9" fill-rule="evenodd" />
   </symbol>
   <symbol viewBox="0 0 29 20" id="logo_partner-nbc4">
      <g fill="none" fill-rule="evenodd">
         <path d="M10.774 0L0 11.368v4.597h11.67v4.01h6.586v-4.136h1.43l.598-4.471h-2.328V0h-7.182zm.693 6.737v4.7H7.23l4.236-4.7z" fill="#858585" />
         <path d="M24.561 12.52c.215.445.09 1.028-.135 1.427l-1.732 4.008-.014.019-.626-4.066c-.05-.39.356-.557.593-.744-.011-.057-.073-.054-.112-.081l-.585-.007-.017-.017c.003-.506.267-.973.714-1.217.467-.279 1.126-.202 1.533.155.163.15.302.326.381.523m-3.189-.139c.14.269.223.574.173.913l-.705 4.655c.002.006-.004.012-.01.015l-.182-.375-1.77-4.065a1.438 1.438 0 0 1 .358-1.446c.373-.39.988-.496 1.477-.285.258.115.505.327.659.588m5.75 1.959c.238.418.186 1.05-.08 1.437-.164.273-.436.409-.664.588l-3.666 2.587h-.01l.043-.123 1.943-4.512c.29-.533.847-.802 1.435-.72.402.076.804.344.999.743m-8.33-.023l2.024 4.635h-.033l-4.079-2.89a1.406 1.406 0 0 1-.442-1.444 1.43 1.43 0 0 1 .826-.94 1.377 1.377 0 0 1 1.704.639m9.394 3.296c.203.441.123 1.047-.168 1.422-.288.36-.673.556-1.125.544l-4.348.003 3.642-2.607c.356-.236.898-.278 1.285-.088.3.122.582.423.714.726m-12.874 0c-.203.441-.123 1.047.167 1.422.29.36.674.556 1.126.544l4.349.003-3.644-2.607a1.372 1.372 0 0 0-1.284-.088c-.3.122-.582.423-.714.726" fill="#B9B9B9" />
      </g>
   </symbol>
   <symbol viewBox="0 0 62 20" id="logo_partner-npr">
      <g fill="#B9B9B9" fill-rule="evenodd">
         <path d="M59.99 1.576c.183 0 .365-.007.365-.212 0-.17-.143-.209-.29-.209h-.273v.42h.198zm-.198.665h-.148V1.028h.464c.273 0 .396.119.396.336 0 .214-.143.31-.305.338l.36.54h-.174l-.342-.54h-.251v.54zm-.653-.607c0 .503.377.9.885.9.507 0 .884-.397.884-.9 0-.502-.377-.899-.884-.899-.508 0-.885.397-.885.9zm1.933 0c0 .59-.455 1.05-1.048 1.05s-1.05-.46-1.05-1.05c0-.589.457-1.049 1.05-1.049s1.048.46 1.048 1.05zM.299 20h19.453V.251H0V20h.299zm0-.597l.298.298V.55L.3.848h19.153l-.298-.299v19.152l.298-.298H.3zM19.452 20h19.452V.251h-19.75V20h.298zm0-.597l.3.298V.55l-.3.299h19.153L38.306.55v19.152l.299-.298H19.452zM38.565 20h19.452V.251h-19.75V20h.298zm0-.597l.299.298V.55l-.299.299h19.153l-.298-.3v19.152l.298-.298H38.565z" />
         <path d="M11.736 15.01V9.36c0-.835-.16-1.443-.482-1.828-.32-.382-.845-.575-1.573-.575-.336 0-.695.095-1.077.284-.382.187-.68.423-.895.702v7.067H5.42V5.193h1.65l.422.915c.623-.72 1.543-1.081 2.758-1.081 1.166 0 2.088.349 2.763 1.049.675.697 1.013 1.673 1.013 2.922v6.012h-2.29m17.111.194c1.497 0 2.678-.434 3.544-1.301.865-.866 1.296-2.105 1.296-3.709 0-3.444-1.563-5.167-4.693-5.167-.838 0-1.544.276-2.118.825v-.66h-2.29v13.652h2.29v-4.072a4.465 4.465 0 0 0 1.971.432zm-.509-8.22c1.053 0 1.81.237 2.266.71.456.472.684 1.286.684 2.445 0 1.084-.23 1.878-.689 2.38-.46.502-1.217.754-2.27.754-.554 0-1.04-.167-1.453-.503V7.624c.426-.424.913-.64 1.462-.64zm22.378.36a2.46 2.46 0 0 0-1.341-.387c-.528 0-.998.24-1.408.722-.411.481-.615 1.068-.615 1.762v5.57h-2.29V5.192h2.29v.938c.638-.737 1.485-1.104 2.544-1.104.776 0 1.372.12 1.786.357l-.966 1.96" />
      </g>
   </symbol>
   <symbol viewBox="0 0 57 20" id="logo_partner-pcc">
      <g fill="#B9B9B9" fill-rule="evenodd">
         <path d="M13.132 12.603v.273l.16 1.998 1.637-1.05.064-1.22h-1.86zm-3.732.02v.253l.287 4.308a13.25 13.25 0 0 0 1.361-.867l.192-2.997v-.717l-1.84.02zm-7.518-8.95l-.042.232.042 5.923 13.09-.02v-.07l-.043-7.135-1.829.142-.02 6.68-1.82-.01-.042-6.509-1.85.151-.021.051.032 6.246-.032.07-1.84-.01-.042-6.195-1.83.141v6.035l-.042.03-1.84-.01-.031-5.893-1.84.151zm-.925 6.57v.362h14.015l-.022-.373-13.993.01zM13.972 0l-.701.131L7.58.95h-.074l-5.646.837-.042.03.02 1.524H2.2L14.93 2.13l.043-.072V.091c.01-.08.074 0 .117 0l1.7 1.09.054 13.41-.191.162L8.464 20a36.379 36.379 0 0 1-1.318-.838l.383-6.538-.043-.03H5.668l-.053.05.36 5.772-2.434-1.544.234-4.248-.042-.03h-1.83l-.042.03.213 3.289-.362-.202-1.648-1.05-.022-3.218 14.93-.02.021-.394-14.95-.02L0 2.785.021 0h13.951zm19.631 1.826c2.455-2.096 6.332-2.25 9.314-1.16l1.105.546c-.105.528-.333 1.09-.474 1.653-.333-.034-.438-.477-.719-.648C41.27.684 38.655.445 36.638 1.178c-2.263.903-3.473 3.203-3.666 5.435-.14 2.778.403 5.52 2.911 7.089 1.877 1.294 4.894 1.363 6.858.17l.965-.767h.14c0 .528-.263 1.005-.35 1.516-2.754 1.16-6.665 1.21-9.156-.528-2.666-1.687-3.613-4.464-3.35-7.48.21-1.874 1-3.544 2.613-4.787" />
         <path d="M46.087 1.826C48.542-.27 52.419-.424 55.4.666l1.106.546c-.106.528-.333 1.09-.474 1.653-.333-.034-.438-.477-.72-.648-1.56-1.533-4.173-1.772-6.19-1.039-2.263.903-3.473 3.203-3.666 5.435-.141 2.778.403 5.52 2.91 7.089 1.877 1.294 4.895 1.363 6.859.17l.965-.767h.14c0 .528-.263 1.005-.35 1.516-2.754 1.16-6.666 1.21-9.156-.528-2.667-1.687-3.614-4.464-3.35-7.48.21-1.874 1-3.544 2.613-4.787M22.97 3.035l-.034 4.6.088.068c2.051.103 4.191-.153 5.121-2.061.473-.989.509-2.454-.158-3.374-1.14-1.5-3.174-1.125-4.929-1.142l-.087 1.909zM25.217.342c1.771-.05 3.771.103 4.753 1.773.544 1.04.614 2.572.07 3.612-1.298 2.606-4.297 2.743-7.015 2.64l-.053 3.988.158 2.914H21.2l.123-3.988-.087-8.553c-.088-.784-.088-1.602-.124-2.386h4.105z" />
      </g>
   </symbol>
   <symbol viewBox="0 0 87 20" id="logo_partner-pri">
      <defs>
         <path id="ya" d="M33.587 18.796V.374H0v18.422h33.587z" />
      </defs>
      <g fill="none" fill-rule="evenodd">
         <g transform="translate(0 1.053)">
            <mask id="yb" fill="#fff">
               <use xlink:href="#ya" />
            </mask>
            <path d="M9.01 4.937a11.79 11.79 0 0 0 1.9 2.33c1.473 1.42 3.38 2.655 5.535 3.558 3.31 1.387 6.755 1.807 9.453 1.195l1.294-.294-1.222-.512L9.546 4.326l-1.223-.513.686 1.124zm.736-.44l-.536.612 16.423 6.888.072-.806c-2.51.57-5.772.172-8.924-1.15-2.057-.861-3.875-2.038-5.27-3.384a11.001 11.001 0 0 1-1.765-2.16zM22.07 3.5c-.568.137-1.454.012-2.343-.359-1.344-.566-2.177-1.49-1.996-1.914a.32.32 0 0 1 .063-.088l-.312-.294-.237.355 4.69 3.068.135-.768zm.204.826l.956-.231-.82-.537L17.72.491l-.301-.197-.249.258c-.096.1-.172.211-.228.337-.438 1.021.72 2.307 2.449 3.035 1.048.438 2.115.588 2.883.402zm.258-1.21a.306.306 0 0 1-.024.114c-.05.114-.19.211-.436.27l.1.413.305.3.79-.783-.305-.3-.43-.015zm.86.027l.036-1.078-.771.764-.79.784-1.071 1.062 1.476-.348c.49-.116.859-.372 1.028-.763.057-.134.087-.274.092-.42zm-3.485.687c.153 4.39-1.668 9.64-5.946 14.298l.717.448 6.057-14.6-.828-.146zm.86-.03l-.069-1.976-.76 1.83-6.056 14.599-.93 2.24L14.6 18.7c4.433-4.827 6.329-10.294 6.168-14.9zm-2.214-.928c-3.463 3.088-6.126 8.234-6.56 14.734l-.16 2.415.984-2.216 6.418-14.447.806-1.814-1.488 1.328zm.576.631l-.682-.487-6.418 14.447.824.199c.418-6.273 2.975-11.215 6.276-14.159zm2.655.612c1.082 2.056 1.419 5.651.6 7.663l-.017.05a3.98 3.98 0 0 1-.104.31 8.38 8.38 0 0 1-.385.874c-.462.912-1.1 1.825-1.94 2.678-1.075 1.09-2.405 2-4.019 2.672l.566.552 6.08-14.835-.781.036zm.764-.392l-.431-.818-.35.854-6.08 14.836-.388.949.955-.398c1.722-.717 3.146-1.693 4.3-2.863a11.588 11.588 0 0 0 2.094-2.89c.303-.597.477-1.067.552-1.347l-.017.05c.918-2.256.557-6.108-.635-8.373zm-5.196-2.164c-2.473.732-5.513 3.146-6.514 5.357l.025-.047a4.88 4.88 0 0 0-.206.387 9.394 9.394 0 0 0-.429 1.047c-.85 2.468-.92 5.345.291 8.44l.374.956.42-.938L17.87 2.138l.38-.845-.897.266zm.247.814l-.517-.58-6.555 14.624.795.019c-1.133-2.895-1.068-5.569-.28-7.859.125-.362.258-.68.39-.952.078-.16.137-.266.167-.315l.025-.047c.893-1.972 3.73-4.225 5.975-4.89zM7.473 8.916c1.308 2.447 3.931 4.67 7.198 6.039 3.255 1.366 6.68 1.688 9.368.929l1.168-.33-1.117-.47L8.022 8.326l-1.115-.47.566 1.06zm.761-.397l-.549.59 16.067 6.757.05-.8c-2.488.703-5.713.4-8.795-.894-3.093-1.297-5.562-3.39-6.773-5.653zm4.486-6.731c.74 1.989 2.793 3.886 5.458 5 2.663 1.12 5.47 1.261 7.432.405l.91-.397-.916-.383L13.293 1.25l-.915-.384.342.922zm.808-.293l-.572.538 12.312 5.163-.006-.78c-1.726.752-4.29.622-6.748-.41-2.46-1.03-4.336-2.762-4.986-4.511zm-.369 16.977c4.842 2.03 10.429-.2 12.486-4.984 2.053-4.783-.205-10.305-5.044-12.339-4.841-2.028-10.432.204-12.486 4.985-2.054 4.785.203 10.309 5.044 12.338zm.336-.783c-4.403-1.846-6.456-6.87-4.588-11.223 1.869-4.349 6.954-6.379 11.357-4.534 4.402 1.85 6.456 6.873 4.589 11.223-1.871 4.351-6.954 6.38-11.358 4.534zM33.86 3.907V.824h-3.12v3.083h2.22c0 1.208-.993 2.19-2.22 2.19v.892c1.724 0 3.12-1.382 3.12-3.082m-3.992 0V.824h-3.12v3.083h2.217c0 1.208-.993 2.19-2.217 2.19v.892c1.722 0 3.12-1.382 3.12-3.082M-.097 3.455v3.082h3.12V3.455H.805c0-1.21.993-2.19 2.216-2.19V.371c-1.72 0-3.12 1.381-3.12 3.083m3.997.001v3.082h3.12V3.455h-2.22c0-1.21.993-2.19 2.22-2.19V.371c-1.725 0-3.12 1.381-3.12 3.083" fill="#B9B9B9" mask="url(#yb)" />
         </g>
         <g fill="#B9B9B9">
            <path d="M43.363 19.483h-5.468V1.62h7.18c1.723 0 3.642.05 5.167.933 1.635.99 2.61 2.768 2.61 4.688 0 1.698-.644 3.312-1.948 4.378-1.363 1.125-3.105 1.384-4.797 1.384h-2.744v6.481M44.772 9.17c1.23 0 2.716-.076 2.716-1.749 0-1.585-1.333-1.718-2.563-1.718h-1.562V9.17h1.409m20.394 10.313l-2.563-6.819H60.91v6.82h-5.468V1.618h8.95c1.542 0 3.236.203 4.542 1.098 1.465.93 2.155 2.523 2.155 4.263 0 2.345-1.02 3.755-3.102 4.717l3.177 7.786h-5.998M62.877 8.834c1.184 0 2.592-.183 2.592-1.721 0-.595-.303-1.17-.84-1.458-.466-.232-1.032-.232-1.543-.232H60.91v3.411h1.967M72.99 19.493h5.439V1.62h-5.44zM84.585 5.124l-.632-1.52h-.957v1.52h-.436V1.619h1.296c.274 0 .548.038.785.211a.993.993 0 0 1 .371.77c0 .41-.247.786-.654.901l.681 1.623h-.454M83.8 3.25c.236 0 .427-.018.595-.202a.608.608 0 0 0 .18-.449c0-.212-.075-.376-.246-.49-.15-.107-.293-.117-.473-.117h-.86V3.25h.804" />
            <path d="M83.602.337c1.278 0 2.312 1.046 2.312 2.337 0 1.299-1.03 2.34-2.312 2.34-1.276 0-2.305-1.042-2.305-2.34 0-1.29 1.033-2.337 2.305-2.337zm0-.337c-1.455 0-2.637 1.199-2.637 2.674 0 1.484 1.178 2.677 2.637 2.677 1.465 0 2.643-1.192 2.643-2.677C86.245 1.197 85.063 0 83.602 0z" />
         </g>
      </g>
   </symbol>
</svg>