<?xml version="1.0" encoding="UTF-8" standalone="no"?>
<!-- Generator: Adobe Illustrator 18.1.1, SVG Export Plug-In . SVG Version: 6.00 Build 0)  -->

<svg
   xmlns:dc="http://purl.org/dc/elements/1.1/"
   xmlns:cc="http://creativecommons.org/ns#"
   xmlns:rdf="http://www.w3.org/1999/02/22-rdf-syntax-ns#"
   xmlns:svg="http://www.w3.org/2000/svg"
   xmlns="http://www.w3.org/2000/svg"
   xmlns:sodipodi="http://sodipodi.sourceforge.net/DTD/sodipodi-0.dtd"
   xmlns:inkscape="http://www.inkscape.org/namespaces/inkscape"
   version="1.1"
   id="Capa_1"
   x="0px"
   y="0px"
   viewBox="0 0 22.080845 17.935989"
   xml:space="preserve"
   inkscape:version="0.91 r13725"
   sodipodi:docname="twitter.svg"
   width="22.080845"
   height="17.935989"><metadata
     id="metadata7133"><rdf:RDF><cc:Work
         rdf:about=""><dc:format>image/svg+xml</dc:format><dc:type
           rdf:resource="http://purl.org/dc/dcmitype/StillImage" /><dc:title></dc:title></cc:Work></rdf:RDF></metadata><defs
     id="defs7131" /><sodipodi:namedview
     pagecolor="#ffffff"
     bordercolor="#666666"
     borderopacity="1"
     objecttolerance="10"
     gridtolerance="10"
     guidetolerance="10"
     inkscape:pageopacity="0"
     inkscape:pageshadow="2"
     inkscape:window-width="1440"
     inkscape:window-height="812"
     id="namedview7129"
     showgrid="false"
     fit-margin-top="0"
     fit-margin-left="0"
     fit-margin-right="0"
     fit-margin-bottom="0"
     inkscape:zoom="4.3628026"
     inkscape:cx="-32.389265"
     inkscape:cy="4.9108803"
     inkscape:window-x="0"
     inkscape:window-y="0"
     inkscape:window-maximized="1"
     inkscape:current-layer="Capa_1" /><g
     id="g7099"
     transform="translate(23.8951,-44.528877)" /><g
     id="g7101"
     transform="translate(23.8951,-44.528877)" /><g
     id="g7103"
     transform="translate(23.8951,-44.528877)" /><g
     id="g7105"
     transform="translate(23.8951,-44.528877)" /><g
     id="g7107"
     transform="translate(23.8951,-44.528877)" /><g
     id="g7109"
     transform="translate(23.8951,-44.528877)" /><g
     id="g7111"
     transform="translate(23.8951,-44.528877)" /><g
     id="g7113"
     transform="translate(23.8951,-44.528877)" /><g
     id="g7115"
     transform="translate(23.8951,-44.528877)" /><g
     id="g7117"
     transform="translate(23.8951,-44.528877)" /><g
     id="g7119"
     transform="translate(23.8951,-44.528877)" /><g
     id="g7121"
     transform="translate(23.8951,-44.528877)" /><g
     id="g7123"
     transform="translate(23.8951,-44.528877)" /><g
     id="g7125"
     transform="translate(23.8951,-44.528877)" /><g
     id="g7127"
     transform="translate(23.8951,-44.528877)" /><g
     id="g7093"
     transform="matrix(0.03607987,0,0,0.03607987,-3.607987e-5,-2.0724638)"
     style="fill:#1badd4;fill-opacity:1"><g
       id="g7095"
       style="fill:#1badd4;fill-opacity:1"><path
         style="fill:#1badd4;fill-opacity:1"
         d="m 612,116.258 c -22.525,9.981 -46.694,16.75 -72.088,19.772 25.929,-15.527 45.777,-40.155 55.184,-69.411 -24.322,14.379 -51.169,24.82 -79.775,30.48 -22.907,-24.437 -55.49,-39.658 -91.63,-39.658 -69.334,0 -125.551,56.217 -125.551,125.513 0,9.828 1.109,19.427 3.251,28.606 -104.326,-5.24 -196.835,-55.223 -258.75,-131.174 -10.823,18.51 -16.98,40.078 -16.98,63.101 0,43.559 22.181,81.993 55.835,104.479 C 60.921,247.278 41.57,241.618 24.629,232.21 l 0,1.568 c 0,60.806 43.291,111.554 100.693,123.104 -10.517,2.83 -21.607,4.398 -33.08,4.398 -8.107,0 -15.947,-0.803 -23.634,-2.333 15.985,49.907 62.336,86.199 117.253,87.194 -42.947,33.654 -97.099,53.655 -155.916,53.655 -10.134,0 -20.116,-0.612 -29.944,-1.721 55.567,35.681 121.536,56.485 192.438,56.485 230.948,0 357.188,-191.291 357.188,-357.188 l -0.421,-16.253 C 573.872,163.526 595.211,141.422 612,116.258 Z"
         id="path7097"
         inkscape:connector-curvature="0" /></g></g></svg>