<?xml version="1.0" encoding="utf-8"?>
<!-- Generator: Adobe Illustrator 21.0.0, SVG Export Plug-In . SVG Version: 6.00 Build 0)  -->
<svg version="1.1" id="Layer_1" xmlns="http://www.w3.org/2000/svg" xmlns:xlink="http://www.w3.org/1999/xlink" x="0px" y="0px"
	 viewBox="0 0 128 70" style="enable-background:new 0 0 128 70;" xml:space="preserve">
<style type="text/css">
	.st0{fill:#EA4851;}
</style>
<g>
	<g>
		<path class="st0" d="M11.7,47.8c2.7-0.5,5.6-0.8,8.7-0.9c3.2-0.2,5.6-0.3,7.5-0.5h0.2c4.5-0.5,9.5-0.8,15.1-1.1l67.2-3l3.6-0.1
			c3.6-0.2,6.8-0.1,9.4,0.4c2.6,0.4,3.9,0.8,3.8,1.1s-0.2,0.6-0.3,1c-0.1,0.4-0.3,0.6-0.4,0.8c-0.4,0.4-2,0.7-4.6,1l-3.4,0.4
			c-2.5,0.1-4.6,0.3-6.3,0.6l-36.7,2.4c-4.9,0.5-11.2,1-18.8,1.5s-13,0.8-16.1,0.9c-1.7,0.3-3.4,0.5-5.2,0.5
			c-1.8,0.1-2.9,0.2-3.4,0.3c-1.4,0.3-4.7,0.6-9.9,0.9c-1.3,0.1-3.7-0.2-7.4-0.7l-3-1c-0.3-0.1-0.4-0.4-0.2-1
			c-0.6-0.3-0.9-0.9-0.9-1.9C11.3,49.3,11.7,48.7,11.7,47.8z"/>
	</g>
	<g>
		<path class="st0" d="M11.9,63.2c2.7-0.5,5.6-0.8,8.7-0.9c3.2-0.2,5.6-0.3,7.5-0.5h0.2c4.5-0.5,9.5-0.8,15.1-1.1l67.2-3l3.6-0.1
			c3.6-0.2,6.8-0.1,9.4,0.4c2.6,0.4,3.9,0.8,3.8,1.1s-0.2,0.6-0.3,1c-0.1,0.4-0.3,0.6-0.4,0.8c-0.4,0.4-2,0.7-4.6,1l-3.4,0.4
			c-2.5,0.1-4.6,0.3-6.3,0.6l-36.7,2.4c-4.9,0.5-11.2,1-18.8,1.5s-13,0.8-16.1,0.9c-1.7,0.3-3.4,0.5-5.2,0.5
			c-1.8,0.1-2.9,0.2-3.4,0.3c-1.4,0.3-4.7,0.6-9.9,0.9c-1.3,0.1-3.7-0.2-7.4-0.7l-3-1c-0.3-0.1-0.4-0.4-0.2-1
			c-0.6-0.3-0.9-0.9-0.9-1.9C11.5,64.7,11.9,64.1,11.9,63.2z"/>
	</g>
	<g>
		<path class="st0" d="M13.6,39.8l-1.3-0.1c-0.9-0.1-1.4-0.5-1.6-1.1c0-0.2-0.2-0.3-0.5-0.5c-0.3,0-0.6-0.2-1-0.6
			c-0.4-0.4-0.6-1.2-0.6-2.4s-0.1-2.3-0.1-3.6s0-1.9,0-2c0.1,0,0.1-0.3,0-0.7c-0.2-1.6-0.2-2.7-0.1-3.3c0.1-0.6,0.2-2.6,0.2-6
			s-0.2-5.2-0.5-5.4c0-0.1-0.2-0.1-0.5,0S7.2,14.3,7,14.4c-0.3,0.7-0.5,1-0.6,1c-0.2,0.2-0.4,0.3-0.6,0.5C5,17,3.8,17.3,2.2,17
			C1,16.9,0.3,16.7,0,16.4c-0.3-0.3-0.5-0.7-0.6-1.2s0.1-1,0.7-1.4C1.2,13,2,12.2,2.4,11.2l0.9-1L4,9.7c0-0.1,0.1-0.2,0.4-0.4
			s0.5-0.4,0.8-0.7c0.3-0.2,0.4-0.5,0.4-0.7l0.6-1c0.4-0.4,0.6-0.8,0.6-1.1c0,0,0.2-0.1,0.4-0.4C7.5,5.1,7.7,5,7.9,4.8
			c0.3-0.6,0.9-1.4,1.8-2.3c0.5-0.8,0.8-1.2,0.9-1.2c0,0,0.1-0.1,0.3-0.2C11,1,11.2,0.9,11.4,0.8c0.3-0.1,0.5-0.3,0.8-0.4
			C12.5,0.2,12.7,0,12.9,0s0.7,0,1.4,0s1.1,0.1,1.1,0.2s0.1,0.2,0.2,0.4c0.1,0.2,0.3,0.3,0.5,0.3s0.4,0.1,0.6,0.4
			c0.2,0,0.6,0.1,1.2,0.4c0.3,0.4,0.5,0.7,0.6,0.9C18.1,2.7,18,2.9,18,3.3l-0.5,5c-0.5,2.3-0.9,7.7-1,16.1c-0.2,1.2-0.2,2.2-0.2,2.9
			c0,0.7-0.1,1.8-0.2,3.3c-0.2,1.5-0.2,3-0.2,4.5s0,2.4-0.1,2.9C15.5,39.3,14.7,39.9,13.6,39.8z"/>
		<path class="st0" d="M20.7,24.4l0.4-2.7c0-0.5,0.1-1.1,0.2-1.6c0-0.7,0.3-1.7,1.1-3.2c0-0.1,0.2-0.6,0.6-1.6
			c0-0.1,0.4-1.3,1.2-3.7l0.7-1.8c0-0.2,0.1-0.5,0.3-1c0.2-0.5,0.4-1,0.5-1.4c0.1-0.5,0.2-0.9,0.4-1.4c0.6-1.1,1.1-2.1,1.6-2.9
			c0.9-1.7,2.5-2.5,5-2.4l2.1,0.1c1.3,0.3,2.3,0.6,3,0.9c1,0.3,1.7,0.7,2,1.1c0.1,0.3,0.2,1,0.2,2c0,0.5,0.2,2.6,0.5,6.3
			s0.4,5.6,0.4,5.7l0.4,2.6c0,0.2,0.5,3.2,1.5,8.7l1.5,4.2c0.9,2.2,1.4,3.4,1.4,3.5c0.1,0.1,0.3,0.5,0.6,1.3
			c0.5,1.3,0.1,2.2-1.2,2.7c-1.2,0.2-2,0.2-2.6-0.2c-0.2,0-0.7-0.1-1.5-0.5c-0.1-0.2-0.3-0.4-0.7-0.5c-0.4-0.2-0.7-0.3-0.8-0.4
			c-0.5-0.1-0.9-0.7-1.3-1.8c-0.1-0.1-0.4-0.4-0.7-0.9c-0.3-0.6-0.4-1-0.3-1.4c-0.3-0.4-0.5-1.1-0.5-2.2C36.2,31.3,36,30.3,36,29
			s-0.2-2.3-0.7-3c-2.2,1-4.5,1.7-7,1.9c-0.5,0-0.7,0.1-0.7,0.3c0,0.4-0.1,1-0.4,2l-1,6.8c0.5,3,0.1,4.6-1.1,4.8
			c-0.3,0-0.9,0.1-1.7,0.3c-0.8,0.2-1.4,0.1-2-0.3c-1-0.5-1.7-1-2.1-1.5s-0.6-1.1-0.6-1.8c0-0.6,0.1-1.8,0.3-3.7
			c0.1-0.1,0.1-0.5,0.1-1.4c0-0.8,0-1.5,0.1-1.9l1-3.8c0.1-0.1,0.3-0.7,0.5-1.9c0-0.1-0.1-0.3-0.1-0.6L20.7,24.4z M29.3,22.2
			c0.1-0.1,0.6-0.2,1.5-0.3c0.9-0.1,2-0.6,3.2-1.2c0,0,0-0.5-0.1-1.5c-0.2-1.7-0.3-2.9-0.4-3.6c-0.1-1-0.2-1.7-0.3-2.1
			c0-0.8-0.4-2.4-1-4.8l-2.7,9.2c-0.6,2.6-0.8,4.1-0.6,4.7L29.3,22.2z"/>
	</g>
	<g>
		<path class="st0" d="M54.1,30.1c1.6-0.4,3.4-0.7,5.4-0.8c2-0.1,3.5-0.2,4.6-0.4h0.1c2.8-0.4,5.9-0.7,9.4-0.9l41.6-1.8h2.2
			c2.3-0.1,4.2,0.1,5.8,0.6c1.6,0.5,2.4,0.9,2.4,1.2c0,0.3-0.1,0.6-0.2,1s-0.2,0.6-0.3,0.8c-0.3,0.4-1.2,0.7-2.9,0.9l-2.1,0.3
			c-1.6,0.1-2.9,0.2-3.9,0.4l-22.7,1.7c-3,0.4-6.9,0.8-11.6,1.2s-8,0.6-9.9,0.6c-1,0.3-2.1,0.4-3.2,0.4s-1.8,0.1-2.1,0.3
			c-0.9,0.3-2.9,0.5-6.1,0.7c-0.8,0-2.3-0.2-4.6-0.8l-1.8-1.1c-0.2-0.1-0.2-0.4-0.1-1c-0.4-0.3-0.5-0.9-0.5-1.9
			C53.9,31.5,54.2,30.9,54.1,30.1z"/>
	</g>
	<g>
		<path class="st0" d="M54.1,13.5c1.6-0.4,3.4-0.7,5.4-0.8s3.5-0.2,4.6-0.4h0.1c2.8-0.4,5.9-0.7,9.4-0.9l41.6-1.8h2.2
			c2.3-0.1,4.2,0.1,5.8,0.6c1.6,0.5,2.4,0.9,2.4,1.2s-0.1,0.6-0.2,1s-0.2,0.6-0.3,0.8c-0.3,0.4-1.2,0.7-2.9,0.9l-2.1,0.3
			c-1.6,0.1-2.9,0.2-3.9,0.4l-22.7,1.7c-3,0.4-6.9,0.8-11.6,1.2c-4.7,0.4-8,0.6-9.9,0.6c-1,0.3-2.1,0.4-3.2,0.4S67,18.8,66.7,19
			c-0.9,0.3-2.9,0.5-6.1,0.7c-0.8,0-2.3-0.2-4.6-0.8l-1.8-1.1c-0.2-0.1-0.2-0.4-0.1-1c-0.4-0.3-0.5-0.9-0.5-1.9
			C53.9,15,54.2,14.4,54.1,13.5z"/>
	</g>
</g>
</svg>
