<?xml version="1.0" encoding="UTF-8"?>
<svg width="300px" height="73px" viewBox="0 0 300 73" version="1.1" xmlns="http://www.w3.org/2000/svg" xmlns:xlink="http://www.w3.org/1999/xlink">
    <!-- Generator: Sketch 42 (36781) - http://www.bohemiancoding.com/sketch -->
    <title>Group 26</title>
    <desc>Created with Sketch.</desc>
    <defs></defs>
    <g id="Landing-Pages" stroke="none" stroke-width="1" fill="none" fill-rule="evenodd">
        <g id="show-landing-" transform="translate(-57.000000, -130.000000)" fill="#157CA9">
            <g id="Group-26" transform="translate(57.000000, 130.000000)">
                <path d="M69.2297131,71.3146442 L66.8063713,64.3341548 L47.4804636,64.3341548 L45.0571218,71.3146442 L30.7311815,71.3146442 L49.1738832,22.8208306 L65.1129517,22.8208306 L83.5556535,71.3146442 L69.2297131,71.3146442 L69.2297131,71.3146442 Z M57.1774805,35.1781509 L50.9354289,53.4299996 L63.3514061,53.4299996 L57.1774805,35.1781509 L57.1774805,35.1781509 Z" id="Fill-1"></path>
                <path d="M86.0702356,26.6024307 C86.0702356,23.0363373 88.9376134,20.1998362 92.5373466,20.1998362 C96.1346466,20.1998362 99.0762332,23.0363373 99.0762332,26.6024307 C99.0762332,30.1625043 96.1346466,33.0700383 92.5373466,33.0700383 C88.9376134,33.0700383 86.0702356,30.1625043 86.0702356,26.6024307 L86.0702356,26.6024307 Z M86.8767996,36.1966907 L98.1905943,36.1966907 L98.1905943,71.3146442 L86.8767996,71.3146442 L86.8767996,36.1966907 Z" id="Fill-2"></path>
                <path d="M106.132148,71.3146442 L106.132148,36.1966907 L117.444726,36.1966907 L117.444726,40.4875607 C119.795076,37.6546715 124.352224,35.2503877 128.538328,35.2503877 L128.538328,46.0124772 C127.881398,45.7969705 126.926416,45.7187139 125.746375,45.7187139 C122.809655,45.7187139 118.91552,46.9587801 117.444726,48.9200111 L117.444726,71.3146442 L106.132148,71.3146442" id="Fill-3"></path>
                <polyline id="Fill-4" points="144.343577 71.3146442 144.343577 33.7201701 130.608874 33.7201701 130.608874 22.8208306 170.652407 22.8208306 170.652407 33.7201701 156.982181 33.7201701 156.982181 71.3146442 144.343577 71.3146442"></polyline>
                <path d="M191.670518,71.3146442 L191.670518,67.8219916 C189.46737,70.441782 185.207057,72.1875063 180.649909,72.1875063 C175.211988,72.1875063 168.454125,68.4781432 168.454125,60.6247916 C168.454125,52.1176965 175.211988,49.2836033 180.649909,49.2836033 C185.353041,49.2836033 189.24231,50.5959064 191.670518,52.8496967 L191.670518,49.9433667 C191.670518,46.8877472 188.641341,44.8663188 184.471052,44.7784307 C180.941878,44.701378 177.288617,45.7524244 174.424889,48.1518924 L170.368954,40.7813239 C174.91637,36.9250791 181.019736,35.3238286 186.455224,35.3238286 C194.980715,35.3238286 202.989179,38.4516849 202.989179,49.3618599 L202.989179,71.3146442 L191.670518,71.3146442 L191.670518,71.3146442 Z M191.670518,62.3042988 L191.670518,59.1764424 C190.49656,57.4981392 187.854241,56.7035336 185.353041,56.7035336 C182.416321,56.7035336 179.693711,58.0074091 179.693711,60.7692654 C179.693711,63.5359374 182.416321,64.8410168 185.353041,64.8410168 C187.854241,64.8410168 190.49656,63.9729705 191.670518,62.3042988 L191.670518,62.3042988 Z" id="Fill-5"></path>
                <polygon id="Fill-6" points="210.936815 22.8208306 222.244527 22.8208306 222.244527 71.3146442 210.936815 71.3146442"></polygon>
                <polyline id="Fill-7" points="252.668903 71.3146442 244.881849 58.8838831 241.504742 62.8833977 241.504742 71.3146442 230.186081 71.3146442 230.186081 22.8208306 241.504742 22.8208306 241.504742 50.2323142 252.300292 36.1966907 265.962003 36.1966907 252.88423 52.1947491 266.632315 71.3146442 252.668903 71.3146442"></polyline>
                <path d="M17.5706836,46.8143064 C16.1984298,43.8971409 15.5098698,41.402561 15.073133,37.8641584 L11.2045452,40.3346593 C9.98800814,35.1010982 9.71793691,29.2655632 11.4150061,22.6595016 C12.7154842,17.5848616 14.6242309,14.5328539 16.862659,11.4615831 L13.72521,0 C8.58290784,4.28485023 4.50507563,11.0895632 2.23258441,17.7281314 C-1.67736568,29.1596158 -0.221170828,43.8501869 4.80556028,54.7374869 L17.5706836,46.8143064" id="Fill-8"></path>
                <path d="M26.05238,31.9479589 C25.7969072,29.2414842 26.1229391,26.2869963 27.4708622,22.8713964 C28.3601507,20.6176061 29.8552748,18.8586384 31.4173084,17.1947825 L29.1642817,9.15963489 C25.8650332,11.6770897 21.6667639,16.2304203 19.6825919,22.789528 C18.389413,27.07799 17.125431,35.6513024 21.0816095,44.5123582 L30.4501614,38.6720074 C29.2032109,35.243164 28.9891004,31.8191365 29.0389784,30.0457214 L26.05238,31.9479589" id="Fill-9"></path>
                <path d="M274.753916,12.4500242 C277.107916,14.6713079 278.652918,16.7469139 280.367018,19.881994 L283.059215,16.1906901 C286.127321,20.6332575 288.5166,25.9631344 289.370609,32.7365447 C290.028756,37.91954 289.376692,41.4591466 288.415627,45.1227597 L295.557917,54.6700658 C298.768358,48.8224913 300.061537,41.0160938 299.740371,34.0163412 C299.166165,21.9636198 292.407086,8.7972466 283.72831,0.47676333 L274.753916,12.4500242" id="Fill-10"></path>
                <path d="M272.319626,29.3546553 C273.555627,31.7830181 274.342727,34.6508217 274.336644,38.3216586 C274.336644,40.7391858 273.59699,42.9159234 272.745414,45.0360755 L277.798909,51.7083542 C279.958262,48.1687477 282.194257,42.4090614 281.621268,35.589901 C281.256307,31.1352941 279.272135,22.6859885 272.330575,15.8644202 L265.751542,24.6761142 C268.172451,27.4199112 269.639595,30.5405439 270.234481,32.2031958 L272.319626,29.3546553" id="Fill-11"></path>
            </g>
        </g>
    </g>
</svg>