<?xml version="1.0" encoding="UTF-8"?>
<svg width="4013px" height="940px" viewBox="0 0 4013 940" version="1.1" xmlns="http://www.w3.org/2000/svg" xmlns:xlink="http://www.w3.org/1999/xlink">
    <!-- Generator: Sketch 51.3 (57544) - http://www.bohemiancoding.com/sketch -->
    <title>AirTalk - Color</title>
    <desc>Created with Sketch.</desc>
    <defs>
        <path d="M96.013,102.759 L83.561,102.759 L69.221,70.706 L48.466,70.706 L48.466,102.759 L37.334,102.759 L37.334,27.339 L69.221,27.339 C84.315,27.339 94.881,36.201 94.881,48.834 C94.881,57.884 89.598,65.049 80.353,68.254 L96.013,102.759 Z M48.466,61.844 L67.9,61.844 C77.334,61.844 82.994,56.753 82.994,48.645 C82.994,41.292 77.711,36.767 69.221,36.767 L48.466,36.767 L48.466,61.844 Z M66.391,0 C101.296,0 130.353,29.602 130.353,64.861 C130.353,100.873 101.296,129.91 65.447,129.91 C29.221,129.91 0.353,100.873 0.353,64.483 C0.353,28.659 29.787,0 66.391,0 Z M66.202,9.239 C49.221,9.239 35.07,15.461 23.938,27.717 C14.881,37.71 9.598,51.097 9.598,64.483 C9.598,95.782 34.315,120.671 65.447,120.671 C96.202,120.671 121.107,95.782 121.107,64.861 C121.107,34.693 96.013,9.239 66.202,9.239 Z" id="path-1"></path>
        <path d="M501.947,631.464 L470.375,540.584 L218.591,540.584 L187.019,631.464 L0.376,631.464 L240.653,0.11 L448.312,0.11 L688.59,631.464 L501.947,631.464 Z M344.927,160.994 L263.603,398.619 L425.362,398.619 L344.927,160.994 Z" id="path-3"></path>
        <path d="M0.351,84.344 C0.351,37.916 37.708,0.987 84.606,0.987 C131.473,0.987 169.797,37.916 169.797,84.344 C169.797,130.694 131.473,168.548 84.606,168.548 C37.708,168.548 0.351,130.694 0.351,84.344 Z M10.859,666.464 L10.859,209.254 L158.259,209.254 L158.259,666.464 L10.859,666.464 Z" id="path-5"></path>
        <path d="M0.724,470.464 L0.724,13.254 L148.108,13.254 L148.108,69.118 C178.729,32.236 238.101,0.934 292.639,0.934 L292.639,141.049 C284.08,138.243 271.638,137.224 256.264,137.224 C218.004,137.224 167.27,153.369 148.108,178.903 L148.108,470.464 L0.724,470.464 Z" id="path-7"></path>
        <polygon id="path-9" points="179.555 631.464 179.555 142.012 0.614 142.012 0.614 0.11 522.315 0.11 522.315 142.012 344.214 142.012 344.214 631.464"></polygon>
        <path d="M303.145,469.464 L303.145,423.993 C274.442,458.1 218.937,480.828 159.565,480.828 C88.718,480.828 0.675,432.535 0.675,330.29 C0.675,219.534 88.718,182.636 159.565,182.636 C220.839,182.636 271.51,199.722 303.145,229.064 L303.145,191.226 C303.145,151.444 263.68,125.127 209.348,123.982 C163.369,122.979 115.773,136.663 78.464,167.902 L25.621,71.943 C84.867,21.737 164.383,0.89 235.198,0.89 C346.272,0.89 450.608,41.613 450.608,183.655 L450.608,469.464 L303.145,469.464 Z M303.145,352.156 L303.145,311.434 C287.851,289.584 253.426,279.238 220.839,279.238 C182.579,279.238 147.108,296.214 147.108,332.171 C147.108,368.191 182.579,385.183 220.839,385.183 C253.426,385.183 287.851,373.881 303.145,352.156 Z" id="path-11"></path>
        <polygon id="path-13" points="0.153 0.11 147.474 0.11 147.474 631.464 0.153 631.464"></polygon>
        <polygon id="path-15" points="293.852 631.464 192.4 469.625 148.402 521.696 148.402 631.464 0.938 631.464 0.938 0.11 148.402 0.11 148.402 356.988 289.05 174.254 467.039 174.254 296.657 382.537 475.772 631.464"></polygon>
        <path d="M228.917,609.488 L62.608,712.642 C-2.882,570.897 -21.853,379.637 29.087,230.807 C58.693,144.378 111.821,55.786 178.816,0 L219.692,149.221 C190.529,189.207 165.661,228.942 148.718,295.01 C126.608,381.016 130.127,456.991 145.976,525.128 L196.377,492.964 C202.068,539.031 211.038,571.509 228.917,609.488 Z" id="path-17"></path>
        <path d="M100.419,296.939 L139.329,272.173 C138.679,295.262 141.469,339.84 157.714,384.481 L35.658,460.518 C-15.885,345.154 0.583,233.536 17.431,177.703 C43.281,92.308 97.978,33.027 140.962,0.252 L170.315,104.863 C149.964,126.526 130.485,149.426 118.899,178.769 C101.338,223.237 97.09,261.703 100.419,296.939 Z" id="path-19"></path>
        <path d="M0.583,156.09 L117.504,0.207 C230.574,108.534 318.633,279.95 326.114,436.868 C330.298,527.999 313.451,629.633 271.624,705.764 L178.572,581.465 C191.093,533.768 199.588,487.685 191.013,420.206 C179.887,332.021 148.759,262.63 108.787,204.791 L73.712,252.849 C51.38,212.032 31.251,185.01 0.583,156.09 Z" id="path-21"></path>
        <path d="M85.868,176.176 L58.702,213.262 C50.951,191.616 31.837,150.987 0.297,115.265 L86.01,0.543 C176.447,89.355 202.298,199.359 207.053,257.354 C214.518,346.135 185.386,421.122 157.254,467.205 L91.415,380.337 C102.51,352.734 112.146,324.394 112.146,292.92 C112.226,245.128 101.971,207.792 85.868,176.176 Z" id="path-23"></path>
    </defs>
    <g id="Page-1" stroke="none" stroke-width="1" fill="none" fill-rule="evenodd">
        <g id="AirTalk---Color">
            <g id="Group-3" transform="translate(3882.000000, 0.000000)">
                <mask id="mask-2" fill="white">
                    <use xlink:href="#path-1"></use>
                </mask>
                <g id="Clip-2"></g>
                <polygon id="Fill-1" fill="#000000" mask="url(#mask-2)" points="0.34 130 130.42 130 130.42 -0.08 0.34 -0.08"></polygon>
            </g>
            <g id="Group-6" transform="translate(400.000000, 297.000000)">
                <mask id="mask-4" fill="white">
                    <use xlink:href="#path-3"></use>
                </mask>
                <g id="Clip-5"></g>
                <polygon id="Fill-4" fill="#027EA9" mask="url(#mask-4)" points="0.3 631.48 688.62 631.48 688.62 0.04 0.3 0.04"></polygon>
            </g>
            <g id="Group-9" transform="translate(1121.000000, 262.000000)">
                <mask id="mask-6" fill="white">
                    <use xlink:href="#path-5"></use>
                </mask>
                <g id="Clip-8"></g>
                <polygon id="Fill-7" fill="#027EA9" mask="url(#mask-6)" points="0.26 666.48 169.82 666.48 169.82 0.96 0.26 0.96"></polygon>
            </g>
            <g id="Group-12" transform="translate(1382.000000, 458.000000)">
                <mask id="mask-8" fill="white">
                    <use xlink:href="#path-7"></use>
                </mask>
                <g id="Clip-11"></g>
                <polygon id="Fill-10" fill="#027EA9" mask="url(#mask-8)" points="0.62 470.48 292.7 470.48 292.7 0.92 0.62 0.92"></polygon>
            </g>
            <g id="Group-15" transform="translate(1701.000000, 297.000000)">
                <mask id="mask-10" fill="white">
                    <use xlink:href="#path-9"></use>
                </mask>
                <g id="Clip-14"></g>
                <polygon id="Fill-13" fill="#027EA9" mask="url(#mask-10)" points="0.58 631.48 522.34 631.48 522.34 0.04 0.58 0.04"></polygon>
            </g>
            <g id="Group-18" transform="translate(2194.000000, 459.000000)">
                <mask id="mask-12" fill="white">
                    <use xlink:href="#path-11"></use>
                </mask>
                <g id="Clip-17"></g>
                <polygon id="Fill-16" fill="#027EA9" mask="url(#mask-12)" points="0.66 480.88 450.66 480.88 450.66 0.88 0.66 0.88"></polygon>
            </g>
            <g id="Group-21" transform="translate(2748.000000, 297.000000)">
                <mask id="mask-14" fill="white">
                    <use xlink:href="#path-13"></use>
                </mask>
                <g id="Clip-20"></g>
                <polygon id="Fill-19" fill="#027EA9" mask="url(#mask-14)" points="0.1 631.48 147.58 631.48 147.58 0.04 0.1 0.04"></polygon>
            </g>
            <g id="Group-24" transform="translate(2998.000000, 297.000000)">
                <mask id="mask-16" fill="white">
                    <use xlink:href="#path-15"></use>
                </mask>
                <g id="Clip-23"></g>
                <polygon id="Fill-22" fill="#027EA9" mask="url(#mask-16)" points="0.9 631.48 475.86 631.48 475.86 0.04 0.9 0.04"></polygon>
            </g>
            <g id="Group-27">
                <mask id="mask-18" fill="white">
                    <use xlink:href="#path-17"></use>
                </mask>
                <g id="Clip-26"></g>
                <polygon id="Fill-25" fill="#027EA9" mask="url(#mask-18)" points="-0.02 712.72 228.94 712.72 228.94 -0.08 -0.02 -0.08"></polygon>
            </g>
            <g id="Group-30" transform="translate(239.000000, 119.000000)">
                <mask id="mask-20" fill="white">
                    <use xlink:href="#path-19"></use>
                </mask>
                <g id="Clip-29"></g>
                <polygon id="Fill-28" fill="#027EA9" mask="url(#mask-20)" points="0.86 460.52 170.42 460.52 170.42 0.2 0.86 0.2"></polygon>
            </g>
            <g id="Group-33" transform="translate(3579.000000, 6.000000)">
                <mask id="mask-22" fill="white">
                    <use xlink:href="#path-21"></use>
                </mask>
                <g id="Clip-32"></g>
                <polygon id="Fill-31" fill="#027EA9" mask="url(#mask-22)" points="0.58 705.88 326.74 705.88 326.74 0.16 0.58 0.16"></polygon>
            </g>
            <g id="Group-36" transform="translate(3462.000000, 206.000000)">
                <mask id="mask-24" fill="white">
                    <use xlink:href="#path-23"></use>
                </mask>
                <g id="Clip-35"></g>
                <polygon id="Fill-34" fill="#027EA9" mask="url(#mask-24)" points="0.22 467.24 208.3 467.24 208.3 0.44 0.22 0.44"></polygon>
            </g>
        </g>
    </g>
</svg>