<?xml version="1.0" encoding="UTF-8"?>
<svg width="301px" height="51px" viewBox="0 0 301 51" version="1.1" xmlns="http://www.w3.org/2000/svg" xmlns:xlink="http://www.w3.org/1999/xlink">
    <!-- Generator: Sketch 42 (36781) - http://www.bohemiancoding.com/sketch -->
    <title>FilmWeek</title>
    <desc>Created with Sketch.</desc>
    <defs></defs>
    <g id="13-Filmweek" stroke="none" stroke-width="1" fill="none" fill-rule="evenodd">
        <path d="M0.5475,49.2439666 L11.4806476,49.2439666 L11.4806476,32.8790641 L27.5669986,32.8790641 L27.5669986,23.8261393 L11.4806476,23.8261393 L11.4806476,14.8428524 L31.6756337,14.8428524 L31.6756337,5.72028969 L0.5475,5.72028969 L0.5475,49.2439666 Z M48.8065529,6.55594429 C48.8065529,2.79549861 46.4388649,0.776 42.4695056,0.776 C38.5697841,0.776 36.1324582,2.79549861 36.1324582,6.55594429 C36.1324582,10.2467521 38.5697841,12.2662507 42.4695056,12.2662507 C46.4388649,12.2662507 48.8065529,10.2467521 48.8065529,6.55594429 Z M47.8316226,49.2439666 L47.8316226,16.0963343 L37.1073886,17.419454 L37.1073886,49.2439666 L47.8316226,49.2439666 Z M66.2160237,49.2439666 L66.2160237,1.89020613 L55.4917897,3.21332591 L55.4917897,49.2439666 L66.2160237,49.2439666 Z M125.338586,49.2439666 L125.338586,27.0294819 C125.338586,20.0656936 121.508503,15.8177827 115.241093,15.8177827 C110.853907,15.8177827 107.023823,18.1158329 104.029394,21.597727 C102.497361,17.8372813 98.9458287,15.8177827 94.9068315,15.8177827 C90.6589206,15.8177827 87.455578,17.6980056 84.6004248,20.6227967 L84.6004248,16.0963343 L73.8761908,17.419454 L73.8761908,49.2439666 L84.6004248,49.2439666 L84.6004248,26.8902061 C85.9235446,25.776 87.6644916,24.9403454 89.823266,24.9403454 C92.5391435,24.9403454 94.2800905,26.2634652 94.2800905,30.1631866 L94.2800905,49.2439666 L105.004325,49.2439666 L105.004325,27.0294819 C106.257806,25.9152758 108.068391,24.9403454 110.227166,24.9403454 C112.943043,24.9403454 114.614352,26.2634652 114.614352,30.1631866 L114.614352,49.2439666 L125.338586,49.2439666 Z M162.316302,18.2551086 L153.750843,49.2439666 L142.260592,49.2439666 L130.631065,5.72028969 L142.469506,5.72028969 L148.319088,36.500234 L156.118531,5.72028969 L168.792625,5.72028969 L176.731344,36.500234 L182.580926,5.72028969 L193.931901,5.72028969 L182.302375,49.2439666 L170.742486,49.2439666 L162.316302,18.2551086 Z M204.099032,35.4556657 L204.099032,35.5949415 C204.447221,39.9124903 207.44165,42.419454 212.664492,42.419454 C216.216024,42.419454 219.976469,41.1659721 223.24945,39.2857493 L224.294018,47.5726574 C221.021038,49.2439666 216.355299,50.2188969 211.689561,50.2188969 C200.686776,50.2188969 193.583712,44.0907632 193.583712,33.2968914 C193.583712,22.7119331 200.826052,15.8177827 211.132458,15.8177827 C220.324659,15.8177827 225.338586,21.3191755 225.338586,29.3971699 C225.338586,31.138117 225.060035,33.7147187 224.642208,35.1074763 L204.099032,35.4556657 Z M204.16867,30.0935487 L215.380369,30.0239109 L215.380369,29.3971699 C215.380369,25.5670864 213.778698,23.1993983 210.436079,23.1993983 C206.745272,23.1993983 204.516859,26.4027409 204.16867,30.0935487 Z M240.171455,35.4556657 L240.171455,35.5949415 C240.519645,39.9124903 243.514074,42.419454 248.736915,42.419454 C252.288447,42.419454 256.048893,41.1659721 259.321873,39.2857493 L260.366442,47.5726574 C257.093461,49.2439666 252.427723,50.2188969 247.761985,50.2188969 C236.759199,50.2188969 229.656135,44.0907632 229.656135,33.2968914 C229.656135,22.7119331 236.898475,15.8177827 247.204882,15.8177827 C256.397082,15.8177827 261.41101,21.3191755 261.41101,29.3971699 C261.41101,31.138117 261.132458,33.7147187 260.714631,35.1074763 L240.171455,35.4556657 Z M240.241093,30.0935487 L251.452792,30.0239109 L251.452792,29.3971699 C251.452792,25.5670864 249.851121,23.1993983 246.508503,23.1993983 C242.817695,23.1993983 240.589283,26.4027409 240.241093,30.0935487 Z M278.263377,34.0629081 L288.36087,49.2439666 L300.5475,49.2439666 L288.569784,32.2523231 L300.477862,16.862351 L288.151957,16.862351 L278.263377,30.7899276 L278.19374,30.7899276 L278.19374,1.89020613 L267.469506,3.21332591 L267.469506,49.2439666 L278.19374,49.2439666 L278.19374,34.0629081 L278.263377,34.0629081 Z" id="FilmWeek" fill="#3A8F94"></path>
    </g>
</svg>