<?xml version="1.0" encoding="UTF-8"?>
<svg width="300px" height="90px" viewBox="0 0 300 90" version="1.1" xmlns="http://www.w3.org/2000/svg" xmlns:xlink="http://www.w3.org/1999/xlink">
    <!-- Generator: Sketch 42 (36781) - http://www.bohemiancoding.com/sketch -->
    <title>Group</title>
    <desc>Created with Sketch.</desc>
    <defs></defs>
    <g id="14-Filmweek-Marquee" stroke="none" stroke-width="1" fill="none" fill-rule="evenodd">
        <g id="Group" fill="#007798">
            <path d="M53.6534474,83.7931034 L55.2827578,83.7931034 L59.2784474,59.5474138 L56.7956888,59.5474138 L43.6448268,82.4741379 L39.2999992,59.5474138 L37.0112061,59.5474138 L31.5025854,83.7931034 L33.1706888,83.7931034 L38.1362061,61.4094828 L42.4422406,83.8318966 L44.5370681,83.8318966 L57.4163785,61.4482759 L53.6534474,83.7931034 Z M87.4499994,59.5474138 L91.8724132,83.7931034 L90.3206891,83.7931034 L89.0405167,76.6163793 L77.2862063,76.6163793 L73.2517236,83.7931034 L71.4672408,83.7931034 L85.4327581,59.5474138 L87.4499994,59.5474138 Z M88.7301719,75.1422414 L86.2474132,61.0215517 L78.1396546,75.1422414 L88.7301719,75.1422414 Z M112.168965,73.7456897 L110.22931,83.7931034 L108.6,83.7931034 L113.293965,59.5474138 L118.181896,59.5474138 C123.884482,59.5474138 126.367241,62.5344828 126.367241,65.987069 C126.367241,70.3318966 122.449138,72.6982759 119.151724,73.2413793 L123.651724,83.7931034 L121.944827,83.7931034 L117.6,73.4353448 L112.168965,73.7456897 Z M112.47931,72.3103448 L116.746551,72.2327586 C120.470689,72.1163793 124.660345,70.3706897 124.660345,66.1422414 C124.660345,63.1551724 122.681896,61.0215517 118.10431,61.0215517 L114.651724,61.0215517 L112.47931,72.3103448 Z M155.663793,83.7543103 L162.918103,88.6810345 L161.987069,90 L153.724138,84.1034483 C153.297414,84.1422414 152.87069,84.1810345 152.405172,84.1810345 C146.159483,84.1810345 141.698276,79.4482759 141.698276,73.1637931 C141.698276,65.7543103 147.24569,59.1594828 154.887931,59.1594828 C161.133621,59.1594828 165.517241,63.8146552 165.517241,70.0603448 C165.517241,76.3060345 161.560345,82.125 155.663793,83.7543103 Z M163.887931,70.0991379 C163.887931,64.6681034 160.125,60.5560345 154.655172,60.5560345 C147.943966,60.5560345 143.327586,66.8017241 143.327586,73.1637931 C143.327586,78.5560345 147.012931,82.7456897 152.521552,82.7456897 C159.193966,82.7456897 163.887931,76.4224138 163.887931,70.0991379 Z M189.654311,84.1810345 C194.736207,84.1810345 197.878449,80.8448276 198.925862,75.5301724 L201.990518,59.5474138 L200.4,59.5474138 L197.374138,75.2198276 C196.443104,79.875 193.727586,82.7456897 189.77069,82.7456897 C185.154311,82.7456897 182.826724,80.4568966 182.826724,77.2758621 C182.826724,75.8017241 183.137069,74.4827586 183.292242,73.7068966 L186.046552,59.5474138 L184.456035,59.5474138 L181.701724,73.512931 C181.546552,74.3275862 181.236207,75.9568966 181.236207,77.4698276 C181.236207,81.3491379 184.456035,84.1810345 189.654311,84.1810345 Z M229.502587,83.7931034 L229.812932,82.3189655 L217.554311,82.3189655 L219.493966,72.387931 L229.735345,72.387931 L230.006897,70.9525862 L219.765518,70.9525862 L221.66638,61.0215517 L233.925001,61.0215517 L234.235345,59.5474138 L220.347414,59.5474138 L215.614656,83.7931034 L229.502587,83.7931034 Z M261.087932,83.7931034 L261.398277,82.3189655 L249.139656,82.3189655 L251.079311,72.387931 L261.32069,72.387931 L261.592242,70.9525862 L251.350863,70.9525862 L253.251725,61.0215517 L265.510346,61.0215517 L265.82069,59.5474138 L251.932759,59.5474138 L247.200001,83.7931034 L261.087932,83.7931034 Z" id="MARQUEE"></path>
            <path d="M0.141594828,48.6206897 L11.0639224,48.6206897 L11.0639224,32.2719828 L27.1343534,32.2719828 L27.1343534,23.2280172 L11.0639224,23.2280172 L11.0639224,14.2536207 L31.2389224,14.2536207 L31.2389224,5.14008621 L0.141594828,5.14008621 L0.141594828,48.6206897 Z M48.3528879,5.97491379 C48.3528879,2.21818966 45.9875431,0.200689655 42.0221121,0.200689655 C38.12625,0.200689655 35.6913362,2.21818966 35.6913362,5.97491379 C35.6913362,9.66206897 38.12625,11.679569 42.0221121,11.679569 C45.9875431,11.679569 48.3528879,9.66206897 48.3528879,5.97491379 Z M47.3789224,48.6206897 L47.3789224,15.5058621 L36.6653017,16.8276724 L36.6653017,48.6206897 L47.3789224,48.6206897 Z M65.7451293,48.6206897 L65.7451293,1.3137931 L55.0315086,2.63560345 L55.0315086,48.6206897 L65.7451293,48.6206897 Z M124.809181,48.6206897 L124.809181,26.4281897 C124.809181,19.4712931 120.982888,15.2275862 114.721681,15.2275862 C110.338836,15.2275862 106.512543,17.5233621 103.521078,21.0018103 C101.99056,17.2450862 98.4425431,15.2275862 94.4075431,15.2275862 C90.1638362,15.2275862 86.9636638,17.1059483 84.1113362,20.0278448 L84.1113362,15.5058621 L73.3977155,16.8276724 L73.3977155,48.6206897 L84.1113362,48.6206897 L84.1113362,26.2890517 C85.4331466,25.1759483 87.1723707,24.3411207 89.3290086,24.3411207 C92.0421983,24.3411207 93.7814224,25.662931 93.7814224,29.5587931 L93.7814224,48.6206897 L104.495043,48.6206897 L104.495043,26.4281897 C105.747284,25.3150862 107.556078,24.3411207 109.712716,24.3411207 C112.425905,24.3411207 114.09556,25.662931 114.09556,29.5587931 L114.09556,48.6206897 L124.809181,48.6206897 Z M161.750302,17.6625 L153.193319,48.6206897 L141.71444,48.6206897 L130.096422,5.14008621 L141.923147,5.14008621 L147.76694,35.889569 L155.558664,5.14008621 L168.220216,5.14008621 L176.151078,35.889569 L181.994871,5.14008621 L193.334612,5.14008621 L181.716595,48.6206897 L170.168147,48.6206897 L161.750302,17.6625 Z M203.491681,34.8460345 L203.491681,34.9851724 C203.839526,39.2984483 206.830991,41.802931 212.048664,41.802931 C215.596681,41.802931 219.353405,40.5506897 222.623147,38.6723276 L223.666681,46.9510345 C220.39694,48.6206897 215.735819,49.5946552 211.074698,49.5946552 C200.082802,49.5946552 192.986767,43.4725862 192.986767,32.6893966 C192.986767,22.1149138 200.22194,15.2275862 210.518147,15.2275862 C219.70125,15.2275862 224.710216,20.7235345 224.710216,28.7935345 C224.710216,30.5327586 224.43194,33.1068103 224.014526,34.4981897 L203.491681,34.8460345 Z M203.56125,29.4892241 L214.761853,29.4196552 L214.761853,28.7935345 C214.761853,24.9672414 213.161767,22.6018966 209.822457,22.6018966 C206.135302,22.6018966 203.909095,25.802069 203.56125,29.4892241 Z M239.528405,34.8460345 L239.528405,34.9851724 C239.87625,39.2984483 242.867716,41.802931 248.085388,41.802931 C251.633405,41.802931 255.390129,40.5506897 258.659871,38.6723276 L259.703405,46.9510345 C256.433664,48.6206897 251.772543,49.5946552 247.111422,49.5946552 C236.119526,49.5946552 229.023491,43.4725862 229.023491,32.6893966 C229.023491,22.1149138 236.258664,15.2275862 246.554871,15.2275862 C255.737974,15.2275862 260.74694,20.7235345 260.74694,28.7935345 C260.74694,30.5327586 260.468664,33.1068103 260.05125,34.4981897 L239.528405,34.8460345 Z M239.597974,29.4892241 L250.798578,29.4196552 L250.798578,28.7935345 C250.798578,24.9672414 249.198491,22.6018966 245.859181,22.6018966 C242.172026,22.6018966 239.945819,25.802069 239.597974,29.4892241 Z M277.582629,33.4546552 L287.670129,48.6206897 L299.844698,48.6206897 L287.878836,31.6458621 L299.775129,16.2711207 L287.461422,16.2711207 L277.582629,30.1849138 L277.51306,30.1849138 L277.51306,1.3137931 L266.79944,2.63560345 L266.79944,48.6206897 L277.51306,48.6206897 L277.51306,33.4546552 L277.582629,33.4546552 Z" id="FilmWeek"></path>
        </g>
    </g>
</svg>