<?xml version="1.0" encoding="UTF-8"?>
<svg width="1079px" height="494px" viewBox="0 0 1079 494" version="1.1" xmlns="http://www.w3.org/2000/svg" xmlns:xlink="http://www.w3.org/1999/xlink">
    <!-- Generator: Sketch 42 (36781) - http://www.bohemiancoding.com/sketch -->
    <title>Group</title>
    <desc>Created with Sketch.</desc>
    <defs></defs>
    <g id="17-Latest-News" stroke="none" stroke-width="1" fill="none" fill-rule="evenodd">
        <g id="Group" fill="#F87E21">
            <path d="M173.4095,400.181 L69.1495,237.375 L0.1775,237.375 L0.1775,488 L59.9265,488 L59.9265,325.595 L165.3895,490.406 L233.1585,490.406 L233.1585,237.375 L173.4095,237.375 L173.4095,400.181 Z M468.5455,488 L468.5455,436.672 L347.8445,436.672 L347.8445,387.75 L444.8865,387.75 L444.8865,336.823 L347.8445,336.823 L347.8445,288.703 L468.5455,288.703 L468.5455,237.375 L285.2885,237.375 L285.2885,488 L468.5455,488 Z M677.4665,309.555 L725.9875,488 L792.5535,488 L859.5205,237.375 L794.1575,237.375 L760.4735,414.617 L714.7595,237.375 L641.7775,237.375 L596.8655,414.617 L563.1815,237.375 L495.0115,237.375 L561.9785,488 L628.1435,488 L677.4665,309.555 Z M970.1965,441.484 C939.3195,441.484 909.2445,431.459 884.3825,418.226 L872.3525,471.158 C895.6105,484.391 931.7005,494.015 968.9935,494.015 C1034.7575,494.015 1071.6495,460.331 1071.6495,412.612 C1071.6495,364.893 1031.5495,347.249 993.0535,336.823 C962.9785,328.402 940.1215,321.986 940.1215,305.545 C940.1215,291.911 950.9485,284.292 973.0035,284.292 C997.8655,284.292 1029.1435,293.114 1054.0055,306.347 L1066.4365,253.816 C1042.3765,240.583 1011.9005,231.761 972.6025,231.761 C910.4475,231.761 876.3625,262.638 876.3625,309.154 C876.3625,359.279 920.4725,376.121 956.9635,386.146 C990.2465,395.369 1008.2915,400.983 1008.2915,417.825 C1008.2915,433.063 992.6525,441.484 970.1965,441.484 Z" id="NEWS-Copy"></path>
            <path d="M134.208,202 L134.208,159.972 L51.416,159.972 L51.416,4.5 L1.172,4.5 L1.172,202 L134.208,202 Z M278.62,4.5 L347.508,202 L297.58,202 L283.044,159.972 L209.732,159.972 L195.512,202 L145.584,202 L215.736,4.5 L278.62,4.5 Z M271.984,120.788 L246.704,43.368 L220.476,120.788 L271.984,120.788 Z M531.104,46.528 L531.104,4.5 L355.092,4.5 L355.092,46.528 L417.976,46.528 L417.976,202 L468.22,202 L468.22,46.528 L531.104,46.528 Z M703.324,202 L703.324,161.552 L608.208,161.552 L608.208,123 L684.68,123 L684.68,82.868 L608.208,82.868 L608.208,44.948 L703.324,44.948 L703.324,4.5 L558.912,4.5 L558.912,202 L703.324,202 Z M803.18,165.344 C778.848,165.344 755.148,157.444 735.556,147.016 L726.076,188.728 C744.404,199.156 772.844,206.74 802.232,206.74 C854.056,206.74 883.128,180.196 883.128,142.592 C883.128,104.988 851.528,91.084 821.192,82.868 C797.492,76.232 779.48,71.176 779.48,58.22 C779.48,47.476 788.012,41.472 805.392,41.472 C824.984,41.472 849.632,48.424 869.224,58.852 L879.02,17.456 C860.06,7.028 836.044,0.076 805.076,0.076 C756.096,0.076 729.236,24.408 729.236,61.064 C729.236,100.564 763.996,113.836 792.752,121.736 C818.98,129.004 833.2,133.428 833.2,146.7 C833.2,158.708 820.876,165.344 803.18,165.344 Z M1078.1,46.528 L1078.1,4.5 L902.088,4.5 L902.088,46.528 L964.972,46.528 L964.972,202 L1015.216,202 L1015.216,46.528 L1078.1,46.528 Z" id="LATEST-Copy"></path>
        </g>
    </g>
</svg>