<?xml version="1.0" encoding="UTF-8"?>
<svg width="1201px" height="283px" viewBox="0 0 1201 283" version="1.1" xmlns="http://www.w3.org/2000/svg" xmlns:xlink="http://www.w3.org/1999/xlink">
    <!-- Generator: Sketch 42 (36781) - http://www.bohemiancoding.com/sketch -->
    <title>Group</title>
    <desc>Created with Sketch.</desc>
    <defs></defs>
    <g id="15-The-Loh-Down-on-Science" stroke="none" stroke-width="1" fill="none" fill-rule="evenodd">
        <g id="Group" fill="#7143AF">
            <path d="M153.779935,126.273212 L153.779935,4.77164727 L107.257031,4.77164727 L107.257031,161.955828 L208.433056,161.955828 L213.175682,126.273212 L153.779935,126.273212 Z M291.090254,0.254860475 C243.889832,0.254860475 217.692469,32.0982074 217.692469,83.1378981 C217.692469,135.306786 243.889832,166.472614 291.090254,166.472614 C338.290676,166.472614 364.488039,134.177589 364.488039,83.1378981 C364.488039,30.9690107 338.290676,0.254860475 291.090254,0.254860475 L291.090254,0.254860475 Z M291.090254,33.2274041 C308.705722,33.2274041 316.158421,46.7777644 316.158421,83.1378981 C316.158421,119.498032 309.157401,133.500071 291.090254,133.500071 C273.474785,133.500071 266.022087,119.498032 266.022087,83.1378981 C266.022087,46.7777644 273.474785,33.2274041 291.090254,33.2274041 L291.090254,33.2274041 Z M461.147277,98.4949732 L461.147277,161.955828 L507.670181,161.955828 L507.670181,4.77164727 L461.147277,4.77164727 L461.147277,62.8123575 L425.238822,62.8123575 L425.238822,4.77164727 L378.715918,4.77164727 L378.715918,161.955828 L425.238822,161.955828 L425.238822,98.4949732 L461.147277,98.4949732 Z M627.139191,4.77164727 L576.777019,4.77164727 L576.777019,161.955828 L629.849263,161.955828 C673.662095,161.955828 710.699747,145.469556 710.699747,82.6862194 C710.699747,18.0961683 670.274505,4.77164727 627.139191,4.77164727 L627.139191,4.77164727 Z M623.299923,37.5183515 L632.785175,37.5183515 C652.659037,37.5183515 662.821807,47.0036038 662.821807,82.6862194 C662.821807,118.368835 653.562394,129.209123 632.559335,129.209123 L623.299923,129.209123 L623.299923,37.5183515 Z M793.131106,0.254860475 C745.930684,0.254860475 719.733321,32.0982074 719.733321,83.1378981 C719.733321,135.306786 745.930684,166.472614 793.131106,166.472614 C840.331528,166.472614 866.528891,134.177589 866.528891,83.1378981 C866.528891,30.9690107 840.331528,0.254860475 793.131106,0.254860475 L793.131106,0.254860475 Z M793.131106,33.2274041 C810.746574,33.2274041 818.199273,46.7777644 818.199273,83.1378981 C818.199273,119.498032 811.198253,133.500071 793.131106,133.500071 C775.515637,133.500071 768.062939,119.498032 768.062939,83.1378981 C768.062939,46.7777644 775.515637,33.2274041 793.131106,33.2274041 L793.131106,33.2274041 Z M1039.9735,161.955828 L1062.78328,4.77164727 L1018.06709,4.77164727 L1004.51673,128.305766 L990.514689,4.77164727 L941.959231,4.77164727 L925.24712,128.305766 L915.310189,4.77164727 L868.787285,4.77164727 L890.693701,161.955828 L949.863608,161.955828 L965.446522,49.0361578 L979.448561,161.955828 L1039.9735,161.955828 Z M1200.0936,161.955828 L1200.0936,4.77164727 L1158.99084,4.77164727 L1158.99084,55.13382 C1158.99084,83.5895768 1162.37843,101.656724 1165.31434,119.94971 L1129.63172,4.77164727 L1072.49437,4.77164727 L1072.49437,161.955828 L1113.59713,161.955828 L1113.59713,113.17453 C1113.59713,84.0412555 1109.75786,62.3606789 1107.49947,47.2294431 L1141.82705,161.955828 L1200.0936,161.955828 Z" id="LOH-DOWN"></path>
            <path d="M7.02500247,111.800508 L-2.84217094e-14,110.851183 L-2.84217094e-14,157.083294 L7.02500247,157.083294 L7.02500247,138.286666 L65.3135364,138.286666 L65.3135364,130.122474 L7.02500247,130.122474 L7.02500247,111.800508 L7.02500247,111.800508 Z M34.3655526,63.5748151 L65.3135364,63.5748151 L65.3135364,55.3156906 L-2.84217094e-14,55.3156906 L-2.84217094e-14,63.5748151 L27.5304151,63.5748151 L27.5304151,91.9596224 L-2.84217094e-14,91.9596224 L-2.84217094e-14,100.123814 L65.3135364,100.123814 L65.3135364,91.9596224 L34.3655526,91.9596224 L34.3655526,63.5748151 L34.3655526,63.5748151 Z M6.6452726,1.86871239 L-2.84217094e-14,0.919387735 L-2.84217094e-14,35.7596027 L65.3135364,35.7596027 L65.3135364,0.254860475 L58.6682638,0.254860475 L58.6682638,27.5954106 L35.3148773,27.5954106 L35.3148773,5.28628116 L28.6696047,5.28628116 L28.6696047,27.5954106 L6.6452726,27.5954106 L6.6452726,1.86871239 L6.6452726,1.86871239 Z" id="THE"></path>
            <path d="M613.078527,196.115527 C592.52315,196.115527 578.2553,211.955258 578.2553,239.402733 C578.2553,267.212949 592.402236,282.206282 613.078527,282.206282 C633.875732,282.206282 647.901754,266.729293 647.901754,239.281819 C647.901754,211.229775 633.754818,196.115527 613.078527,196.115527 L613.078527,196.115527 Z M613.078527,204.821333 C627.709119,204.821333 636.777668,214.978108 636.777668,239.281819 C636.777668,263.585529 627.588205,273.500476 613.078527,273.500476 C599.052505,273.500476 589.379387,263.585529 589.379387,239.402733 C589.379387,214.978108 598.810677,204.821333 613.078527,204.821333 L613.078527,204.821333 Z M723.685355,280.755315 L723.685355,197.566494 L713.891323,197.566494 L713.891323,244.118378 C713.891323,254.396066 714.979548,267.092035 715.221376,269.3894 L679.914493,197.566494 L666.251213,197.566494 L666.251213,280.755315 L676.045246,280.755315 L676.045246,240.611872 C676.045246,225.255797 675.198848,215.703592 674.594278,209.053323 L709.659333,280.755315 L723.685355,280.755315 Z M798.83492,196.115527 C783.720672,196.115527 773.080242,205.063161 773.080242,217.517302 C773.080242,230.21327 781.181478,236.379883 797.504866,241.337356 C811.772716,245.69026 815.883791,249.438593 815.883791,258.023486 C815.883791,268.301174 807.661641,273.500476 797.504866,273.500476 C788.315403,273.500476 781.54422,270.235798 775.861263,264.794669 L769.69465,271.565852 C776.586747,278.216121 785.77621,282.206282 797.62578,282.206282 C815.883791,282.206282 826.76605,272.170422 826.76605,257.660744 C826.76605,242.06284 816.004705,236.742625 802.341425,232.631549 C787.348092,228.036818 783.841586,224.530313 783.841586,217.15456 C783.841586,209.053323 790.491855,204.821333 799.318576,204.821333 C806.331587,204.821333 812.135458,206.997785 818.181157,212.318 L824.105942,205.667731 C817.334759,199.501118 810.200834,196.115527 798.83492,196.115527 L798.83492,196.115527 Z M872.321155,196.115527 C853.458574,196.115527 837.981584,210.867033 837.981584,239.160905 C837.981584,267.092035 852.491262,282.206282 872.442069,282.206282 C883.445242,282.206282 891.30465,277.732465 895.899382,273.01682 L890.579166,266.245637 C885.863521,269.873056 880.785134,273.258648 872.804811,273.258648 C859.504273,273.258648 849.10567,263.464615 849.10567,239.160905 C849.10567,213.648054 859.867015,204.821333 872.925725,204.821333 C878.971424,204.821333 883.928897,206.755957 889.249113,210.987947 L894.93207,204.216764 C888.402715,199.017462 882.598844,196.115527 872.321155,196.115527 L872.321155,196.115527 Z M920.29454,280.755315 L920.29454,197.566494 L909.775023,197.566494 L909.775023,280.755315 L920.29454,280.755315 Z M987.25142,206.030473 L988.46056,197.566494 L944.085128,197.566494 L944.085128,280.755315 L989.306958,280.755315 L989.306958,272.291336 L954.483731,272.291336 L954.483731,242.546496 L982.898517,242.546496 L982.898517,234.082517 L954.483731,234.082517 L954.483731,206.030473 L987.25142,206.030473 Z M1064.48599,280.755315 L1064.48599,197.566494 L1054.69196,197.566494 L1054.69196,244.118378 C1054.69196,254.396066 1055.78018,267.092035 1056.02201,269.3894 L1020.71513,197.566494 L1007.05185,197.566494 L1007.05185,280.755315 L1016.84588,280.755315 L1016.84588,240.611872 C1016.84588,225.255797 1015.99948,215.703592 1015.39491,209.053323 L1050.45997,280.755315 L1064.48599,280.755315 Z M1117.17502,196.115527 C1098.31244,196.115527 1082.83545,210.867033 1082.83545,239.160905 C1082.83545,267.092035 1097.34513,282.206282 1117.29593,282.206282 C1128.29911,282.206282 1136.15851,277.732465 1140.75325,273.01682 L1135.43303,266.245637 C1130.71739,269.873056 1125.639,273.258648 1117.65867,273.258648 C1104.35814,273.258648 1093.95953,263.464615 1093.95953,239.160905 C1093.95953,213.648054 1104.72088,204.821333 1117.77959,204.821333 C1123.82529,204.821333 1128.78276,206.755957 1134.10298,210.987947 L1139.78593,204.216764 C1133.25658,199.017462 1127.45271,196.115527 1117.17502,196.115527 L1117.17502,196.115527 Z M1197.79518,206.030473 L1199.00432,197.566494 L1154.62889,197.566494 L1154.62889,280.755315 L1199.85072,280.755315 L1199.85072,272.291336 L1165.02749,272.291336 L1165.02749,242.546496 L1193.44228,242.546496 L1193.44228,234.082517 L1165.02749,234.082517 L1165.02749,206.030473 L1197.79518,206.030473 Z" id="ON-SCIENCE"></path>
        </g>
    </g>
</svg>