<?xml version="1.0" encoding="UTF-8"?>
<svg width="1180px" height="201px" viewBox="0 0 1180 201" version="1.1" xmlns="http://www.w3.org/2000/svg" xmlns:xlink="http://www.w3.org/1999/xlink">
    <!-- Generator: Sketch 42 (36781) - http://www.bohemiancoding.com/sketch -->
    <title>Group</title>
    <desc>Created with Sketch.</desc>
    <defs></defs>
    <g id="16-The-Loh-Life" stroke="none" stroke-width="1" fill="none" fill-rule="evenodd">
        <g id="Group" fill="#B52A78">
            <path d="M181.801083,152.531912 L181.801083,6.13949359 L125.152556,6.13949359 L125.152556,195.524481 L248.349353,195.524481 L254.124203,152.531912 L181.801083,152.531912 Z M348.996737,0.697396264 C291.523231,0.697396264 259.62406,39.0641824 259.62406,100.559882 C259.62406,163.416106 291.523231,200.966578 348.996737,200.966578 C406.470243,200.966578 438.369414,162.055582 438.369414,100.559882 C438.369414,37.7036581 406.470243,0.697396264 348.996737,0.697396264 L348.996737,0.697396264 Z M348.996737,40.4247068 C370.44618,40.4247068 379.520944,56.7509987 379.520944,100.559882 C379.520944,144.368766 370.996165,161.239267 348.996737,161.239267 C327.547295,161.239267 318.472531,144.368766 318.472531,100.559882 C318.472531,56.7509987 327.547295,40.4247068 348.996737,40.4247068 L348.996737,40.4247068 Z M556.066355,119.063013 L556.066355,195.524481 L612.714882,195.524481 L612.714882,6.13949359 L556.066355,6.13949359 L556.066355,76.0704443 L512.342491,76.0704443 L512.342491,6.13949359 L455.693964,6.13949359 L455.693964,195.524481 L512.342491,195.524481 L512.342491,119.063013 L556.066355,119.063013 Z M753.511222,152.531912 L753.511222,6.13949359 L696.862695,6.13949359 L696.862695,195.524481 L820.059493,195.524481 L825.834342,152.531912 L753.511222,152.531912 Z M897.057491,195.524481 L897.057491,6.13949359 L840.408964,6.13949359 L840.408964,195.524481 L897.057491,195.524481 Z M1036.47887,45.0504895 L1042.25372,6.13949359 L920.706876,6.13949359 L920.706876,195.524481 L977.355404,195.524481 L977.355404,125.321425 L1029.32905,125.321425 L1029.32905,86.4104292 L977.355404,86.4104292 L977.355404,45.0504895 L1036.47887,45.0504895 Z M1173.97529,45.0504895 L1179.75014,6.13949359 L1054.07841,6.13949359 L1054.07841,195.524481 L1178.37518,195.524481 L1178.37518,156.34138 L1110.72694,156.34138 L1110.72694,118.246699 L1166.27549,118.246699 L1166.27549,80.4241221 L1110.72694,80.4241221 L1110.72694,45.0504895 L1173.97529,45.0504895 Z" id="LOH-LIFE"></path>
            <path d="M8.55398119,139.680924 L-6.76357302e-14,138.53712 L-7.10542736e-14,194.240358 L8.55398119,194.240358 L8.55398119,171.593046 L79.5289062,171.593046 L79.5289062,161.756334 L8.55398119,161.756334 L8.55398119,139.680924 L8.55398119,139.680924 Z M41.8451512,81.5756991 L79.5289062,81.5756991 L79.5289062,71.6246074 L-6.77460057e-14,71.6246074 L-6.84076593e-14,81.5756991 L33.5223587,81.5756991 L33.5223587,115.775428 L-7.05028956e-14,115.775428 L-7.10542736e-14,125.612139 L79.5289062,125.612139 L79.5289062,115.775428 L41.8451512,115.775428 L41.8451512,81.5756991 L41.8451512,81.5756991 Z M8.09160383,7.2284624 L-6.84076593e-14,6.08465876 L-7.10542736e-14,48.0622524 L79.5289062,48.0622524 L79.5289062,5.28399621 L71.4373024,5.28399621 L71.4373024,38.2255411 L43.0010946,38.2255411 L43.0010946,11.3461555 L34.9094908,11.3461555 L34.9094908,38.2255411 L8.09160383,38.2255411 L8.09160383,7.2284624 L8.09160383,7.2284624 Z" id="THE"></path>
        </g>
    </g>
</svg>