<?xml version="1.0" encoding="UTF-8"?>
<svg width="300px" height="67px" viewBox="0 0 300 67" version="1.1" xmlns="http://www.w3.org/2000/svg" xmlns:xlink="http://www.w3.org/1999/xlink">
    <!-- Generator: Sketch 42 (36781) - http://www.bohemiancoding.com/sketch -->
    <title>Group 28</title>
    <desc>Created with Sketch.</desc>
    <defs></defs>
    <g id="Posts" stroke="none" stroke-width="1" fill="none" fill-rule="evenodd">
        <g id="Group-28" fill="#4E331F">
            <path d="M94.1520122,14.9188258 C95.684912,14.9188258 96.8057796,15.3359889 97.6473032,16.1050606 L101.562774,9.38617057 C99.3303505,7.28287599 95.5475679,6.23647236 91.9172606,6.23647236 C84.8556786,6.23647236 79.8158483,10.9930643 79.8158483,19.0461773 L79.8158483,19.81991 L66.1757164,19.81991 L66.1757164,19.0461773 C66.1757164,16.2472224 67.783108,14.9188258 69.7408434,14.9188258 C71.279563,14.9188258 72.3981027,15.3359889 73.244282,16.1050606 L77.1562611,9.38617057 C74.9168539,7.28287599 71.1433828,6.23647236 67.5072558,6.23647236 C60.4398541,6.23647236 55.4081713,10.9930643 55.4081713,19.0461773 L55.4081713,53.632264 L66.1757164,53.632264 L66.1757164,29.1291734 L79.8158483,29.1291734 L79.8158483,53.632264 L90.5857212,53.632264 L90.5857212,29.1291734 L97.4343035,29.1291734 L97.4343035,19.81991 L90.5857212,19.81991 L90.5857212,19.0461773 C90.5857212,16.2472224 92.1966046,14.9188258 94.1520122,14.9188258" id="Fill-2"></path>
            <polygon id="Fill-3" points="101.407971 28.9765243 118.194214 28.9765243 118.194214 38.0096211 101.407971 38.0096211"></polygon>
            <path d="M149.188588,53.632264 L141.357647,37.9490276 L135.198113,37.9490276 L135.198113,53.632264 L123.1677,53.632264 L123.1677,6.93912424 L146.527837,6.93912424 C156.881022,6.93912424 162.751901,13.795515 162.751901,22.4790337 C162.751901,30.5997317 157.857562,34.9403258 153.453239,36.481965 L162.962573,53.632264 L149.188588,53.632264 L149.188588,53.632264 Z M150.513144,22.4067876 C150.513144,19.188339 147.924557,17.4357877 144.712102,17.4357877 L135.198113,17.4357877 L135.198113,27.4511988 L144.712102,27.4511988 C147.924557,27.4511988 150.513144,25.6974823 150.513144,22.4067876 L150.513144,22.4067876 Z" id="Fill-4"></path>
            <path d="M187.650757,53.632264 L187.650757,50.2716537 C185.549858,52.7956072 181.498207,54.4759124 177.167212,54.4759124 C171.990038,54.4759124 165.552324,50.9078858 165.552324,43.3441821 C165.552324,35.1512379 171.990038,32.4163723 177.167212,32.4163723 C181.641371,32.4163723 185.626678,33.8880959 187.650757,36.4132147 L187.650757,33.0491086 C187.650757,30.1068267 185.13317,28.079274 180.792864,28.079274 C177.434917,28.079274 174.082789,29.4088359 171.36035,31.7195468 L167.373879,24.2304197 C171.704874,20.5190661 177.507081,18.9797574 182.690075,18.9797574 C190.799197,18.9797574 198.421794,21.9872939 198.421794,32.490949 L198.421794,53.632264 L187.650757,53.632264 L187.650757,53.632264 Z M187.650757,44.9557369 L187.650757,41.9412089 C186.534546,40.3354804 184.013467,39.5664087 181.641371,39.5664087 C178.840948,39.5664087 176.248869,40.8190633 176.248869,43.478187 C176.248869,46.1396412 178.840948,47.4039485 181.641371,47.4039485 C184.013467,47.4039485 186.534546,46.5649612 187.650757,44.9557369 L187.650757,44.9557369 Z" id="Fill-5"></path>
            <path d="M247.149853,53.632264 L247.149853,33.0491086 C247.149853,30.4599005 245.880002,28.4999329 242.665219,28.4999329 C239.728616,28.4999329 237.628881,30.3876544 236.585997,31.7906276 L236.585997,53.632264 L225.812632,53.632264 L225.812632,33.0491086 C225.812632,30.4599005 224.62542,28.4999329 221.410637,28.4999329 C218.469378,28.4999329 216.440643,30.3876544 215.325595,31.7906276 L215.325595,53.632264 L204.55223,53.632264 L204.55223,19.81991 L215.325595,19.81991 L215.325595,23.9507573 C216.789822,21.9872939 221.125473,18.9797574 226.446975,18.9797574 C231.335494,18.9797574 234.627097,21.0049796 236.027309,25.0041525 C237.97806,22.0560443 242.385875,18.9797574 247.700394,18.9797574 C253.923944,18.9797574 257.838251,22.193545 257.838251,29.1291734 L257.838251,53.632264 L247.149853,53.632264" id="Fill-6"></path>
            <path d="M275.002772,49.6424132 L275.002772,66.5200414 L264.232899,66.5200414 L264.232899,19.81991 L275.002772,19.81991 L275.002772,23.7375147 C277.661195,20.5190661 281.161142,18.9797574 285.004449,18.9797574 C293.465079,18.9797574 299.834121,25.2803191 299.834121,36.6917118 C299.834121,48.1718549 293.465079,54.4759124 285.004449,54.4759124 C281.226322,54.4759124 277.803195,53.0088498 275.002772,49.6424132 L275.002772,49.6424132 Z M288.84892,36.6917118 C288.84892,31.6484659 285.634137,28.4999329 281.440486,28.4999329 C279.137063,28.4999329 276.333148,29.7619097 275.002772,31.5832113 L275.002772,41.874789 C276.333148,43.6203487 279.137063,44.9557369 281.440486,44.9557369 C285.634137,44.9557369 288.84892,41.8025429 288.84892,36.6917118 L288.84892,36.6917118 Z" id="Fill-7"></path>
            <path d="M42.0194489,11.2832141 L33.7788027,19.5985106 C36.1543901,22.1492651 37.5196836,25.7907031 37.5196836,29.9565081 C37.5196836,37.8558067 32.5811155,44.0794612 24.9235997,44.0794612 C17.2684117,44.0794612 12.2646634,37.8558067 12.2646634,29.9565081 C12.2646634,21.9791371 17.7060506,15.7449952 26.0363197,15.2963701 C26.100336,15.2905438 26.5042208,15.2905438 27.0454497,15.2905438 L25.9955821,20.1263734 L27.3957936,21.2683284 L40.6110899,7.62080143 L22.6550941,0.22139943 L21.8834064,1.95996759 L24.6396,4.68667635 C10.3988786,5.56761303 0.0864314187,15.4408623 0.0864314187,29.9565081 C0.0864314187,44.8159057 10.7387471,55.213522 24.9235997,55.213522 C39.1212555,55.213522 49.689768,44.8159057 49.689768,29.9565081 C49.689768,22.3310457 46.6553945,15.7531521 42.0194489,11.2832141 L42.0194489,11.2832141 Z M21.3375218,9.17059744 L22.1604225,11.7434919 C20.1328511,12.1105488 17.7910177,12.9273962 16.011364,13.9761303 L14.7834146,11.6118175 C16.8226254,10.4104342 19.0259507,9.58892584 21.3375218,9.17059744 L21.3375218,9.17059744 Z M9.36646997,16.2472224 L11.2671727,18.0358967 C9.90886279,19.6870704 8.84735581,21.5433298 8.11989762,23.5697172 L5.75827738,22.6048818 C6.58932561,20.276692 7.80563569,18.1407701 9.36646997,16.2472224 L9.36646997,16.2472224 Z M5.78621177,37.2405494 C4.94003241,34.905368 4.5140329,32.4385123 4.50821324,29.9227156 L7.03743985,29.9122282 C7.04558738,32.1017521 7.41804597,34.237674 8.15248775,36.2628961 L5.78621177,37.2405494 L5.78621177,37.2405494 Z M14.8544145,48.1916643 C12.7942529,46.9856201 10.966878,45.4346588 9.41302729,43.5760689 L11.31373,41.7827335 C12.6697121,43.4071061 14.2654644,44.7611384 16.0660688,45.8203599 L14.8544145,48.1916643 L14.8544145,48.1916643 Z M24.8630752,50.8985637 L24.8630752,50.8985637 C23.7096175,50.8985637 22.5445204,50.8006818 21.4189971,50.5990918 L21.8263737,47.9283155 C22.8238644,48.1089309 23.8411419,48.1963254 24.8630752,48.1963254 C25.8954838,48.1963254 26.9255646,48.1031046 27.9288749,47.9283155 L28.3420712,50.590935 C27.2072364,50.7983513 26.0339919,50.8985637 24.8630752,50.8985637 L24.8630752,50.8985637 Z M34.8950145,48.1718549 L33.6728847,45.7947242 C35.4793089,44.7401638 37.0820448,43.3768094 38.4275514,41.753602 L40.3212706,43.5492679 C38.7778953,45.404362 36.9528482,46.9658107 34.8950145,48.1718549 L34.8950145,48.1718549 Z M38.8128133,18.5439501 L40.6948931,16.7401274 C42.2766782,18.6255184 43.0751363,20.1624965 43.9201517,22.4790337 L41.5527118,23.4636785 C40.8171061,21.4431174 40.1792707,20.1846365 38.8128133,18.5439501 L38.8128133,18.5439501 Z M43.9445943,37.1974348 L41.582974,36.2244425 C42.3092683,34.2015509 42.679399,32.0644638 42.679399,29.879601 L42.679399,29.7968675 L45.2144453,29.7968675 L45.2144453,29.879601 C45.2144453,32.3953976 44.7861179,34.8610881 43.9445943,37.1974348 L43.9445943,37.1974348 Z" id="Fill-8"></path>
        </g>
    </g>
</svg>