<?xml version="1.0" encoding="UTF-8"?>
<svg width="4036px" height="616px" viewBox="0 0 4036 616" version="1.1" xmlns="http://www.w3.org/2000/svg" xmlns:xlink="http://www.w3.org/1999/xlink">
    <!-- Generator: Sketch 51.3 (57544) - http://www.bohemiancoding.com/sketch -->
    <title>TakeTwo - Color</title>
    <desc>Created with Sketch.</desc>
    <defs>
        <path d="M96.41,102.83 L83.958,102.83 L69.618,70.755 L48.863,70.755 L48.863,102.83 L37.731,102.83 L37.731,27.359 L69.618,27.359 C84.712,27.359 95.278,36.226 95.278,48.868 C95.278,57.924 89.995,65.094 80.75,68.302 L96.41,102.83 Z M48.863,61.887 L68.297,61.887 C77.731,61.887 83.392,56.792 83.392,48.679 C83.392,41.321 78.108,36.792 69.618,36.792 L48.863,36.792 L48.863,61.887 Z M66.788,0 C101.693,0 130.75,29.623 130.75,64.906 C130.75,100.943 101.693,130 65.844,130 C29.618,130 0.75,100.943 0.75,64.528 C0.75,28.679 30.184,0 66.788,0 Z M66.599,9.245 C49.618,9.245 35.467,15.472 24.335,27.736 C15.278,37.736 9.995,51.132 9.995,64.528 C9.995,95.849 34.712,120.755 65.844,120.755 C96.599,120.755 121.505,95.849 121.505,64.906 C121.505,34.717 96.41,9.245 66.599,9.245 Z" id="path-1"></path>
        <polygon id="path-3" points="295.943 549.242 93.76 549.242 149.195 157.193 0 157.193 22.017 0.533 521.804 0.533 499.802 157.193 351.408 157.193"></polygon>
        <path d="M322.54,53.786 L328.355,11.238 L528.84,11.238 L489.069,290.303 C484.941,322.209 504.812,327.939 535.469,320.587 L518.069,440.073 C490.741,449.077 443.512,455.625 402.083,455.625 C340.769,455.625 301.856,427.781 288.599,387.689 C253.784,428.629 209.884,455.625 146.913,455.625 C54.127,455.625 0.285,370.516 0.285,264.111 C0.285,117.614 97.198,0.598 218.17,0.598 C266.212,0.598 298.527,21.06 322.54,53.786 Z M315.098,215.834 C315.098,181.442 296.041,154.446 266.212,154.446 C227.269,154.446 196.627,193.734 196.627,238.737 C196.627,273.114 214.856,300.125 245.498,300.125 C283.613,300.125 315.098,260.851 315.098,215.834 Z" id="path-5"></path>
        <path d="M503.364,476.441 L486.32,600.069 C459.551,609.075 433.579,615.625 392.997,615.625 C323.197,615.625 271.268,577.978 220.135,439.613 L197.424,604.982 L0.228,604.982 L84.623,0 L281.819,0 L237.991,311.102 C275.326,288.163 315.096,253.791 332.14,171.114 L522.032,171.114 C517.162,257.87 475.769,319.275 392.186,370.855 C411.665,419.949 434.391,487.084 503.364,476.441 Z" id="path-7"></path>
        <path d="M187.07,289.484 C199.336,312.387 230.411,319.769 266.377,319.769 C309.718,319.769 350.605,313.236 383.3,302.595 L389.857,427.781 C344.048,442.514 283.549,455.625 223.854,455.625 C89.772,455.625 0.652,396.708 0.652,260.003 C0.652,115.173 114.29,0.598 266.377,0.598 C370.216,0.598 442.178,56.256 442.178,147.095 C442.178,282.133 295.816,300.928 187.07,289.484 Z M287.638,145.458 C287.638,129.906 275.372,121.706 259.835,121.706 C220.598,121.706 200.154,152.809 191.976,183.912 C219.78,187.201 287.638,188.005 287.638,145.458 Z" id="path-9"></path>
        <polygon id="path-11" points="296.822 549.242 94.644 549.242 150.078 157.193 0.872 157.193 22.903 0.533 522.676 0.533 500.675 157.193 352.285 157.193"></polygon>
        <path d="M458.608,442.625 C383.737,442.625 344.252,420.677 314.627,372.668 C271.012,428.796 208.471,442.625 157.465,442.625 C47.209,442.625 -12.864,377.549 3.61,258.785 L39.803,0.981 L234.804,0.981 L200.242,247.412 C196.965,269.36 201.903,287.271 223.298,287.271 C244.679,287.271 253.731,270.203 257.023,249.867 L292.408,0.981 L487.41,0.981 L452.039,247.412 C448.748,270.203 456.139,287.271 475.889,287.271 C523.618,287.271 570.524,182.351 520.326,0.981 L715.328,0.981 C763.057,375.109 589.437,442.625 458.608,442.625 Z" id="path-13"></path>
        <path d="M509.218,199.464 C509.218,359.845 370.932,455.625 223.536,455.625 C98.5,455.625 0.794,383.597 0.794,257.563 C0.794,95.529 139.08,0.598 288.132,0.598 C411.496,0.598 509.218,73.43 509.218,199.464 Z M314.633,215.834 C314.633,180.638 297.242,152.006 265.772,152.006 C226.021,152.006 195.394,194.553 195.394,240.389 C195.394,275.555 212.771,304.217 244.24,304.217 C283.991,304.217 314.633,261.67 314.633,215.834 Z" id="path-15"></path>
    </defs>
    <g id="Page-1" stroke="none" stroke-width="1" fill="none" fill-rule="evenodd">
        <g id="TakeTwo---Color">
            <g id="Group-3" transform="translate(3905.000000, 0.000000)">
                <mask id="mask-2" fill="white">
                    <use xlink:href="#path-1"></use>
                </mask>
                <g id="Clip-2"></g>
                <polygon id="Fill-1" fill="#000000" mask="url(#mask-2)" points="0.66 130.12 130.86 130.12 130.86 -0.08 0.66 -0.08"></polygon>
            </g>
            <g id="Group-6" transform="translate(0.000000, 53.000000)">
                <mask id="mask-4" fill="white">
                    <use xlink:href="#path-3"></use>
                </mask>
                <g id="Clip-5"></g>
                <polygon id="Fill-4" fill="#F5A724" mask="url(#mask-4)" points="-0.1 549.32 521.9 549.32 521.9 0.44 -0.1 0.44"></polygon>
            </g>
            <g id="Group-9" transform="translate(468.000000, 160.000000)">
                <mask id="mask-6" fill="white">
                    <use xlink:href="#path-5"></use>
                </mask>
                <g id="Clip-8"></g>
                <polygon id="Fill-7" fill="#F5A724" mask="url(#mask-6)" points="0.26 455.64 535.58 455.64 535.58 0.48 0.26 0.48"></polygon>
            </g>
            <g id="Group-12" transform="translate(1030.000000, 0.000000)">
                <mask id="mask-8" fill="white">
                    <use xlink:href="#path-7"></use>
                </mask>
                <g id="Clip-11"></g>
                <polygon id="Fill-10" fill="#F5A724" mask="url(#mask-8)" points="0.22 615.64 522.1 615.64 522.1 -0.08 0.22 -0.08"></polygon>
            </g>
            <g id="Group-15" transform="translate(1538.000000, 160.000000)">
                <mask id="mask-10" fill="white">
                    <use xlink:href="#path-9"></use>
                </mask>
                <g id="Clip-14"></g>
                <polygon id="Fill-13" fill="#F5A724" mask="url(#mask-10)" points="0.54 455.64 442.26 455.64 442.26 0.48 0.54 0.48"></polygon>
            </g>
            <g id="Group-18" transform="translate(2180.000000, 53.000000)">
                <mask id="mask-12" fill="white">
                    <use xlink:href="#path-11"></use>
                </mask>
                <g id="Clip-17"></g>
                <polygon id="Fill-16" fill="#F5A724" mask="url(#mask-12)" points="0.78 549.32 522.78 549.32 522.78 0.44 0.78 0.44"></polygon>
            </g>
            <g id="Group-21" transform="translate(2675.000000, 173.000000)">
                <mask id="mask-14" fill="white">
                    <use xlink:href="#path-13"></use>
                </mask>
                <g id="Clip-20"></g>
                <polygon id="Fill-19" fill="#F5A724" mask="url(#mask-14)" points="0.9 442.64 723.42 442.64 723.42 0.92 0.9 0.92"></polygon>
            </g>
            <g id="Group-24" transform="translate(3411.000000, 160.000000)">
                <mask id="mask-16" fill="white">
                    <use xlink:href="#path-15"></use>
                </mask>
                <g id="Clip-23"></g>
                <polygon id="Fill-22" fill="#F5A724" mask="url(#mask-16)" points="0.74 455.64 509.3 455.64 509.3 0.48 0.74 0.48"></polygon>
            </g>
        </g>
    </g>
</svg>