<?xml version="1.0" encoding="UTF-8"?>
<svg width="300px" height="48px" viewBox="0 0 300 48" version="1.1" xmlns="http://www.w3.org/2000/svg" xmlns:xlink="http://www.w3.org/1999/xlink">
    <!-- Generator: Sketch 42 (36781) - http://www.bohemiancoding.com/sketch -->
    <title>Group 27</title>
    <desc>Created with Sketch.</desc>
    <defs></defs>
    <g id="Posts" stroke="none" stroke-width="1" fill="none" fill-rule="evenodd">
        <g id="Group-27" fill="#F4AA27">
            <polyline id="Fill-1" points="23.0746799 47.0262059 7.37029629 47.0262059 11.6761326 16.3639471 0.0875712115 16.3639471 1.79769878 4.11151071 40.6181704 4.11151071 38.9091944 16.3639471 27.3828194 16.3639471 23.0746799 47.0262059"></polyline>
            <path d="M61.0786663,16.6813976 L61.5231843,13.3810664 L76.8486912,13.3810664 L73.8084644,35.0277299 C73.4929257,37.5026897 75.0118875,37.9471205 77.3553956,37.3768639 L76.0252964,46.6452652 C73.9362921,47.3436564 70.3260228,47.8515773 67.1591199,47.8515773 C62.4721036,47.8515773 59.4975181,45.6917592 58.4841091,42.5818983 C55.8227591,45.7575581 52.4669936,47.8515773 47.6533012,47.8515773 C40.5605903,47.8515773 36.4447681,41.2497605 36.4447681,32.9960465 C36.4447681,21.6324716 43.8530177,12.555695 53.1003742,12.555695 C56.77283,12.555695 59.2430142,14.1429477 61.0786663,16.6813976 L61.0786663,16.6813976 Z M60.5097754,29.2512845 C60.5097754,26.5835456 59.0530001,24.4895265 56.77283,24.4895265 C53.7959412,24.4895265 51.4535847,27.5370516 51.4535847,31.0278532 C51.4535847,33.6944377 52.847022,35.7896112 55.1893785,35.7896112 C58.1029292,35.7896112 60.5097754,32.7432404 60.5097754,29.2512845 L60.5097754,29.2512845 Z" id="Fill-2"></path>
            <path d="M117.701739,37.058259 L116.371639,46.6452652 C114.282635,47.3436564 112.255817,47.8515773 109.088914,47.8515773 C103.641841,47.8515773 99.5893572,44.9321867 95.5990596,34.2023585 L93.8267455,47.0262059 L78.4379006,47.0262059 L85.0239071,0.111633943 L100.412752,0.111633943 L96.9924968,24.2367204 C99.9060475,22.457843 103.009612,19.7924129 104.339712,13.3810664 L119.158514,13.3810664 C118.778486,20.108709 115.548245,24.8704671 109.025576,28.8703439 C110.54569,32.6774416 112.319155,37.8836304 117.701739,37.058259" id="Fill-3"></path>
            <path d="M131.449552,34.9642398 C132.399623,36.7408085 134.806469,37.3133738 137.592192,37.3133738 C140.949109,37.3133738 144.116012,36.8066073 146.648383,35.9812359 L147.156239,45.6917592 C143.608156,46.8345812 138.922291,47.8515773 134.298613,47.8515773 C123.913475,47.8515773 117.010778,43.2814439 117.010778,32.6774416 C117.010778,21.4431557 125.812465,12.555695 137.592192,12.555695 C145.634974,12.555695 151.208723,16.8730223 151.208723,23.9192699 C151.208723,34.3939832 139.872362,35.851947 131.449552,34.9642398 L131.449552,34.9642398 Z M139.238982,23.7922896 C139.238982,22.5859776 138.288911,21.9499222 137.085488,21.9499222 C134.046412,21.9499222 132.462961,24.3625462 131.82958,26.7751703 C133.983074,27.0302851 139.238982,27.0926209 139.238982,23.7922896 L139.238982,23.7922896 Z" id="Fill-4"></path>
            <polyline id="Fill-5" points="189.528248 47.0262059 173.823864 47.0262059 178.129701 16.3639471 166.539988 16.3639471 168.251267 4.11151071 207.071739 4.11151071 205.362763 16.3639471 193.836388 16.3639471 189.528248 47.0262059"></polyline>
            <path d="M239.690838,47.8515773 C233.928227,47.8515773 230.889152,46.1384987 228.608981,42.391428 C225.252064,46.7722454 220.438372,47.8515773 216.512564,47.8515773 C208.026416,47.8515773 203.402738,42.7723687 204.67065,33.502813 L207.456373,13.3810664 L222.46519,13.3810664 L219.804991,32.6151058 C219.552791,34.3281844 219.932819,35.7261211 221.579609,35.7261211 C223.225247,35.7261211 223.921965,34.3939832 224.175317,32.8067305 L226.898854,13.3810664 L241.90767,13.3810664 L239.185286,32.6151058 C238.931933,34.3939832 239.500824,35.7261211 241.020938,35.7261211 C244.694545,35.7261211 248.304814,27.5370516 244.441193,13.3810664 L259.450009,13.3810664 C263.123617,42.5818983 249.760438,47.8515773 239.690838,47.8515773" id="Fill-6"></path>
            <path d="M299.925332,27.9814824 C299.925332,40.4220803 289.349028,47.8515773 278.076005,47.8515773 C268.51311,47.8515773 261.04037,42.2644478 261.04037,32.4881256 C261.04037,19.9193931 271.616675,12.555695 283.016373,12.555695 C292.451441,12.555695 299.925332,18.2051602 299.925332,27.9814824 L299.925332,27.9814824 Z M285.043191,29.2512845 C285.043191,26.5212099 283.713092,24.3002105 281.306246,24.3002105 C278.266019,24.3002105 275.923662,27.6005417 275.923662,31.1559877 C275.923662,33.8837536 277.25261,36.1070617 279.659456,36.1070617 C282.699683,36.1070617 285.043191,32.8067305 285.043191,29.2512845 L285.043191,29.2512845 Z" id="Fill-7"></path>
        </g>
    </g>
</svg>