<?xml version="1.0" encoding="utf-8"?>
<!-- Generator: Adobe Illustrator 20.0.0, SVG Export Plug-In . SVG Version: 6.00 Build 0)  -->
<svg version="1.1" id="Layer_1" xmlns="http://www.w3.org/2000/svg" xmlns:xlink="http://www.w3.org/1999/xlink" x="0px" y="0px"
	 viewBox="0 0 325 220" style="enable-background:new 0 0 325 220;" xml:space="preserve">
<style type="text/css">
	.st0{fill:none;}
</style>
<path class="st0" d="M-4-1"/>
<g>
	<path d="M79.9,3.9v33.9H63.6V22.4h-6.9v47.1h9.7V88H15.9V69.5h9.6V22.4h-6.9v15.4H2.3V3.9H79.9z"/>
	<path d="M161,72.4V88h-31.9V54.1c0-2.6-0.6-4.6-1.8-6s-2.8-2.1-4.7-2.1c-2.3,0-4,0.9-5,2.8c-1,1.9-1.5,4.2-1.5,7.1v16.6h4.7V88
		H84.5V72.4h4.6v-53h-4.6V3.9h31.7v33.4c3.8-2.8,7-4.8,9.9-6.1c2.8-1.3,6-2,9.5-2c5.2,0,9.9,1.5,14.2,4.6c4.3,3,6.4,7.9,6.4,14.4
		v24.3L161,72.4L161,72.4z"/>
	<path d="M218.5,35.9c3.5,2.7,6.3,6.2,8.3,10.5c2.1,4.3,3.1,8.7,3.1,13c0,0.9,0,1.9-0.1,2.8s-0.1,1.9-0.1,2.8h-37.8
		c0.4,2.9,1.4,5.2,2.9,7c1.6,1.8,3.9,2.7,7,2.7c2,0,3.7-0.4,5.1-1.3c1.4-0.9,2.7-2.1,3.9-3.7h18.9c-0.7,2.1-1.5,4-2.6,5.9
		s-2.4,3.6-4,5.1c-3,3-6.5,5.1-10.7,6.4s-8.4,2-12.7,2c-5,0-9.7-0.6-13.9-1.8c-4.3-1.2-7.9-3.2-11-6c-3.3-2.9-5.8-6.3-7.4-10.1
		c-1.7-3.8-2.5-7.9-2.5-12.3c0-9.1,3.2-16.4,9.6-21.7c6.4-5.4,14.1-8,23.3-8c3.9,0,7.5,0.5,11,1.6C212.1,31.8,215.4,33.5,218.5,35.9
		z M191.9,56.2H206v-1.4c0-3.3-0.6-5.7-1.7-7.4s-2.9-2.6-5.4-2.6c-1.6,0-2.9,0.4-4,1.2s-1.9,1.9-2.4,3.4c-0.4,1-0.6,2.1-0.6,3.3
		C191.9,53.9,191.9,55.1,191.9,56.2z"/>
	<path d="M68.2,115.3c8,3.2,14.2,8.2,18.6,15s6.6,14.9,6.6,24.3c0,11.4-3.4,20.9-10.3,28.4c-6.8,7.5-15.8,11.7-27,12.6
		c-1.8,0.1-3.3,0.2-4.4,0.3s-1.9,0.1-2.4,0.1H3v-18.5h8.1v-47.1H3v-18.5h45.4c3.9,0,7.5,0.3,10.7,0.8S65.2,114,68.2,115.3z
		 M55.1,173.6c2.1-1.9,3.8-4.6,4.9-7.9c1.1-3.4,1.6-7.4,1.6-12c0-4.5-0.5-8.3-1.6-11.4c-1-3.1-2.7-5.8-5-8.2c-1.4-1.5-3.1-2.5-5-3
		s-4.6-0.7-7.9-0.7v47.1c3.3,0,5.8-0.2,7.7-0.8C51.7,176.1,53.4,175.1,55.1,173.6z"/>
	<path d="M172.1,180.4V196H140v-5.6c-2.9,2-5.8,3.7-8.6,4.9s-6.1,1.9-9.6,1.9c-7.8,0-13.9-3-18.3-9s-6.6-13.1-6.6-21.4
		s2.5-15.3,7.4-21.1c4.9-5.7,11.2-8.6,18.9-8.6c3.4,0,6.4,0.5,9,1.6c2.7,1.1,5.3,2.6,7.9,4.6v-4.9h27.1v42H172.1z M131.7,181
		c2.8,0,4.9-1.3,6.3-4s2.1-6.2,2.1-10.8c0-3.8-0.7-7-2.1-9.5s-3.3-3.8-5.8-3.8c-2.7,0-4.7,1.4-6.1,4.1s-2.1,6-2.1,9.8
		c0,5,0.7,8.6,2,10.8C127.2,179.9,129.1,181,131.7,181z"/>
	<path d="M213.3,180.4V196h-37v-15.6h4.8V154h-4.8v-15.6h31.9v42H213.3z M208.3,111.9v20.6h-27.1v-20.6H208.3z"/>
	<path d="M253.9,180.4V196H217v-15.6h4.8v-53H217v-15.5h31.9v68.6L253.9,180.4L253.9,180.4z"/>
	<path d="M321.3,138.4V154h-3.2l-27.7,48h6.3v15.6h-35.9V202h10.4l4-7.5L257.1,154h-3.9v-15.6h35.2V154H284l6.4,15l7.8-15h-4.7
		v-15.6H321.3z"/>
</g>
</svg>
