<?xml version="1.0" encoding="UTF-8"?>
<svg width="1459px" height="572px" viewBox="0 0 1459 572" version="1.1" xmlns="http://www.w3.org/2000/svg" xmlns:xlink="http://www.w3.org/1999/xlink">
    <!-- Generator: Sketch 42 (36781) - http://www.bohemiancoding.com/sketch -->
    <title>Group 2</title>
    <desc>Created with Sketch.</desc>
    <defs></defs>
    <g id="12-The-Mashup-Americans" stroke="none" stroke-width="1" fill="none" fill-rule="evenodd">
        <g id="Group-2" fill="#8B247C">
            <polyline id="Fill-1" points="89.6653453 38.991431 89.6653453 157.858306 45.1801614 157.858306 45.1801614 38.991431 0 38.991431 0 0.300286195 134.37557 0.300286195 134.37557 38.991431 89.6653453 38.991431"></polyline>
            <polyline id="Fill-2" points="270.816215 97.3856027 205.021695 97.3856027 205.021695 157.858306 160.533202 157.858306 160.533202 0.300286195 205.021695 0.300286195 205.021695 58.9195219 270.816215 58.9195219 270.816215 0.300286195 315.29809 0.300286195 315.29809 157.858306 270.816215 157.858306 270.816215 97.3856027"></polyline>
            <polyline id="Fill-3" points="348.878744 157.858306 348.878744 0.300286195 477.227865 0.300286195 477.227865 38.991431 391.272377 38.991431 391.272377 59.8462559 460.316744 59.8462559 460.316744 96.2238754 391.272377 96.2238754 391.272377 119.163852 477.227865 119.163852 477.227865 157.858306 348.878744 157.858306"></polyline>
            <polyline id="Fill-4" points="150.591713 275.48071 107.738072 326.921067 100.315049 326.921067 57.4547892 275.48071 57.4547892 363.063694 12.9729148 363.063694 12.9729148 205.505673 50.2733543 205.505673 104.014978 267.831845 157.766529 205.505673 195.073587 205.505673 195.073587 363.063694 150.591713 363.063694 150.591713 275.48071"></polyline>
            <path d="M279.149327,303.749407 L318.538009,303.749407 L299.075327,249.293855 L279.149327,303.749407 L279.149327,303.749407 Z M272.89122,205.505673 L325.252816,205.505673 L383.865901,363.063694 L338.924018,363.063694 L329.416063,336.420091 L268.029686,336.420091 L258.760009,363.063694 L213.804888,363.063694 L272.89122,205.505673 L272.89122,205.505673 Z" id="Fill-5"></path>
            <path d="M408.640197,312.785064 C420.921444,321.12898 438.762511,328.542852 457.758565,328.542852 C470.724861,328.542852 478.376233,324.600923 478.376233,316.028633 C478.376233,310.468229 473.743049,306.992976 464.013363,304.209465 L438.987552,297.027276 C412.343435,289.381721 398.913821,275.940768 398.913821,253.004101 C398.913821,225.198771 420.689785,203.417212 462.851758,203.417212 C485.326009,203.417212 507.80026,209.90766 520.081507,215.928121 L507.568601,252.772418 C495.059004,245.821912 476.52296,240.261508 461.001794,240.261508 C448.955516,240.261508 443.855704,244.196818 443.855704,250.687266 C443.855704,255.784303 447.098933,258.332822 455.438664,260.88134 L482.546099,268.758579 C511.970126,277.562552 523.778126,291.930239 523.778126,313.248431 C523.778126,343.833963 497.607256,365.383838 457.060278,365.383838 C433.427731,365.383838 408.640197,357.50329 398.215534,351.711202 L408.640197,312.785064" id="Fill-6"></path>
            <polyline id="Fill-7" points="659.762072 302.59099 593.967552 302.59099 593.967552 363.063694 549.485677 363.063694 549.485677 205.505673 593.967552 205.505673 593.967552 264.124909 659.762072 264.124909 659.762072 205.505673 704.243946 205.505673 704.243946 363.063694 659.762072 363.063694 659.762072 302.59099"></polyline>
            <path d="M835.478565,292.189572 C835.478565,312.809404 845.909848,325.091939 865.604188,325.091939 C885.533498,325.091939 896.183202,312.352657 896.183202,291.964508 L896.183202,206 L940.668386,206 L940.668386,295.201458 C940.668386,333.207481 913.79261,365.878165 865.604188,365.878165 C817.637498,365.878165 791,336.219367 791,295.201458 L791,206 L835.478565,206 L835.478565,292.189572" id="Fill-8-Copy"></path>
            <path d="M1015.48518,244.462771 L1015.48518,284.77901 L1044.90921,284.77901 C1056.2572,284.77901 1064.82859,276.670088 1064.82859,264.850919 C1064.82859,252.571694 1056.2572,244.462771 1044.90921,244.462771 L1015.48518,244.462771 L1015.48518,244.462771 Z M971,206 L1052.08734,206 C1083.83126,206 1110.6938,224.766364 1110.6938,265.085912 C1110.6938,301.691906 1083.83126,323.245091 1052.08734,323.245091 L1015.48518,323.245091 L1015.48518,363.55802 L971,363.55802 L971,206 L971,206 Z" id="Fill-9-Copy"></path>
            <g id="Group" transform="translate(2.000000, 409.000000)">
                <path d="M65.3345112,100.240424 L104.726502,100.240424 L85.2638206,45.7881818 L65.3345112,100.240424 L65.3345112,100.240424 Z M59.079713,2 L111.434691,2 L170.054395,159.55802 L125.112511,159.55802 L115.611175,132.911108 L54.2181794,132.911108 L44.9485022,159.55802 L0,159.55802 L59.079713,2 L59.079713,2 Z" id="Fill-10"></path>
                <polyline id="Fill-11" points="328.625417 71.9783468 285.758538 123.415394 278.352063 123.415394 235.491803 71.9783468 235.491803 159.55802 191 159.55802 191 2 228.310368 2 282.0553 64.322862 335.806852 2 373.107291 2 373.107291 159.55802 328.625417 159.55802 328.625417 71.9783468"></polyline>
                <polyline id="Fill-12" points="407 159.55802 407 2 535.349121 2 535.349121 40.687835 449.396942 40.687835 449.396942 61.5426599 518.441309 61.5426599 518.441309 97.9235892 449.396942 97.9235892 449.396942 120.860256 535.349121 120.860256 535.349121 159.55802 407 159.55802"></polyline>
                <path d="M611.481874,40.462771 L611.481874,72.6700875 L642.520897,72.6700875 C653.412188,72.6700875 659.435327,65.487899 659.435327,56.6806162 C659.435327,47.6449596 653.412188,40.462771 642.520897,40.462771 L611.481874,40.462771 L611.481874,40.462771 Z M567,2 L646.697381,2 C681.214601,2 705.310466,19.3762626 705.310466,54.8271481 C705.310466,76.8370808 691.645883,93.9816599 671.484915,100.938785 L714.113516,150.058997 L714.113516,159.55802 L668.241686,159.55802 L623.749883,104.414037 L611.481874,104.414037 L611.481874,159.55802 L567,159.55802 L567,2 L567,2 Z" id="Fill-13"></path>
                <polygon id="Fill-14" points="733 2 777.481874 2 777.481874 159.55802 733 159.55802"></polygon>
                <path d="M887.72383,121.180401 C906.719883,121.180401 919.007749,113.306471 928.727507,105.892599 L948.888475,138.096606 C933.129031,152.467603 912.286323,162.19831 886.098906,162.19831 C838.145453,162.19831 802,127.204172 802,81.1024646 C802,34.9842088 838.145453,0 886.098906,0 C912.286323,0 933.129031,9.73401684 948.888475,24.0983939 L928.727507,56.3057104 C919.007749,48.8951481 906.719883,41.0079798 887.72383,41.0079798 C863.392996,41.0079798 848.100179,59.317596 848.100179,81.1024646 C848.100179,102.880714 863.392996,121.180401 887.72383,121.180401" id="Fill-15"></path>
                <path d="M1025.34113,100.240424 L1064.72981,100.240424 L1045.27044,45.7881818 L1025.34113,100.240424 L1025.34113,100.240424 Z M1019.08633,2 L1071.44793,2 L1130.0577,159.55802 L1085.11913,159.55802 L1075.61779,132.911108 L1014.2248,132.911108 L1004.95512,159.55802 L960,159.55802 L1019.08633,2 L1019.08633,2 Z" id="Fill-16"></path>
                <polyline id="Fill-17" points="1193.48518 72.901771 1193.48518 159.55802 1149 159.55802 1149 2 1187.45874 2 1259.04474 88.8879327 1259.04474 2 1303.52992 2 1303.52992 159.55802 1265.06457 159.55802 1193.48518 72.901771"></polyline>
                <path d="M1341.42797,109.364542 C1353.7026,117.711768 1371.54036,125.12564 1390.54303,125.12564 C1403.51595,125.12564 1411.16401,121.180401 1411.16401,112.611421 C1411.16401,107.051017 1406.52752,103.572455 1396.80114,100.792253 L1371.77202,93.610064 C1345.13121,85.9645084 1331.69829,72.5235556 1331.69829,49.5835791 C1331.69829,21.7848687 1353.46763,0 1395.63622,0 C1418.10386,0 1440.58473,6.49044781 1452.86597,12.5142189 L1440.35307,49.3552054 C1427.84678,42.4080101 1409.30743,36.8476061 1393.78957,36.8476061 C1381.73998,36.8476061 1376.63355,40.7762963 1376.63355,47.2667441 C1376.63355,52.3670909 1379.88671,54.9156094 1388.21651,57.4674377 L1415.32726,65.341367 C1444.75459,74.1453401 1456.56921,88.5097172 1456.56921,109.831219 C1456.56921,140.420061 1430.39834,161.966626 1389.84474,161.966626 C1366.21551,161.966626 1341.42797,154.086077 1331,148.29399 L1341.42797,109.364542" id="Fill-18"></path>
            </g>
        </g>
    </g>
</svg>