<?xml version="1.0" encoding="UTF-8"?>
<svg width="1165px" height="428px" viewBox="0 0 1165 428" version="1.1" xmlns="http://www.w3.org/2000/svg" xmlns:xlink="http://www.w3.org/1999/xlink">
    <!-- Generator: Sketch 42 (36781) - http://www.bohemiancoding.com/sketch -->
    <title>Group 2</title>
    <desc>Created with Sketch.</desc>
    <defs></defs>
    <g id="08-The-Brood" stroke="none" stroke-width="1" fill="none" fill-rule="evenodd">
        <g id="The-Brood-Copy" transform="translate(-29.000000, 0.000000)">
            <g id="Group-2" transform="translate(29.000000, 0.000000)">
                <path d="M884.002,291 C974.028895,291 1047,235.930155 1047,168 L721,168 C721,235.930155 793.979105,291 884.002,291 Z" id="Shape" fill="#A1FF6E"></path>
                <path d="M719.492,155.148 L740.016,155.148 C740.016,155.124 740.02,155.104 740.02,155.076 C739.276,121.064 721.776,80.296 682.912,78.588 C669.664,78.004 669.72,98.552 682.912,99.132 C709.568,100.3 719,133.308 719.48,155.076 C719.484,155.1 719.488,155.124 719.492,155.148 L719.492,155.148 Z" id="Shape" fill="#A1FF6E"></path>
                <path d="M940.737774,15.6925549 L940.737774,15.6925549 C941.009654,14.7014979 941.29353,13.7104409 941.56541,12.7153878 C945.127846,-0.060455667 925.316544,-5.47130709 921.766103,7.25658197 C921.518212,8.14373781 921.274319,9.03089366 921.022429,9.91804951 C907.808231,57.3728949 894.59803,104.819748 881.38783,152.270597 C881.123946,153.229685 881.019991,154.132825 881,155 L1045,155 C1045,91.6163113 1001.76298,37.4798237 940.737774,15.6925549 L940.737774,15.6925549 Z" id="Shape" fill="#A1FF6E"></path>
                <path d="M77.85,293.15 L127.8,293.15 L127.8,267.5 L0,267.5 L0,293.15 L49.95,293.15 L49.95,425 L77.85,425 L77.85,293.15 Z M181.125,357.95 C181.125,339.5 192.15,328.475 207.9,328.475 C224.1,328.475 233.325,339.05 233.325,357.5 L233.325,425 L260.55,425 L260.55,349.4 C260.55,321.725 245.025,303.725 218.25,303.725 C199.8,303.725 188.775,313.4 181.125,324.65 L181.125,260.75 L153.9,260.75 L153.9,425 L181.125,425 L181.125,357.95 Z M314.1,375.275 L401.4,375.275 C401.625,372.575 401.85,370.325 401.85,367.85 C401.85,333.425 382.725,303.725 344.925,303.725 C310.95,303.725 286.875,331.625 286.875,365.825 C286.875,402.725 313.425,427.7 347.85,427.7 C369.675,427.7 385.2,418.925 396.45,405.425 L380.475,391.25 C371.025,400.475 361.575,405.425 348.3,405.425 C330.75,405.425 317.25,394.625 314.1,375.275 L314.1,375.275 Z M313.875,357.275 C316.35,338.825 328.05,326 344.7,326 C362.7,326 373.05,339.725 374.85,357.275 L313.875,357.275 Z M570.6,267.5 L499.95,267.5 L499.95,425 L572.85,425 C607.95,425 631.125,409.925 631.125,381.575 C631.125,359.975 618.3,349.4 599.85,343.1 C611.55,337.025 622.35,327.125 622.35,307.775 C622.35,283.025 602.325,267.5 570.6,267.5 L570.6,267.5 Z M564.975,333.875 L527.175,333.875 L527.175,292.025 L567,292.025 C584.775,292.025 594.675,299.45 594.675,312.275 C594.675,326.9 582.75,333.875 564.975,333.875 L564.975,333.875 Z M573.075,400.475 L527.175,400.475 L527.175,357.275 L571.05,357.275 C592.875,357.275 603.45,365.15 603.45,378.65 C603.45,393.05 591.975,400.475 573.075,400.475 L573.075,400.475 Z M686.475,379.775 C686.475,348.275 703.125,332.75 726.975,332.75 L728.55,332.75 L728.55,303.95 C707.625,303.05 693.9,315.2 686.475,332.975 L686.475,306.2 L659.25,306.2 L659.25,425 L686.475,425 L686.475,379.775 Z M1164.6,425 L1164.6,260.75 L1137.375,260.75 L1137.375,324.65 C1128.825,313.625 1116.45,303.725 1096.875,303.725 C1068.525,303.725 1041.75,326 1041.75,365.6 C1041.75,405.2 1068.975,427.475 1096.875,427.475 C1116.225,427.475 1128.6,417.575 1137.375,405.2 L1137.375,425 L1164.6,425 Z M1137.825,365.6 C1137.825,388.775 1121.625,403.85 1103.4,403.85 C1084.95,403.85 1069.2,389 1069.2,365.6 C1069.2,341.75 1084.725,327.35 1103.4,327.35 C1121.625,327.35 1137.825,342.425 1137.825,365.6 L1137.825,365.6 Z" id="The-Brood" fill="#589D33"></path>
                <path d="M872.325,365.6 C872.325,399.575 845.325,427.7 808.65,427.7 C772.425,427.7 745.65,400.025 745.65,366.05 C745.65,331.85 772.65,303.725 809.1,303.725 C845.55,303.725 872.325,331.4 872.325,365.6 Z M845.1,366.05 C845.1,344.9 830.025,327.575 808.65,327.575 C786.825,327.575 772.875,344.675 772.875,365.6 C772.875,386.75 787.95,404.075 809.1,404.075 C831.15,404.075 845.1,386.975 845.1,366.05 Z M1020.15,365.6 C1020.15,399.575 993.15,427.7 956.475,427.7 C920.25,427.7 893.475,400.025 893.475,366.05 C893.475,331.85 920.475,303.725 956.925,303.725 C993.375,303.725 1020.15,331.4 1020.15,365.6 Z M992.925,366.05 C992.925,344.9 977.85,327.575 956.475,327.575 C934.65,327.575 920.7,344.675 920.7,365.6 C920.7,386.75 935.775,404.075 956.925,404.075 C978.975,404.075 992.925,386.975 992.925,366.05 Z" id="Path" fill="#A1FF6F"></path>
            </g>
        </g>
    </g>
</svg>