<?xml version="1.0" encoding="UTF-8"?>
<svg width="300px" height="52px" viewBox="0 0 300 52" version="1.1" xmlns="http://www.w3.org/2000/svg" xmlns:xlink="http://www.w3.org/1999/xlink">
    <!-- Generator: Sketch 42 (36781) - http://www.bohemiancoding.com/sketch -->
    <title>Fill 1</title>
    <desc>Created with Sketch.</desc>
    <defs></defs>
    <g id="Posts" stroke="none" stroke-width="1" fill="none" fill-rule="evenodd">
        <g id="segment" transform="translate(-57.000000, -100.000000)" fill="#CE3543">
            <path d="M78.313768,123.495106 C78.0055287,123.905501 77.700959,124.113141 77.4049514,124.113141 L70.465898,123.905501 L64.0014352,142.634652 C63.5415226,144.10157 63.3127895,145.128778 63.3127895,145.722385 C63.3127895,146.456455 63.5647629,146.821657 64.0674865,146.821657 C65.1475471,146.821657 67.3003294,145.368175 70.5319492,142.463655 C71.747782,141.343619 72.4339813,140.784211 72.5942168,140.784211 C72.915911,140.784211 73.2021332,140.917345 73.4541066,141.178728 C73.7085263,141.44011 73.8308435,141.697828 73.8308435,141.950661 C73.8308435,142.315864 72.82295,143.407807 70.8083861,145.22527 C68.792599,147.043954 66.8856742,148.496215 65.0912812,149.584494 C63.2932187,150.669109 61.8547687,151.212638 60.7796008,151.212638 C58.2598669,151.212638 57,149.932597 57,147.370072 C57,146.15843 57.2752136,144.762354 57.8244178,143.18551 L64.4209831,123.977564 L59.1319884,124.113141 C58.6708526,124.113141 58.4421195,123.747939 58.4421195,123.016312 C58.4421195,122.581489 58.5974623,122.152773 58.9057016,121.730164 C59.2176104,121.305112 59.520957,121.09625 59.8145182,121.09625 L65.3836193,121.09625 L67.9229239,113.718914 C68.037902,113.37814 68.4550036,113.097215 69.1742286,112.882246 C69.8922304,112.663613 70.6175713,112.552464 71.349028,112.552464 C71.9887468,112.552464 72.5917705,112.65262 73.1483137,112.844382 C73.7109727,113.04103 73.991079,113.273098 73.991079,113.547916 L73.9531607,113.718914 L71.4163024,121.09625 L78.0226531,121.09625 C78.5265999,121.09625 78.7785733,121.462674 78.7785733,122.19308 C78.7785733,122.65111 78.6256768,123.082268 78.313768,123.495106 Z M104.008937,137.165164 C102.235338,140.927117 99.92599,144.209054 97.0894546,147.009755 C94.2480266,149.812898 91.8542795,151.212638 89.9094364,151.212638 C88.852616,151.212638 87.9401298,150.908506 87.1609694,150.301464 C86.3830322,149.695643 85.9940635,148.926152 85.9940635,147.988107 C85.9940635,147.050062 86.3023028,146.286678 86.9200046,145.705285 C87.5389295,145.122671 88.3511155,144.833196 89.3590091,144.833196 C90.2519245,144.833196 91.1582947,145.34619 92.0707809,146.375841 C92.6004142,146.94502 93.0003914,147.233274 93.2756051,147.233274 C94.0975765,147.233274 95.0956847,146.17553 96.2638137,144.05882 C97.4307196,141.945775 98.3688923,139.428443 99.0807783,136.512929 C99.7902179,133.598637 100.146161,130.655031 100.146161,127.68089 C100.146161,126.515661 99.92599,125.582501 99.491764,124.886296 C99.057538,124.187647 98.4753082,123.838323 97.7414052,123.838323 C96.2063246,123.838323 94.2406876,125.049965 91.8371551,127.474471 C89.4311762,129.896533 87.2123426,132.995259 85.1757616,136.771869 C83.1379575,140.542371 81.4646585,144.695177 80.1619806,149.221734 C80.0702427,149.542966 79.6959521,149.815341 79.0440016,150.043746 C78.3896047,150.273371 77.7315383,150.388184 77.0624633,150.388184 C76.4900189,150.388184 75.9530465,150.290471 75.4454302,150.096266 C74.9439298,149.90084 74.6895101,149.66755 74.6895101,149.392732 L74.7262052,149.221734 L86.8869789,110.562782 C87.2955183,109.329155 87.5034575,108.299503 87.5034575,107.476271 C87.5034575,106.58586 86.4980103,106.025232 84.4810001,105.796827 C84.0687912,105.751635 83.8632983,105.463382 83.8632983,104.938174 C83.8632983,104.389759 84.0198643,104.114941 84.3440048,104.114941 C85.8093646,103.840123 87.5487149,103.32713 89.5608324,102.572296 C91.5766195,101.81502 93.0884598,101.109043 94.0975765,100.445816 C94.5525964,100.147791 94.9403418,100 95.2608128,100 C95.7182791,100 95.9482354,100.25039 95.9482354,100.753612 C95.9482354,101.302027 95.8320341,101.899298 95.6045241,102.538097 L86.7512069,130.563425 C91.5399243,123.199524 96.3910236,119.515742 101.31429,119.515742 C102.800444,119.515742 104.066426,120.150877 105.111015,121.421146 C106.149488,122.690195 106.670559,124.295132 106.670559,126.240843 C106.670559,129.762178 105.78376,133.403211 104.008937,137.165164 Z M125.632168,133.116179 C122.519196,135.62374 118.89983,136.873246 114.778965,136.873246 C114.6383,138.244893 114.573472,139.480963 114.573472,140.579014 C114.573472,142.590682 114.853578,144.033171 115.416237,144.900374 C115.974004,145.77002 116.907284,146.203622 118.213631,146.203622 C121.145574,146.203622 123.742367,144.522957 126.008905,141.160407 L126.216844,141.057808 C126.401543,141.057808 126.596027,141.178728 126.800297,141.418125 C127.007013,141.659965 127.109759,141.879819 127.109759,142.086238 C127.109759,142.567475 126.412551,143.711939 125.015689,145.517188 C123.616381,147.32488 122.146128,148.723398 120.601262,149.717628 C119.052727,150.71308 117.547002,151.212638 116.085312,151.212638 C113.837122,151.212638 111.995026,150.347877 110.552906,148.62202 C109.109564,146.894942 108.387892,144.855182 108.387892,142.499076 C108.387892,139.206145 109.253898,135.765424 110.984686,132.174469 C112.711804,128.583514 114.922076,125.577616 117.610607,123.154332 C120.302808,120.729826 122.791963,119.515742 125.08541,119.515742 C126.734246,119.515742 128.013683,119.9811 128.931062,120.904489 C129.848441,121.832763 130.304684,123.082268 130.304684,124.661556 C130.304684,127.796924 128.748809,130.613503 125.632168,133.116179 Z M122.886147,122.94547 C124.577794,122.94547 125.426675,123.905501 125.426675,125.826784 C125.426675,127.064076 124.950861,128.438166 124.00168,129.96249 C123.050052,131.481928 121.825657,132.648377 120.326049,133.459396 C118.825217,134.270414 117.112776,134.677145 115.18995,134.677145 C115.784412,131.339022 116.804537,128.550536 118.24788,126.310464 C119.687553,124.066728 121.234865,122.94547 122.886147,122.94547 Z M151.35914,120.225383 L165.095358,120.225383 L165.095358,130.816257 L151.35914,130.816257 L151.35914,149.702971 L138.833861,149.702971 L138.833861,101.595166 L166.502006,101.595166 L166.502006,112.189705 L151.35914,112.189705 L151.35914,120.225383 Z M197.928958,149.702971 L186.108226,131.201003 L185.981016,131.201003 L185.981016,149.702971 L173.455737,149.702971 L173.455737,101.595166 L192.180051,101.595166 C201.698774,101.595166 208.919157,106.126609 208.919157,116.398695 C208.919157,123.034633 205.211723,128.775276 198.379085,129.989361 L213.518282,149.702971 L197.928958,149.702971 Z M187.194403,123.164103 L185.981016,123.164103 L185.981016,111.16616 L187.194403,111.16616 C191.284689,111.16616 195.885038,111.931986 195.885038,117.1633 C195.885038,122.397056 191.284689,123.164103 187.194403,123.164103 Z M225.844184,149.702971 L212.550753,149.702971 L231.083029,101.595166 L244.756866,101.595166 L262.901396,149.702971 L249.54803,149.702971 L246.417933,141.346061 L229.166319,141.346061 L225.844184,149.702971 Z M237.792126,116.459766 L237.919336,116.459766 L243.030971,131.772624 L232.616886,131.772624 L237.792126,116.459766 Z M284.426773,101.595166 L294.202362,127.30958 L304.551618,101.595166 L317.012069,101.595166 L324.294833,149.702971 L311.772001,149.702971 L308.257828,122.01231 L296.564306,149.702971 L291.582328,149.702971 L280.527301,122.01231 L276.375856,149.702971 L263.914182,149.702971 L272.092309,101.595166 L284.426773,101.595166 Z M342.109107,120.225383 L356.233071,120.225383 L356.233071,130.816257 L342.109107,130.816257 L342.109107,139.109654 L357,139.109654 L357,149.702971 L329.588721,149.702971 L329.588721,101.595166 L357,101.595166 L357,112.189705 L342.109107,112.189705 L342.109107,120.225383 Z" id="Fill-1"></path>
        </g>
    </g>
</svg>