<?xml version="1.0" encoding="UTF-8"?>
<svg width="4018px" height="656px" viewBox="0 0 4018 656" version="1.1" xmlns="http://www.w3.org/2000/svg" xmlns:xlink="http://www.w3.org/1999/xlink">
    <!-- Generator: Sketch 51.3 (57544) - http://www.bohemiancoding.com/sketch -->
    <title>TheFrame - Color</title>
    <desc>Created with Sketch.</desc>
    <defs>
        <path d="M96.41,102.83 L83.958,102.83 L69.618,70.755 L48.863,70.755 L48.863,102.83 L37.731,102.83 L37.731,27.359 L69.618,27.359 C84.712,27.359 95.278,36.226 95.278,48.868 C95.278,57.924 89.995,65.094 80.75,68.302 L96.41,102.83 Z M48.863,61.887 L68.297,61.887 C77.731,61.887 83.391,56.792 83.391,48.679 C83.391,41.321 78.108,36.792 69.618,36.792 L48.863,36.792 L48.863,61.887 Z M66.788,0 C101.693,0 130.75,29.623 130.75,64.906 C130.75,100.943 101.693,130 65.844,130 C29.618,130 0.75,100.943 0.75,64.528 C0.75,28.679 30.184,0 66.788,0 Z M66.599,9.245 C49.618,9.245 35.467,15.472 24.335,27.736 C15.278,37.736 9.995,51.132 9.995,64.528 C9.995,95.849 34.712,120.755 65.844,120.755 C96.599,120.755 121.505,95.849 121.505,64.906 C121.505,34.717 96.41,9.245 66.599,9.245 Z" id="path-1"></path>
        <path d="M278.486,284.028 C278.486,289.89 276.531,295.408 272.542,300.691 C268.601,305.944 264.706,308.601 260.921,308.601 L172.19,305.944 L89.528,545.64 C83.647,564.414 80.723,577.56 80.723,585.157 C80.723,594.552 83.944,599.226 90.373,599.226 C104.184,599.226 131.712,580.624 173.035,543.452 C188.582,529.117 197.357,521.958 199.405,521.958 C203.519,521.958 207.179,523.662 210.401,527.007 C213.654,530.352 215.218,533.651 215.218,536.886 C215.218,541.56 202.33,555.535 176.57,578.795 C150.794,602.071 126.409,620.657 103.464,634.585 C80.472,648.466 62.079,655.422 48.33,655.422 C16.11,655.422 0,639.04 0,606.244 C0,590.738 3.519,572.871 10.542,552.69 L94.893,306.866 L27.262,308.601 C21.365,308.601 18.441,303.927 18.441,294.564 C18.441,288.999 20.427,283.512 24.368,278.104 C28.357,272.664 32.236,269.991 35.99,269.991 L107.202,269.991 L139.673,175.575 C141.143,171.214 146.477,167.619 155.674,164.868 C164.855,162.07 174.13,160.647 183.483,160.647 C191.663,160.647 199.374,161.929 206.491,164.383 C213.686,166.9 217.267,169.87 217.267,173.387 L216.782,175.575 L184.343,269.991 L268.82,269.991 C275.264,269.991 278.486,274.68 278.486,284.028 Z M635.145,335.831 C635.145,380.898 623.805,427.496 601.11,475.641 C578.431,523.787 548.901,565.789 512.63,601.633 C476.296,637.508 445.687,655.422 420.818,655.422 C407.304,655.422 395.636,651.529 385.673,643.76 C375.725,636.007 370.751,626.159 370.751,614.154 C370.751,602.149 374.693,592.379 382.591,584.938 C390.506,577.482 400.891,573.777 413.779,573.777 C425.197,573.777 436.787,580.343 448.455,593.52 C455.228,600.805 460.342,604.494 463.861,604.494 C474.372,604.494 487.135,590.957 502.072,563.867 C516.993,536.824 528.99,504.607 538.093,467.294 C547.165,429.997 551.716,392.324 551.716,354.261 C551.716,339.349 548.901,327.406 543.348,318.496 C537.796,309.555 530.351,305.084 520.966,305.084 C501.337,305.084 476.202,320.591 445.468,351.619 C414.702,382.617 386.33,422.275 360.287,470.608 C334.23,518.863 312.833,572.011 296.176,629.942 C295.003,634.053 290.216,637.539 281.88,640.462 C273.512,643.401 265.097,644.87 256.542,644.87 C249.222,644.87 242.355,643.62 235.864,641.134 C229.452,638.633 226.198,635.648 226.198,632.13 L226.667,629.942 L382.169,135.183 C387.393,119.395 390.052,106.217 390.052,95.682 C390.052,84.286 377.195,77.111 351.404,74.188 C346.133,73.61 343.505,69.921 343.505,63.199 C343.505,56.18 345.507,52.663 349.652,52.663 C368.39,49.146 390.631,42.581 416.36,32.92 C442.136,23.229 461.468,14.194 474.372,5.706 C480.19,1.891 485.149,0 489.247,0 C495.096,0 498.037,3.204 498.037,9.645 C498.037,16.663 496.551,24.307 493.642,32.483 L380.433,391.152 C441.667,296.909 503.699,249.763 566.653,249.763 C585.657,249.763 601.845,257.892 615.203,274.149 C628.482,290.39 635.145,310.93 635.145,335.831 Z M937.358,315.62 C937.358,355.746 917.463,391.793 877.61,423.822 C837.804,455.914 791.522,471.905 738.828,471.905 C737.029,489.46 736.2,505.279 736.2,519.332 C736.2,545.077 739.782,563.539 746.977,574.637 C754.109,585.767 766.043,591.316 782.748,591.316 C820.239,591.316 853.444,569.807 882.427,526.773 L885.086,525.46 C887.448,525.46 889.935,527.007 892.547,530.071 C895.19,533.166 896.504,535.98 896.504,538.622 C896.504,544.78 887.589,559.427 869.727,582.531 C851.833,605.666 833.033,623.564 813.279,636.288 C793.477,649.028 774.223,655.422 755.533,655.422 C726.785,655.422 703.229,644.354 684.789,622.267 C666.333,600.164 657.104,574.059 657.104,543.905 C657.104,501.762 668.178,457.728 690.31,411.77 C712.395,365.813 740.658,327.344 775.037,296.33 C809.462,265.301 841.292,249.763 870.618,249.763 C891.702,249.763 908.062,255.719 919.793,267.537 C931.524,279.417 937.358,295.408 937.358,315.62 Z M874.982,330.532 C874.982,305.944 864.127,293.657 842.496,293.657 C821.381,293.657 801.595,308.007 783.186,336.723 C764.729,365.391 751.685,401.078 744.083,443.8 C768.671,443.8 790.568,438.594 809.76,428.215 C828.935,417.835 844.592,402.907 856.76,383.461 C868.898,363.953 874.982,346.367 874.982,330.532 Z M1206.584,156.004 L1206.584,258.845 L1382.231,258.845 L1382.231,394.388 L1206.584,394.388 L1206.584,636.101 L1046.422,636.101 L1046.422,20.415 L1400.218,20.415 L1400.218,156.004 L1206.584,156.004 Z M2001.423,636.101 L1802.079,636.101 L1650.926,399.312 L1649.299,399.312 L1649.299,636.101 L1489.137,636.101 L1489.137,20.415 L1728.567,20.415 C1850.285,20.415 1942.613,78.409 1942.613,209.871 C1942.613,294.798 1895.205,368.267 1807.835,383.805 L2001.423,636.101 Z M1649.299,296.455 L1664.815,296.455 C1717.118,296.455 1775.943,286.639 1775.943,219.657 C1775.943,152.706 1717.118,142.905 1664.815,142.905 L1649.299,142.905 L1649.299,296.455 Z M2201.516,529.149 L2159.036,636.101 L1989.05,636.101 L2226.026,20.415 L2400.875,20.415 L2632.892,636.101 L2462.14,636.101 L2422.115,529.149 L2201.516,529.149 Z M2313.442,210.653 L2311.815,210.653 L2245.639,406.627 L2378.805,406.627 L2313.442,210.653 Z M2750.417,20.415 L2908.14,20.415 L3033.142,349.509 L3165.479,20.415 L3324.813,20.415 L3417.939,636.101 L3257.807,636.101 L3212.871,281.715 L3211.245,281.715 L3063.344,636.101 L2999.639,636.101 L2858.277,281.715 L2856.666,281.715 L2805.191,636.101 L2645.842,636.101 L2750.417,20.415 Z M3645.732,156.004 L3645.732,258.845 L3826.337,258.845 L3826.337,394.388 L3645.732,394.388 L3645.732,500.527 L3836.145,500.527 L3836.145,636.101 L3485.633,636.101 L3485.633,20.415 L3836.145,20.415 L3836.145,156.004 L3645.732,156.004 Z" id="path-3"></path>
    </defs>
    <g id="Page-1" stroke="none" stroke-width="1" fill="none" fill-rule="evenodd">
        <g id="TheFrame---Color">
            <g id="Group-3" transform="translate(3887.000000, 0.000000)">
                <mask id="mask-2" fill="white">
                    <use xlink:href="#path-1"></use>
                </mask>
                <g id="Clip-2"></g>
                <polygon id="Fill-1" fill="#000000" mask="url(#mask-2)" points="0.7 130.08 130.78 130.08 130.78 0 0.7 0"></polygon>
            </g>
            <g id="Group-6">
                <mask id="mask-4" fill="white">
                    <use xlink:href="#path-3"></use>
                </mask>
                <g id="Clip-5"></g>
                <polygon id="Fill-4" fill="#CD3044" mask="url(#mask-4)" points="-0.06 655.44 3836.22 655.44 3836.22 0 -0.06 0"></polygon>
            </g>
        </g>
    </g>
</svg>