<?xml version="1.0" encoding="UTF-8"?>
<svg width="1228px" height="399px" viewBox="0 0 1228 399" version="1.1" xmlns="http://www.w3.org/2000/svg" xmlns:xlink="http://www.w3.org/1999/xlink">
    <!-- Generator: Sketch 42 (36781) - http://www.bohemiancoding.com/sketch -->
    <title>Group 2</title>
    <desc>Created with Sketch.</desc>
    <defs></defs>
    <g id="18-The-Awards-Show-Show" stroke="none" stroke-width="1" fill="none" fill-rule="evenodd">
        <g id="Group-2">
            <path d="M111.63864,33.9769773 L111.63864,2.71815818 L0,2.71815818 L0,33.9769773 L36.6951355,33.9769773 L36.6951355,124.064506 L74.9435042,124.064506 L74.9435042,33.9769773 L111.63864,33.9769773 Z M243.663466,124.064506 L243.663466,2.71815818 L205.415097,2.71815818 L205.415097,46.9853058 L165.807649,46.9853058 L165.807649,2.71815818 L127.55928,2.71815818 L127.55928,124.064506 L165.807649,124.064506 L165.807649,78.8265873 L205.415097,78.8265873 L205.415097,124.064506 L243.663466,124.064506 Z M360.932576,124.064506 L360.932576,94.3589198 L303.462946,94.3589198 L303.462946,78.0499707 L348.895018,78.0499707 L348.895018,48.3443848 L303.462946,48.3443848 L303.462946,32.4237441 L360.932576,32.4237441 L360.932576,2.71815818 L266.185348,2.71815818 L266.185348,124.064506 L360.932576,124.064506 Z M503.830035,2.71815818 L455.097342,2.71815818 L413.354198,124.064506 L451.020104,124.064506 L458.203808,101.348469 L499.364489,101.348469 L506.936501,124.064506 L544.796562,124.064506 L503.830035,2.71815818 Z M491.986631,72.6136543 L465.581666,72.6136543 L479.172457,30.0938942 L491.986631,72.6136543 Z M627.894541,45.0437642 L648.086573,124.064506 L688.470637,124.064506 L719.92361,2.71815818 L680.122008,2.71815818 L668.861067,81.9330538 L650.416423,2.71815818 L606.731738,2.71815818 L588.287093,81.9330538 L577.220306,2.71815818 L536.059625,2.71815818 L567.318444,124.064506 L607.508354,124.064506 L627.894541,45.0437642 Z M801.66251,2.71815818 L752.929817,2.71815818 L711.186673,124.064506 L748.85258,124.064506 L756.036283,101.348469 L797.196965,101.348469 L804.768977,124.064506 L842.629037,124.064506 L801.66251,2.71815818 Z M789.819107,72.6136543 L763.414141,72.6136543 L777.004932,30.0938942 L789.819107,72.6136543 Z M892.332501,88.1459868 L903.01098,87.175216 L924.756245,124.064506 L967.081851,124.064506 L936.987957,77.4675082 C953.102752,71.0604211 960.674764,57.8579385 960.674764,42.5197602 C960.674764,18.2504907 942.812582,2.71815818 909.029758,2.71815818 L854.084132,2.71815818 L854.084132,124.064506 L892.332501,124.064506 L892.332501,88.1459868 Z M891.555884,60.964405 L891.555884,31.8412816 L902.040209,31.8412816 C915.825154,31.8412816 921.067316,36.3068272 921.067316,45.2379183 C921.067316,55.1397803 916.407616,59.6053259 904.758367,60.7702508 L891.555884,60.964405 Z M1099.68914,62.5176382 C1099.68914,26.4049652 1075.41987,2.71815818 1031.34688,2.71815818 L981.06095,2.71815818 L981.06095,124.064506 L1028.62872,124.064506 C1074.4491,124.064506 1099.68914,99.7952362 1099.68914,62.5176382 L1099.68914,62.5176382 Z M1061.24662,63.6825632 C1061.24662,85.2336745 1049.79152,94.7472281 1030.76441,94.7472281 L1019.30932,94.7472281 L1019.30932,32.0354357 L1028.82287,32.0354357 C1051.1506,32.0354357 1061.24662,41.1606811 1061.24662,63.6825632 L1061.24662,63.6825632 Z M1161.23601,96.1063072 C1145.89783,96.1063072 1129.58888,91.2524533 1116.58055,84.8453662 L1110.75593,116.104185 C1121.82271,122.122964 1140.65567,126.976818 1160.65354,126.976818 C1195.79545,126.976818 1214.04594,110.279561 1214.04594,86.0102911 C1214.04594,62.7117924 1193.85391,54.3631637 1174.63264,48.9268473 C1162.59509,45.6262267 1150.94584,42.9080685 1150.94584,37.277598 C1150.94584,32.4237441 1155.21723,30.8705108 1162.59509,30.8705108 C1175.21511,30.8705108 1191.71821,35.3360564 1205.309,41.9372977 L1211.32778,10.6784786 C1199.67853,4.8538539 1183.95204,0 1162.40093,0 C1129.20057,0 1112.69747,15.5323325 1112.69747,39.2191395 C1112.69747,63.8767173 1135.21935,72.4195002 1153.08153,77.4675082 C1167.25479,81.5447455 1175.79757,83.2921329 1175.79757,89.1167576 C1175.79757,94.1647657 1169.97294,96.1063072 1161.23601,96.1063072 L1161.23601,96.1063072 Z M59.8965571,244.603592 C44.5583788,244.603592 28.2494297,239.749738 15.2411012,233.342651 L9.41647657,264.60147 C20.4832635,270.620249 39.3162166,275.474102 59.3140947,275.474102 C94.4559969,275.474102 112.706488,258.776845 112.706488,234.507576 C112.706488,211.209077 92.5144553,202.860448 73.2931939,197.424132 C61.2556362,194.123511 49.6063869,191.405353 49.6063869,185.774882 C49.6063869,180.921028 53.8777783,179.367795 61.2556362,179.367795 C73.8756564,179.367795 90.3787596,183.833341 103.969551,190.434582 L109.988329,159.175763 C98.33908,153.351138 82.6125934,148.497284 61.0614821,148.497284 C27.8611214,148.497284 11.3580181,164.029617 11.3580181,187.716424 C11.3580181,212.374002 33.8799002,220.916785 51.7420826,225.964793 C65.915336,230.04203 74.4581188,231.789417 74.4581188,237.614042 C74.4581188,242.66205 68.6334941,244.603592 59.8965571,244.603592 L59.8965571,244.603592 Z M246.672855,272.56179 L246.672855,151.215443 L208.424486,151.215443 L208.424486,195.48259 L168.817039,195.48259 L168.817039,151.215443 L130.56867,151.215443 L130.56867,272.56179 L168.817039,272.56179 L168.817039,227.323872 L208.424486,227.323872 L208.424486,272.56179 L246.672855,272.56179 Z M394.618322,211.403231 C394.618322,169.077625 366.271815,148.30313 329.964988,148.30313 C293.658161,148.30313 264.729192,172.5724 264.729192,212.179848 C264.729192,254.505454 293.075698,275.474102 329.382526,275.474102 C365.689353,275.474102 394.618322,251.010679 394.618322,211.403231 L394.618322,211.403231 Z M356.175799,212.179848 C356.175799,231.595263 347.438862,245.380208 329.964988,245.380208 C312.29696,245.380208 303.171715,231.401109 303.171715,211.403231 C303.171715,191.987815 311.714497,178.397024 329.382526,178.397024 C347.050554,178.397024 356.175799,192.18197 356.175799,212.179848 L356.175799,212.179848 Z M490.142167,193.541049 L510.334199,272.56179 L550.718264,272.56179 L582.171237,151.215443 L542.369635,151.215443 L531.108694,230.430338 L512.664049,151.215443 L468.979364,151.215443 L450.534719,230.430338 L439.467932,151.215443 L398.307251,151.215443 L429.56607,272.56179 L469.75598,272.56179 L490.142167,193.541049 Z" id="THE-AWARDS-Copy" fill="#CE3543"></path>
            <g id="Rectangle-2-+-Group" transform="translate(909.000000, 281.000000) rotate(5.000000) translate(-909.000000, -281.000000) translate(587.000000, 137.000000)">
                <g transform="translate(322.273441, 144.110584) rotate(-11.000000) translate(-322.273441, -144.110584) translate(11.273441, 58.610584)">
                    <rect id="Rectangle-2" fill="#CE3543" x="-1.71596071e-12" y="-1.30739863e-12" width="622" height="171"></rect>
                    <g id="Group" transform="translate(28.383793, 23.170354)" fill="#FFFFFF">
                        <path d="M5.82462468,85.8453662 L-5.75539616e-13,117.104185 C11.0667869,123.122964 29.89974,127.976818 49.8976181,127.976818 C85.0395203,127.976818 103.290011,111.279561 103.290011,87.0102911 C103.290011,63.7117924 83.0979788,55.3631637 63.8767173,49.9268473 C51.8391597,46.6262267 40.1899103,43.9080685 40.1899103,38.277598 C40.1899103,33.4237441 44.4613017,31.8705108 51.8391597,31.8705108 C64.4591798,31.8705108 80.9622831,36.3360564 94.553074,42.9372977 L100.571853,11.6784786 C88.9226035,5.8538539 73.1961168,1 51.6450055,1 C18.4446448,1 1.94154156,16.5323325 1.94154156,40.2191395 C1.94154156,64.8767173 24.4634237,73.4195002 42.325606,78.4675082 C56.4988594,82.5447455 65.0416423,84.2921329 65.0416423,90.1167576 C65.0416423,95.1647657 59.2170176,97.1063072 50.4800806,97.1063072 C35.1419022,97.1063072 18.8329531,92.2524533 5.82462468,85.8453662 Z" id="Path"></path>
                        <polygon id="Path" points="237.104185 124.346348 237.104185 3 198.855817 3 198.855817 47.2671476 159.248369 47.2671476 159.248369 3 121 3 121 124.346348 159.248369 124.346348 159.248369 79.1084292 198.855817 79.1084292 198.855817 124.346348"></polygon>
                        <path d="M384.88913,63.1001007 C384.88913,102.707549 355.960161,127.170972 319.653334,127.170972 C283.346507,127.170972 255,106.202323 255,63.8767173 C255,24.2692695 283.928969,-9.37916411e-13 320.235796,-9.37916411e-13 C356.542624,-9.37916411e-13 384.88913,20.7744947 384.88913,63.1001007 Z M346.446607,63.8767173 C346.446607,43.8788393 337.321362,30.0938942 319.653334,30.0938942 C301.985306,30.0938942 293.442523,43.6846851 293.442523,63.1001007 C293.442523,83.0979788 302.567768,97.077078 320.235796,97.077078 C337.70967,97.077078 346.446607,83.2921329 346.446607,63.8767173 Z" id="Path"></path>
                        <polygon id="Path" points="480.834916 45.325606 501.026948 124.346348 541.411012 124.346348 572.863986 3 533.062384 3 521.801443 82.2148957 503.356798 3 459.672113 3 441.227468 82.2148957 430.160681 3 389 3 420.258819 124.346348 460.448729 124.346348"></polygon>
                    </g>
                </g>
            </g>
        </g>
    </g>
</svg>